<svg width="182" height="182" viewBox="0 0 182 182" fill="none" xmlns="http://www.w3.org/2000/svg">
<path d="M0 0H182V182H36.2333C26.6236 182 17.4076 178.183 10.6125 171.387C3.81743 164.592 0 155.376 0 145.767L0 0Z" fill="#F4F4F4"/>
<path d="M78.8196 105.077C77.907 105.084 76.9949 105.027 76.0901 104.908C66.6452 103.555 59.0362 95.6923 59.1812 87.3828C59.1867 85.5918 59.5804 83.8232 60.3352 82.1989C61.09 80.5747 62.1879 79.1333 63.5533 77.9742C65.3716 76.5158 67.4794 75.461 69.7367 74.88C71.9941 74.299 74.3492 74.2051 76.6456 74.6045C86.0905 75.9572 93.6995 83.832 93.6149 92.1415C93.6063 93.9332 93.21 95.7018 92.4532 97.3259C91.6964 98.95 90.597 100.391 89.2307 101.55C86.3376 103.954 82.6774 105.24 78.9163 105.173L78.8196 105.077ZM73.7711 75.7881C70.3486 75.7061 67.0102 76.8546 64.3625 79.025C63.1444 80.0531 62.1652 81.3348 61.4935 82.7804C60.8218 84.226 60.4737 85.8008 60.4735 87.3949C60.389 95.0401 67.4665 102.287 76.2471 103.543C78.3476 103.916 80.5036 103.838 82.5715 103.313C84.6395 102.788 86.5719 101.829 88.2403 100.499C89.4556 99.4661 90.4326 98.1818 91.104 96.7348C91.7754 95.2878 92.1252 93.7125 92.1293 92.1173C92.2139 84.5445 85.1363 77.2979 76.3558 75.9693C75.4994 75.8497 74.6358 75.7892 73.7711 75.7881Z" fill="#181B1F"/>
<path d="M79.0491 88.24C78.3678 88.2424 77.7011 88.0426 77.1335 87.6658C76.5658 87.289 76.1227 86.7523 75.8604 86.1235C75.598 85.4948 75.5281 84.8023 75.6595 84.1338C75.791 83.4653 76.1179 82.8508 76.5988 82.3682C77.0797 81.8856 77.693 81.5565 78.361 81.4227C79.0291 81.2889 79.7218 81.3564 80.3515 81.6166C80.9812 81.8767 81.5195 82.3179 81.8982 82.8842C82.277 83.4506 82.4792 84.1166 82.4792 84.7979C82.476 85.7077 82.114 86.5796 81.4718 87.2241C80.8295 87.8686 79.9589 88.2337 79.0491 88.24ZM79.0491 82.7446C78.6425 82.7423 78.2444 82.8606 77.9051 83.0848C77.5659 83.3089 77.3008 83.6288 77.1436 84.0037C76.9863 84.3787 76.9439 84.7919 77.0218 85.191C77.0996 85.5901 77.2942 85.957 77.5809 86.2454C77.8676 86.5337 78.2334 86.7305 78.632 86.8107C79.0306 86.8909 79.4441 86.851 79.8199 86.6959C80.1958 86.5409 80.5172 86.2777 80.7434 85.9398C80.9695 85.6019 81.0902 85.2045 81.0902 84.7979C81.0902 84.2554 80.8756 83.735 80.4931 83.3503C80.1107 82.9656 79.5915 82.7478 79.0491 82.7446Z" fill="#181B1F"/>
<path d="M51.1494 125.947L49.1204 116.285L53.3838 115.886L52.8403 110.729L56.7777 110.5L56.2463 105.487H60.2923L64.5678 98.5789L65.7394 99.3035L61.0653 106.876H57.7801L58.2995 111.792L54.3621 112.034L54.9056 117.13L50.7992 117.517L52.2485 124.474L60.7875 123.821L72.7324 103.253L73.9281 103.953L61.6088 125.138L51.1494 125.947Z" fill="#181B1F"/>
<path d="M108.483 107.649C105.923 107.677 103.4 107.049 101.151 105.825C99.5801 104.965 98.2136 103.775 97.1462 102.336C96.0787 100.898 95.3355 99.2449 94.9676 97.4917C94.5572 95.1985 94.639 92.8443 95.2074 90.585C95.7759 88.3258 96.8181 86.2132 98.2649 84.3873C103.966 76.7421 114.509 73.8072 121.768 77.8533C123.34 78.7134 124.706 79.9037 125.774 81.3423C126.841 82.7809 127.584 84.4337 127.952 86.1869C128.362 88.4801 128.281 90.8344 127.712 93.0936C127.144 95.3528 126.102 97.4654 124.655 99.2913C122.774 101.824 120.339 103.894 117.536 105.342C114.733 106.791 111.637 107.58 108.483 107.649ZM114.413 77.4547C111.478 77.5278 108.599 78.2684 105.994 79.6203C103.388 80.9722 101.125 82.8998 99.376 85.2569C98.0455 86.9251 97.085 88.8572 96.5582 90.9249C96.0314 92.9926 95.9503 95.1487 96.3203 97.2502C96.6469 98.8096 97.3072 100.28 98.2558 101.56C99.2044 102.84 100.419 103.9 101.816 104.666C108.495 108.386 118.242 105.632 123.556 98.5183C124.886 96.8501 125.847 94.9181 126.374 92.8504C126.9 90.7827 126.981 88.6265 126.611 86.5251C126.285 84.9657 125.625 83.4954 124.676 82.2153C123.727 80.9352 122.513 79.8756 121.116 79.1094C119.063 77.9969 116.76 77.4274 114.425 77.4547" fill="#181B1F"/>
<path d="M108.41 90.4986C107.839 90.5002 107.278 90.3546 106.78 90.0759C106.383 89.8621 106.032 89.5719 105.748 89.222C105.464 88.8722 105.252 88.4696 105.124 88.0374C104.996 87.6052 104.955 87.152 105.003 86.7038C105.05 86.2556 105.186 85.8214 105.403 85.426C105.727 84.8294 106.22 84.3422 106.821 84.0262C107.421 83.7101 108.102 83.5794 108.777 83.6505C109.452 83.7216 110.091 83.9914 110.613 84.4257C111.134 84.86 111.515 85.4393 111.707 86.0902C111.84 86.5213 111.884 86.9747 111.836 87.4231C111.788 87.8715 111.65 88.3056 111.43 88.699C111.137 89.2443 110.701 89.6998 110.169 90.0167C109.637 90.3337 109.029 90.5002 108.41 90.4986ZM108.41 85.0032C108.09 85.0028 107.774 85.0774 107.487 85.2211C107.201 85.3648 106.952 85.5735 106.761 85.8306C106.569 86.0876 106.441 86.3859 106.385 86.7016C106.33 87.0172 106.349 87.3414 106.442 87.6483C106.516 87.9046 106.641 88.1434 106.809 88.3508C106.977 88.5582 107.185 88.73 107.42 88.8561C107.779 89.0533 108.189 89.1386 108.597 89.1008C109.005 89.0631 109.393 88.9041 109.71 88.6443C110.027 88.3845 110.259 88.0358 110.376 87.643C110.493 87.2503 110.49 86.8315 110.367 86.4405C110.292 86.1842 110.167 85.9453 109.999 85.7379C109.831 85.5305 109.624 85.3588 109.389 85.2327C109.088 85.0689 108.752 84.9818 108.41 84.9791" fill="#181B1F"/>
<path d="M131.237 131.225L121.78 128.387L123.471 124.449L118.676 122.469L120.355 118.893L115.705 116.973L117.638 113.422L113.604 106.357L114.811 105.68L119.22 113.398L117.65 116.285L122.227 118.181L120.548 121.744L125.283 123.713L123.664 127.505L130.476 129.546L133.967 121.744L121.611 101.417L122.795 100.704L135.525 121.647L131.237 131.225Z" fill="#181B1F"/>
<path d="M73.1068 68.5293C73.1068 62.7635 75.3973 57.2338 79.4743 53.1568C83.5514 49.0797 89.081 46.7893 94.8468 46.7893C100.613 46.7893 106.142 49.0797 110.219 53.1568C114.296 57.2338 116.587 62.7635 116.587 68.5293C116.58 71.0351 116.135 73.5205 115.27 75.8726L116.611 76.247C118.031 72.2281 118.311 67.8944 117.419 63.7262C116.527 59.558 114.499 55.7183 111.558 52.6326C108.617 49.5469 104.88 47.3358 100.759 46.2445C96.6387 45.1531 92.2965 45.2241 88.214 46.4495C84.1314 47.675 80.4679 50.007 77.6297 53.1872C74.7914 56.3674 72.8893 60.2714 72.1341 64.4664C71.3789 68.6615 71.8001 72.9838 73.3511 76.9541C74.9021 80.9244 77.5223 84.3877 80.9212 86.96L81.211 87.1532L82.0565 86.0662L81.7666 85.8488C79.0849 83.8352 76.9108 81.2228 75.4178 78.22C73.9248 75.2171 73.1541 71.9069 73.1672 68.5534" fill="#181B1F"/>
<path d="M109.654 84.3269C105.641 88.1175 100.331 90.2304 94.8105 90.2329C94.2067 90.2329 93.6028 90.2088 92.9989 90.1605L92.7694 90.9214L92.1293 91.4528C93.0193 91.5573 93.9144 91.6137 94.8105 91.6219C100.7 91.6245 106.364 89.363 110.632 85.3052L109.654 84.3269Z" fill="#181B1F"/>
</svg>
