<svg width="182" height="182" viewBox="0 0 182 182" fill="none" xmlns="http://www.w3.org/2000/svg">
<path d="M0 0H182V182H36.2333C26.6236 182 17.4076 178.183 10.6125 171.387C3.81743 164.592 0 155.376 0 145.767L0 0Z" fill="#F4F4F4"/>
<path d="M106.212 45.8955H60.5701C59.6411 45.8955 58.7502 46.2645 58.0934 46.9214C57.4365 47.5782 57.0675 48.4691 57.0675 49.3981V126.901C57.0707 127.829 57.4407 128.718 58.0969 129.374C58.7531 130.03 59.6421 130.401 60.5701 130.404H124.582C125.508 130.397 126.394 130.026 127.048 129.37C127.701 128.714 128.07 127.827 128.073 126.901V66.6814L106.212 45.8955ZM106.635 61.814V48.2265L125.609 66.3432H108.7C108.145 66.34 107.613 66.1172 107.222 65.7234C106.83 65.3296 106.611 64.7969 106.611 64.2416L106.635 61.814ZM124.57 129.003H60.558C60.0006 129.003 59.4661 128.781 59.072 128.387C58.6779 127.993 58.4565 127.459 58.4565 126.901V49.3981C58.4565 48.8407 58.6779 48.3062 59.072 47.9121C59.4661 47.5179 60.0006 47.2965 60.558 47.2965H105.246V64.2054C105.267 65.1125 105.639 65.976 106.283 66.6153C106.927 67.2546 107.793 67.6202 108.7 67.6355H126.635V126.817C126.636 127.372 126.416 127.905 126.024 128.298C125.633 128.692 125.101 128.915 124.546 128.918" fill="#030303"/>
<path d="M113.966 95.8976H71.0899C70.9041 95.8976 70.7259 95.8238 70.5945 95.6924C70.4631 95.5611 70.3893 95.3829 70.3893 95.1971C70.3893 95.0113 70.4631 94.8331 70.5945 94.7018C70.7259 94.5704 70.9041 94.4966 71.0899 94.4966H113.966C114.058 94.4966 114.149 94.5147 114.234 94.5499C114.319 94.5851 114.396 94.6367 114.461 94.7018C114.526 94.7668 114.578 94.844 114.613 94.929C114.648 95.014 114.666 95.1051 114.666 95.1971C114.666 95.2891 114.648 95.3802 114.613 95.4652C114.578 95.5502 114.526 95.6274 114.461 95.6924C114.396 95.7575 114.319 95.8091 114.234 95.8443C114.149 95.8795 114.058 95.8976 113.966 95.8976Z" fill="#030303"/>
<path d="M114.002 105.584H71.126C70.9403 105.584 70.7621 105.51 70.6307 105.378C70.4993 105.247 70.4255 105.069 70.4255 104.883C70.4255 104.697 70.4993 104.519 70.6307 104.388C70.7621 104.256 70.9403 104.183 71.126 104.183H114.002C114.188 104.183 114.366 104.256 114.497 104.388C114.629 104.519 114.703 104.697 114.703 104.883C114.703 105.069 114.629 105.247 114.497 105.378C114.366 105.51 114.188 105.584 114.002 105.584Z" fill="#030303"/>
<path d="M79.8702 78.8798C77.8632 78.8821 75.9005 78.2892 74.2305 77.1758C72.5605 76.0625 71.2583 74.4789 70.4886 72.6253C69.7188 70.7717 69.5162 68.7314 69.9063 66.7626C70.2964 64.7938 71.2617 62.9849 72.6801 61.5649C74.0984 60.1448 75.9061 59.1774 77.8745 58.7849C79.8428 58.3925 81.8833 58.5927 83.7378 59.3602C85.5923 60.1277 87.1775 61.4281 88.2929 63.0967C89.4082 64.7654 90.0035 66.7274 90.0035 68.7344C90.0003 71.4221 88.9321 73.9989 87.0327 75.9005C85.1334 77.8021 82.5579 78.8734 79.8702 78.8798ZM79.8702 60.0022C78.1398 59.9998 76.4475 60.5109 75.0076 61.4709C73.5678 62.4308 72.4451 63.7963 71.7818 65.3946C71.1185 66.9929 70.9443 68.7521 71.2813 70.4495C71.6183 72.1468 72.4514 73.706 73.675 74.9297C74.8987 76.1533 76.4579 76.9864 78.1552 77.3234C79.8526 77.6604 81.6117 77.4862 83.21 76.8229C84.8084 76.1595 86.1739 75.0369 87.1338 73.5971C88.0937 72.1572 88.6049 70.4649 88.6025 68.7344C88.5961 66.4205 87.6741 64.2031 86.0378 62.5669C84.4016 60.9306 82.1842 60.0086 79.8702 60.0022Z" fill="#030303"/>
<path d="M114.002 115.27H71.126C70.9403 115.27 70.7621 115.196 70.6307 115.065C70.4993 114.934 70.4255 114.755 70.4255 114.57C70.4255 114.384 70.4993 114.206 70.6307 114.074C70.7621 113.943 70.9403 113.869 71.126 113.869H114.002C114.188 113.869 114.366 113.943 114.497 114.074C114.629 114.206 114.703 114.384 114.703 114.57C114.703 114.755 114.629 114.934 114.497 115.065C114.366 115.196 114.188 115.27 114.002 115.27Z" fill="#030303"/>
<path d="M79.1697 73.8679L74.6285 68.3967C74.5627 68.252 74.5464 68.0898 74.5819 67.935C74.6173 67.7801 74.7027 67.6412 74.8249 67.5396C74.9471 67.4381 75.0992 67.3795 75.2579 67.3728C75.4167 67.3662 75.5732 67.4119 75.7034 67.5029C76.9112 68.9281 78.1189 70.3653 79.3267 71.8026C79.4233 71.9234 79.9185 71.6697 79.9185 71.6697L84.0129 64.8096C84.1421 64.7135 84.2988 64.6616 84.4598 64.6616C84.6208 64.6616 84.7775 64.7135 84.9067 64.8096C85.0314 64.8908 85.1276 65.0089 85.1818 65.1476C85.2359 65.2862 85.2453 65.4383 85.2086 65.5826L81.1142 72.4548C80.8485 72.9017 80.5828 73.3365 80.3292 73.7834C80.0755 74.2302 79.218 73.9283 79.218 73.9283" fill="#030303"/>
</svg>
