<svg width="182" height="182" viewBox="0 0 182 182" fill="none" xmlns="http://www.w3.org/2000/svg">
<path d="M0 0H182V182H36.2333C26.6236 182 17.4076 178.183 10.6125 171.387C3.81743 164.592 0 155.376 0 145.767L0 0Z" fill="#F4F4F4"/>
<path d="M92.6124 54.8572C88.1478 54.8572 83.7835 56.1811 80.0713 58.6615C76.3591 61.1419 73.4658 64.6673 71.7573 68.7921C70.0488 72.9168 69.6018 77.4556 70.4728 81.8344C71.3438 86.2132 73.4937 90.2354 76.6506 93.3923C79.8075 96.5493 83.8297 98.6992 88.2085 99.5702C92.5873 100.441 97.1261 99.9941 101.251 98.2856C105.376 96.5771 108.901 93.6838 111.381 89.9716C113.862 86.2595 115.186 81.8951 115.186 77.4305C115.179 71.4457 112.799 65.7078 108.567 61.4758C104.335 57.2439 98.5972 54.8636 92.6124 54.8572V54.8572ZM110.282 65.7996V65.9083C110.61 66.3958 110.912 66.8997 111.188 67.4181C111.666 68.3387 112.07 69.2958 112.396 70.2805C112.529 70.6308 112.649 70.981 112.758 71.3554C112.819 71.5487 112.867 71.7419 112.915 71.9352C113.024 72.37 113.157 72.7927 113.241 73.2275C113.326 73.6623 113.422 74.3024 113.483 74.858L113.531 74.1454C113.655 74.9457 113.735 75.752 113.773 76.5609V76.73H101.695C101.623 73.5163 101.082 70.3303 100.089 67.2731C103.218 66.6579 106.257 65.6516 109.135 64.2778C109.553 64.7771 109.936 65.2843 110.282 65.7996V65.7996ZM100.306 78.1311C100.245 81.3211 99.6904 84.4826 98.6634 87.5034C96.3911 87.0951 94.0876 86.8849 91.779 86.8754C90.0056 86.881 88.2345 87.002 86.4769 87.2377C85.5073 84.2962 84.9782 81.2274 84.9068 78.1311H100.306ZM84.9188 76.73C84.9796 73.5616 85.5254 70.4212 86.5373 67.4181C88.4959 67.7637 90.4788 67.9535 92.4674 67.9857C94.5589 68.0044 96.648 67.8427 98.7117 67.5026C99.7074 70.4799 100.245 73.5912 100.306 76.73H84.9188ZM108.205 63.1667C105.485 64.4442 102.617 65.3773 99.6658 65.9446C98.3711 62.4542 96.5283 59.1925 94.2066 56.2824C99.5805 56.7059 104.589 59.169 108.205 63.1667V63.1667ZM98.2406 66.1861C96.3383 66.4737 94.4153 66.603 92.4916 66.5726C90.658 66.5446 88.8292 66.379 87.0204 66.0774C88.3487 62.6413 90.2384 59.4496 92.6124 56.6326C95.012 59.4782 96.9148 62.708 98.2406 66.1861ZM78.5659 61.5966C81.959 58.5623 86.2423 56.7066 90.7766 56.3065C90.1968 56.3669 89.5688 56.4394 89.0736 56.536C89.7137 56.4273 90.3538 56.3427 91.0181 56.2944C88.7294 59.1456 86.9072 62.3416 85.6193 65.7634C82.694 65.1614 79.8543 64.1999 77.1649 62.901C77.648 62.4903 78.0949 62.0555 78.5659 61.5966ZM76.2349 64.0121C76.4765 63.7102 76.7543 63.4203 77.02 63.1305C76.7543 63.4203 76.4765 63.7102 76.2349 64.0121C79.0594 65.4177 82.0502 66.4606 85.1362 67.1161C84.1166 70.2137 83.5631 73.4456 83.4937 76.7059H71.4159C71.4884 76.7059 71.4159 76.2711 71.5125 75.4981C71.5125 75.4136 71.5125 75.3169 71.5125 75.2324C71.5125 75.1478 71.5125 75.0633 71.5125 74.9667C71.6242 73.9838 71.8099 73.0108 72.0681 72.0559C72.3133 71.4368 72.5072 70.7986 72.6478 70.1476C73.493 67.9167 74.7054 65.843 76.2349 64.0121V64.0121ZM74.5561 88.4213C74.6047 88.491 74.6491 88.5636 74.689 88.6387L74.5561 88.4213ZM90.2572 98.4459H90.8128C90.3176 98.4459 89.8345 98.3372 89.3393 98.2647H89.7016C89.0857 98.1802 88.4939 98.0715 87.8658 97.9386C88.0711 97.9386 88.2765 97.9386 88.4818 98.0473C88.0631 97.9587 87.6605 97.8621 87.274 97.7574H87.4552C87.0083 97.6487 86.5735 97.4917 86.1266 97.3589L85.1966 97.0448H85.2691C83.2835 96.2991 81.4225 95.2567 79.7495 93.9529C79.2302 93.5423 78.735 93.1196 78.2519 92.6606C77.7849 92.2298 77.3414 91.7742 76.9233 91.2958C77.1649 91.5736 77.4306 91.8272 77.6843 92.0809C77.4185 91.8031 77.1408 91.5374 76.875 91.2475C76.5489 90.8731 76.2349 90.4866 75.9451 90.0397C75.8954 89.966 75.8388 89.8973 75.776 89.8344L75.8847 89.9673C75.788 89.8465 75.7156 89.7257 75.631 89.6049C75.2881 89.147 74.9697 88.6713 74.6769 88.1798C74.0909 87.2233 73.5821 86.2217 73.1551 85.1845V85.0878C73.0222 84.7376 72.8894 84.3994 72.7686 84.0492C72.6478 83.6989 72.5754 83.4573 72.4908 83.1554C72.3217 82.5877 72.2009 82.008 72.0802 81.4283C72.0077 81.0418 71.9352 80.6553 71.8748 80.2205C71.7661 79.4717 71.7058 78.6987 71.6695 77.9257H83.7473C83.8137 81.0917 84.3343 84.2318 85.2933 87.2498C82.1039 87.7833 78.9925 88.7082 76.0296 90.0035C76.3315 90.39 76.6335 90.7765 76.9596 91.2113C79.7825 90.0143 82.7384 89.1587 85.7643 88.6629C87.0605 92.1576 88.9121 95.4202 91.2476 98.3251C91.779 98.3251 92.3104 98.4217 92.8539 98.4217C91.9738 98.4884 91.0901 98.4965 90.2089 98.4459H90.2572ZM86.96 88.6025C90.6869 88.1112 94.4673 88.1968 98.1682 88.8561C96.8468 92.2657 94.9694 95.4328 92.6124 98.2285C90.1975 95.3625 88.2863 92.1077 86.96 88.6025V88.6025ZM96.1391 98.2647C95.499 98.3734 94.8588 98.4579 94.2066 98.5063C96.4698 95.6729 98.2827 92.5076 99.5813 89.1218C102.498 89.7338 105.334 90.678 108.036 91.936C104.869 95.2922 100.691 97.5192 96.1391 98.2768V98.2647ZM112.601 84.2907L112.855 83.4936L112.601 84.2907ZM113.12 82.5153C113.12 82.2737 113.241 82.0201 113.29 81.7665C113.241 82.0201 113.181 82.2737 113.12 82.5153V82.5153ZM113.531 80.6191C113.531 80.4017 113.604 80.1964 113.628 79.979C113.531 80.1964 113.531 80.4017 113.531 80.6191ZM113.628 79.979C113.628 80.2084 113.555 80.4258 113.519 80.6553C113.483 80.8848 113.41 81.38 113.338 81.7423C113.265 82.1046 113.205 82.2979 113.145 82.5757C113.084 82.8535 112.988 83.1675 112.903 83.4573C112.819 83.7472 112.722 84.025 112.625 84.3028C111.816 86.683 110.589 88.8997 109.002 90.849C106.174 89.4836 103.194 88.4579 100.125 87.7933C101.166 84.6755 101.728 81.4176 101.791 78.1311H113.869C113.724 78.7591 113.664 79.363 113.591 79.979H113.628Z" fill="#030303"/>
<path d="M123.193 130.609H61.9107C60.6026 130.609 59.348 130.09 58.422 129.167C57.4959 128.243 56.9741 126.989 56.9709 125.681V51.0528C56.9709 49.7427 57.4913 48.4863 58.4177 47.5599C59.3441 46.6335 60.6005 46.113 61.9107 46.113H123.193C124.501 46.1162 125.755 46.6381 126.678 47.5641C127.602 48.4902 128.121 49.7448 128.121 51.0528V125.681C128.121 126.988 127.602 128.242 126.678 129.166C125.754 130.09 124.5 130.609 123.193 130.609ZM61.9107 47.5261C60.9753 47.5261 60.0783 47.8977 59.4169 48.5591C58.7555 49.2205 58.384 50.1175 58.384 51.0528V125.681C58.3808 126.147 58.4696 126.608 58.6454 127.038C58.8212 127.469 59.0805 127.861 59.4083 128.191C59.7361 128.521 60.126 128.783 60.5554 128.962C60.9849 129.14 61.4455 129.232 61.9107 129.232H123.193C124.127 129.229 125.02 128.856 125.679 128.195C126.338 127.534 126.708 126.639 126.708 125.706V51.0528C126.708 50.1196 126.338 49.2244 125.679 48.5633C125.02 47.9023 124.127 47.5293 123.193 47.5261H61.9107Z" fill="#030303"/>
<path d="M73.143 104.485H68.6984V122.118H69.9062V114.533H73.2155C77.1528 114.533 79.508 112.855 79.508 109.4C79.508 105.946 77.1287 104.485 73.143 104.485ZM72.9377 113.531H69.9303V105.56H72.829C76.4523 105.56 78.264 106.477 78.264 109.437C78.264 112.396 76.5369 113.531 72.9377 113.531Z" fill="#030303"/>
<path d="M86.4406 104.485H85.2329L79.0249 122.118H80.2327L82.31 116.079H89.291L91.3442 122.118H92.6486L86.4406 104.485ZM82.6724 115.041L83.8077 111.731C84.5323 109.642 85.1483 107.794 85.7643 105.692H85.873C86.4889 107.842 87.0808 109.69 87.8296 111.731L88.9528 115.041H82.6724Z" fill="#030303"/>
<path d="M101.333 113.024L98.6634 111.816C97.3711 111.26 95.6077 110.475 95.6077 108.422C95.6077 106.369 97.1657 105.27 99.4967 105.27C100.286 105.257 101.068 105.413 101.793 105.725C102.517 106.037 103.167 106.499 103.7 107.081L104.412 106.26C103.781 105.591 103.019 105.058 102.173 104.695C101.328 104.331 100.417 104.145 99.4967 104.146C96.5618 104.146 94.3758 105.934 94.3758 108.495C94.3758 111.055 96.4169 112.202 97.9991 112.879L100.668 114.087C102.407 114.859 103.845 115.56 103.845 117.71C103.845 119.86 102.154 121.249 99.4605 121.249C98.4746 121.238 97.5023 121.017 96.6088 120.601C95.7152 120.184 94.9209 119.582 94.2791 118.833L93.482 119.679C94.2255 120.526 95.1438 121.203 96.1738 121.661C97.2038 122.12 98.321 122.35 99.4484 122.336C102.866 122.336 105.089 120.282 105.089 117.589C105.089 114.896 103.301 113.905 101.333 113.024Z" fill="#030303"/>
<path d="M114.316 113.024L111.647 111.816C110.355 111.261 108.591 110.475 108.591 108.422C108.591 106.369 110.161 105.27 112.492 105.27C113.281 105.261 114.062 105.417 114.786 105.729C115.51 106.041 116.161 106.502 116.695 107.082L117.396 106.285C116.767 105.616 116.007 105.083 115.163 104.719C114.32 104.356 113.411 104.169 112.492 104.171C109.558 104.171 107.359 105.958 107.359 108.519C107.359 111.079 109.4 112.227 110.983 112.903L113.664 114.111C115.391 114.884 116.828 115.584 116.828 117.734C116.828 119.884 115.137 121.273 112.444 121.273C111.458 121.263 110.486 121.042 109.592 120.625C108.699 120.209 107.904 119.606 107.263 118.857L106.478 119.703C107.216 120.553 108.132 121.232 109.16 121.691C110.189 122.15 111.306 122.378 112.432 122.36C115.85 122.36 118.072 120.319 118.072 117.613C118.072 114.908 116.285 113.906 114.316 113.024Z" fill="#030303"/>
</svg>
