<svg width="182" height="182" viewBox="0 0 182 182" fill="none" xmlns="http://www.w3.org/2000/svg">
<path d="M0 0H182V182H36.2333C26.6236 182 17.4076 178.183 10.6125 171.387C3.81743 164.592 0 155.376 0 145.767L0 0Z" fill="#F4F4F4"/>
<path d="M107.057 68.6016H105.294L102.879 64.0483C102.348 62.8902 101.573 61.8603 100.608 61.0289C99.756 60.3286 98.7694 59.8106 97.7092 59.5071H87.6364C86.428 59.7703 85.301 60.3213 84.3512 61.1134C83.4686 61.9336 82.7548 62.9182 82.2497 64.0121L79.7134 68.6016H78.0708C76.0904 68.5861 74.1812 69.3397 72.7453 70.7037C71.3094 72.0677 70.4589 73.9357 70.3728 75.9143C70.2867 77.8929 70.9718 79.8277 72.2838 81.3113C73.5957 82.7948 75.4322 83.7114 77.4065 83.8679C77.5971 85.1184 78.2294 86.2592 79.1888 87.0835C80.1483 87.9077 81.3713 88.361 82.6362 88.361C83.9011 88.361 85.1241 87.9077 86.0835 87.0835C87.043 86.2592 87.6753 85.1184 87.8659 83.8679H96.8517C97.0423 85.1184 97.6746 86.2592 98.634 87.0835C99.5935 87.9077 100.816 88.361 102.081 88.361C103.346 88.361 104.569 87.9077 105.529 87.0835C106.488 86.2592 107.12 85.1184 107.311 83.8679C108.315 83.8513 109.306 83.6371 110.227 83.2375C111.148 82.8379 111.982 82.2607 112.68 81.539C113.378 80.8173 113.927 79.9652 114.296 79.0313C114.665 78.0973 114.846 77.0999 114.829 76.0959C114.813 75.0919 114.599 74.101 114.199 73.1798C113.799 72.2587 113.222 71.4252 112.501 70.727C111.779 70.0289 110.927 69.4797 109.993 69.1109C109.059 68.7421 108.061 68.5608 107.057 68.5775V68.6016ZM83.542 64.5918C83.9511 63.6765 84.5429 62.8545 85.2812 62.1763C86.0323 61.5461 86.9223 61.1032 87.8779 60.8839H97.4194C98.2578 61.1369 99.0406 61.5468 99.7262 62.0917C100.544 62.8109 101.198 63.6962 101.647 64.6884L103.712 68.5896H93.2888V64.2536C93.2888 64.0486 93.2073 63.852 93.0624 63.7071C92.9174 63.5621 92.7208 63.4807 92.5158 63.4807C92.3108 63.4807 92.1142 63.5621 91.9692 63.7071C91.8243 63.852 91.7428 64.0486 91.7428 64.2536V68.6016H81.3439L83.542 64.5918ZM86.0542 84.9308C86.0542 85.0033 85.9817 85.0757 85.9334 85.1482L85.6919 85.4743L85.5107 85.7521L85.2329 86.0178L84.9793 86.2231L84.6894 86.4284L84.3512 86.5975L84.0614 86.7425L83.6266 86.8753H83.3367C83.094 86.9234 82.8473 86.9476 82.5999 86.9478C82.3526 86.9476 82.1058 86.9234 81.8632 86.8753H81.6458L81.2231 86.7425L80.9211 86.5492L80.595 86.3801L80.3052 86.1748L80.0515 85.9695C79.9531 85.8872 79.8603 85.7984 79.7738 85.7038L79.5926 85.4743C79.508 85.3656 79.4114 85.2569 79.339 85.1482L79.2302 84.9308C78.8997 84.3577 78.7248 83.7082 78.723 83.0467C78.7285 82.6348 78.802 82.2268 78.9404 81.8389C79.0124 81.6326 79.0971 81.4309 79.194 81.235C79.2883 81.0543 79.4017 80.8842 79.5322 80.7277L79.6047 80.6311L79.9791 80.2325L80.1361 80.1118C80.2567 80.0047 80.386 79.9077 80.5226 79.8219L80.7762 79.689C80.8948 79.6166 81.0202 79.5559 81.1506 79.5079L81.5371 79.3871L81.839 79.3026C82.0853 79.2499 82.3361 79.2216 82.5879 79.218C82.8436 79.2223 83.0983 79.2506 83.3488 79.3026C83.4483 79.3195 83.5456 79.3479 83.6386 79.3871L84.0372 79.5079C84.1637 79.556 84.2851 79.6167 84.3995 79.689L84.6652 79.8219C84.8018 79.9077 84.9311 80.0047 85.0517 80.1118L85.1967 80.2325C85.3416 80.3654 85.4624 80.4982 85.5832 80.6311L85.6556 80.7277C85.7862 80.8842 85.8995 81.0543 85.9938 81.235C86.0996 81.4282 86.1885 81.6303 86.2595 81.8389C86.3883 82.2289 86.4575 82.636 86.4648 83.0467C86.4655 83.707 86.2949 84.3562 85.9696 84.9308H86.0542ZM105.403 84.9308L105.294 85.1361L105.04 85.4743C105.04 85.5468 104.932 85.6192 104.859 85.6917C104.773 85.7863 104.68 85.8751 104.581 85.9574C104.505 86.0352 104.42 86.104 104.328 86.1627L104.038 86.368L103.712 86.5371L103.422 86.6821L102.987 86.8149H102.734C102.247 86.9116 101.747 86.9116 101.26 86.8149H101.006L100.572 86.6821L100.246 86.5371L99.9195 86.368C99.8162 86.3095 99.7191 86.2407 99.6296 86.1627C99.536 86.1011 99.4472 86.0324 99.3639 85.9574L99.1344 85.7521C99.062 85.6796 99.0016 85.5951 98.9412 85.5226L98.6996 85.1965C98.6548 85.1267 98.6145 85.0541 98.5788 84.9791C98.2076 84.2303 98.037 83.398 98.0836 82.5635C98.1116 82.3331 98.1642 82.1064 98.2407 81.8872C98.3117 81.6825 98.4006 81.4845 98.5064 81.2954C98.6092 81.1199 98.7222 80.9506 98.8445 80.7881L98.9291 80.6915C99.0378 80.5586 99.1707 80.4258 99.3035 80.2929L99.4605 80.1721C99.5812 80.0651 99.7104 79.9681 99.847 79.8823L100.101 79.7494C100.216 79.6795 100.338 79.6189 100.463 79.5683L100.862 79.4475C100.958 79.4063 101.06 79.3779 101.163 79.3629C101.657 79.2542 102.168 79.2542 102.661 79.3629C102.765 79.3779 102.867 79.4063 102.963 79.4475L103.362 79.5683C103.487 79.6189 103.608 79.6795 103.724 79.7494L103.978 79.8823L104.376 80.1721L104.521 80.2929C104.654 80.4258 104.787 80.5586 104.908 80.7036L104.98 80.7881C105.102 80.9506 105.215 81.1199 105.318 81.2954C105.424 81.4886 105.513 81.6907 105.584 81.8993C105.717 82.2886 105.79 82.6958 105.801 83.107C105.798 83.7722 105.623 84.4252 105.294 85.0033L105.403 84.9308ZM107.142 82.5877C107.003 81.2899 106.389 80.0893 105.418 79.217C104.447 78.3446 103.187 77.862 101.882 77.862C100.577 77.862 99.3176 78.3446 98.3466 79.217C97.3757 80.0893 96.7615 81.2899 96.6222 82.5877H87.9021C87.772 81.2887 87.1663 80.0837 86.2013 79.2044C85.2363 78.3251 83.9802 77.8337 82.6748 77.8247C81.3693 77.8158 80.1066 78.2898 79.1296 79.1557C78.1526 80.0216 77.5303 81.2181 77.3823 82.5152C75.7295 82.4239 74.1806 81.6798 73.0764 80.4465C71.9722 79.2132 71.4031 77.5918 71.4944 75.9389C71.5857 74.286 72.3299 72.7371 73.5632 71.6329C74.7965 70.5287 76.4179 69.9597 78.0708 70.051H107.057C107.876 70.0327 108.69 70.1759 109.453 70.4722C110.216 70.7686 110.913 71.2123 111.505 71.7781C112.097 72.3439 112.571 73.0207 112.901 73.7699C113.231 74.519 113.41 75.3258 113.428 76.1442C113.447 76.9626 113.304 77.7766 113.007 78.5397C112.711 79.3028 112.267 80.0001 111.701 80.5917C111.136 81.1833 110.459 81.6576 109.71 81.9877C108.96 82.3177 108.154 82.497 107.335 82.5152" fill="#030303"/>
<path d="M113.966 101.2H71.0898C70.904 101.2 70.7258 101.126 70.5945 100.994C70.4631 100.863 70.3893 100.685 70.3893 100.499C70.3893 100.313 70.4631 100.135 70.5945 100.004C70.7258 99.8724 70.904 99.7986 71.0898 99.7986H113.966C114.152 99.7986 114.33 99.8724 114.461 100.004C114.593 100.135 114.666 100.313 114.666 100.499C114.666 100.685 114.593 100.863 114.461 100.994C114.33 101.126 114.152 101.2 113.966 101.2Z" fill="#030303"/>
<path d="M113.966 108.35H71.0898C70.904 108.35 70.7258 108.276 70.5945 108.144C70.4631 108.013 70.3893 107.835 70.3893 107.649C70.3893 107.463 70.4631 107.285 70.5945 107.154C70.7258 107.022 70.904 106.948 71.0898 106.948H113.966C114.152 106.948 114.33 107.022 114.461 107.154C114.593 107.285 114.666 107.463 114.666 107.649C114.666 107.835 114.593 108.013 114.461 108.144C114.33 108.276 114.152 108.35 113.966 108.35Z" fill="#030303"/>
<path d="M91.7911 115.488H71.126C70.9403 115.488 70.7621 115.414 70.6307 115.283C70.4993 115.151 70.4255 114.973 70.4255 114.787C70.4255 114.601 70.4993 114.423 70.6307 114.292C70.7621 114.16 70.9403 114.087 71.126 114.087H91.7911C91.9769 114.087 92.1551 114.16 92.2865 114.292C92.4178 114.423 92.4916 114.601 92.4916 114.787C92.4916 114.973 92.4178 115.151 92.2865 115.283C92.1551 115.414 91.9769 115.488 91.7911 115.488Z" fill="#030303"/>
<path d="M123.193 130.609H61.9107C60.6037 130.606 59.3509 130.086 58.4255 129.163C57.5002 128.24 56.9773 126.988 56.9709 125.681V51.0528C56.9709 49.7427 57.4914 48.4863 58.4178 47.5599C59.3441 46.6335 60.6006 46.113 61.9107 46.113H123.193C124.5 46.1194 125.752 46.6423 126.675 47.5676C127.598 48.493 128.118 49.7458 128.121 51.0528V125.681C128.121 126.988 127.602 128.242 126.678 129.166C125.754 130.09 124.5 130.609 123.193 130.609ZM61.9107 47.5261C60.9754 47.5261 60.0784 47.8977 59.417 48.5591C58.7556 49.2205 58.384 50.1175 58.384 51.0528V125.681C58.3808 126.145 58.4689 126.604 58.6432 127.033C58.8175 127.462 59.0746 127.853 59.3999 128.182C59.7251 128.512 60.1121 128.774 60.5388 128.955C60.9655 129.135 61.4234 129.229 61.8866 129.232H123.193C124.127 129.229 125.021 128.856 125.679 128.195C126.338 127.534 126.708 126.639 126.708 125.706V51.0528C126.708 50.1196 126.338 49.2244 125.679 48.5633C125.021 47.9023 124.127 47.5293 123.193 47.5261H61.9107Z" fill="#030303"/>
</svg>
