<svg width="130" height="70" viewBox="0 0 130 70" fill="none" xmlns="http://www.w3.org/2000/svg">
<path d="M12.2391 69.836L7.58073 67.464L2.98484 69.9733L3.79661 64.8049L0 61.2219L5.15789 60.3855L7.40589 55.6665L9.77877 60.3231L14.9616 60.9972L11.2774 64.6925L12.2391 69.836Z" fill="#325AA9"/>
<path d="M28.4121 69.836L23.7413 67.464L19.1578 69.9733L19.9571 64.8049L16.1605 61.2219L21.3309 60.3855L23.5664 55.6665L25.9518 60.3231L31.1347 60.9972L27.4504 64.6925L28.4121 69.836Z" fill="#325AA9"/>
<path d="M45.4844 69.836L40.8261 67.464L36.2427 69.9733L37.042 64.8049L33.2454 61.2219L38.4033 60.3855L40.6512 55.6665L43.0366 60.3231L48.2195 60.9972L44.5353 64.6925L45.4844 69.836Z" fill="#325AA9"/>
<path d="M61.6575 69.836L56.9992 67.464L52.4033 69.9733L53.2151 64.8049L49.4185 61.2219L54.5764 60.3855L56.8119 55.6665L59.1972 60.3231L64.3801 60.9972L60.6959 64.6925L61.6575 69.836Z" fill="#325AA9"/>
<path d="M78.1428 69.836L73.4844 67.464L68.8885 69.9733L69.7003 64.8049L65.9037 61.2219L71.0616 60.3855L73.3096 55.6665L75.6825 60.3231L80.8653 60.9972L77.1811 64.6925L78.1428 69.836Z" fill="#325AA9"/>
<path d="M25.215 14.9805H32.3586C32.4065 14.9754 32.455 14.9801 32.501 14.9946C32.547 15.009 32.5895 15.0328 32.6259 15.0645C32.6622 15.0961 32.6917 15.135 32.7123 15.1785C32.7329 15.2221 32.7443 15.2694 32.7457 15.3176C32.8082 15.8919 32.8956 16.4537 32.9081 17.0279C33.0398 19.639 32.552 22.2442 31.4844 24.6308C30.2353 27.2823 28.1754 29.4683 25.6021 30.8728C23.632 31.9626 21.443 32.5982 19.1953 32.733C17.0099 32.9208 14.8087 32.6834 12.7136 32.0338C9.84089 31.1563 7.26157 29.513 5.25268 27.2805C3.24378 25.048 1.88122 22.3107 1.31131 19.3625C0.800543 16.8111 0.931395 14.1729 1.69213 11.6846C2.45286 9.1963 3.81967 6.93569 5.66992 5.10562C8.10161 2.50128 11.3393 0.790708 14.8617 0.249296C17.2389 -0.202117 19.6882 -0.0990092 22.019 0.550591C24.3498 1.20019 26.4991 2.37876 28.2997 3.99453C28.8617 4.49389 28.8617 4.49389 28.2997 5.05568C27.7377 5.61746 26.876 6.50384 26.2266 7.21543C25.7645 7.67734 25.752 7.67734 25.2275 7.21543C24.6029 6.68475 23.9248 6.22035 23.2043 5.82969C21.3424 4.81157 19.2263 4.35209 17.1097 4.50638C15.0691 4.57287 13.0842 5.18762 11.3634 6.28602C9.64268 7.38441 8.24972 8.92589 7.33094 10.7484C6.16189 12.9387 5.72427 15.4452 6.08205 17.9018C6.36364 20.342 7.40816 22.6312 9.06689 24.4435C10.8354 26.4175 13.2387 27.7115 15.8608 28.1014C17.7077 28.4049 19.5994 28.2854 21.3934 27.7518C23.6467 27.104 25.595 25.6743 26.8885 23.7194C27.6016 22.5459 28.061 21.2361 28.2373 19.8743C28.2373 19.6246 28.1748 19.5248 27.9126 19.5123H17.9215C17.6217 19.5123 17.5468 19.4249 17.5468 19.1128C17.5468 17.8644 17.5468 16.616 17.5468 15.3676C17.5468 15.0305 17.6217 14.9681 17.934 14.9556H25.1525L25.215 14.9805Z" fill="#7A7C80"/>
<path d="M96.4264 22.2463C96.4561 20.8139 96.0464 19.4067 95.2524 18.214C94.7553 17.4529 94.0697 16.8333 93.2621 16.4155C92.4546 15.9977 91.5527 15.7958 90.644 15.8295C89.7575 15.8369 88.8862 16.0615 88.1067 16.4838C87.3272 16.906 86.6633 17.513 86.173 18.2514C85.6433 18.9842 85.2674 19.8165 85.0678 20.6983C84.8682 21.58 84.849 22.4931 85.0115 23.3824C85.1217 24.2264 85.4076 25.0379 85.8507 25.7647C86.2938 26.4914 86.8843 27.1173 87.5842 27.602C88.1732 28.0239 88.841 28.3233 89.5479 28.4822C90.2548 28.6411 90.9865 28.6564 91.6994 28.5271C92.4123 28.3978 93.092 28.1267 93.6981 27.7297C94.3041 27.3328 94.8242 26.8181 95.2274 26.2163C96.0661 25.0506 96.5043 23.6445 96.4763 22.2089L96.4264 22.2463ZM96.0892 30.4734C95.7644 30.4734 95.677 30.6856 95.5521 30.8104C94.4279 31.8724 92.9826 32.5311 91.4433 32.6831C90.0268 32.8488 88.5911 32.6899 87.2451 32.2183C85.8992 31.7468 84.6783 30.975 83.6752 29.9615C82.47 28.872 81.5421 27.5108 80.9687 25.9909C80.3953 24.4711 80.1929 22.8364 80.3782 21.2226C80.5682 19.0424 81.4328 16.9754 82.8517 15.3086C84.2706 13.6419 86.1735 12.4583 88.2961 11.922C90.3309 11.3849 92.4951 11.6626 94.3282 12.696C94.8733 13.0099 95.3732 13.3963 95.8144 13.8445C95.8627 13.8627 95.916 13.8627 95.9643 13.8445C96.0642 13.8445 96.0892 13.7571 96.0892 13.6698C96.0892 13.3202 96.0892 12.9582 96.0892 12.6086C96.0892 12.2591 96.1766 12.2965 96.4513 12.2715H100.073C100.435 12.2715 100.473 12.334 100.498 12.7085V13.2078C100.498 19.1752 100.498 25.1427 100.498 31.1101C100.511 32.2881 100.398 33.4641 100.161 34.6181C99.9157 35.723 99.494 36.7811 98.9116 37.7516C97.9731 39.4113 96.4846 40.6917 94.7029 41.372C92.1664 42.4168 89.328 42.4614 86.76 41.4968C84.3271 40.56 82.3526 38.7162 81.2524 36.3534C81.2524 36.2785 81.2524 36.2036 81.165 36.1287C81.1537 36.088 81.1548 36.0449 81.1682 36.0049C81.1815 35.9649 81.2065 35.9297 81.2399 35.904L81.4397 35.7791L84.7867 34.4059C85.0865 34.281 85.1239 34.2935 85.2863 34.6056C85.7149 35.4696 86.3239 36.2316 87.0722 36.8403C87.9102 37.5101 88.9359 37.9028 90.0071 37.9638C90.7196 38.0124 91.4353 37.9534 92.1302 37.7891C92.9635 37.5997 93.7308 37.1907 94.3523 36.6045C94.9739 36.0183 95.427 35.2763 95.6645 34.4558C95.9024 33.8141 96.0455 33.1413 96.0892 32.4583V30.4734Z" fill="#7A7C80"/>
<path d="M39.3524 22.0466C39.2962 23.4081 39.6579 24.7541 40.389 25.9042C40.8931 26.7023 41.5851 27.3648 42.4045 27.8338C43.2239 28.3029 44.1457 28.5642 45.0894 28.595C46.0331 28.6258 46.9701 28.4251 47.8183 28.0105C48.6665 27.5958 49.4003 26.9798 49.9554 26.2163C50.7814 25.0639 51.2338 23.6859 51.2517 22.2683C51.2696 20.8507 50.852 19.4618 50.0553 18.2889C49.5179 17.5173 48.8006 16.8881 47.9655 16.4556C47.1303 16.0231 46.2024 15.8003 45.2619 15.8065C44.3214 15.8126 43.3965 16.0475 42.5671 16.4909C41.7376 16.9343 41.0287 17.5728 40.5014 18.3513C39.768 19.4349 39.3764 20.7134 39.3774 22.0217L39.3524 22.0466ZM44.4603 32.758C42.5971 32.6872 40.7908 32.0967 39.2459 31.0531C37.7009 30.0096 36.4789 28.5547 35.7181 26.853C34.8678 25.1456 34.4982 23.2392 34.649 21.3379C34.7997 19.4366 35.4651 17.6121 36.5738 16.0599C37.6826 14.5078 39.1929 13.2864 40.943 12.5267C42.6931 11.767 44.6169 11.4975 46.5085 11.7472C49.0094 11.9954 51.334 13.1465 53.0468 14.985C54.7595 16.8235 55.7429 19.2232 55.8127 21.7345C55.9614 24.1046 55.3009 26.455 53.9394 28.401C52.8534 29.8757 51.4137 31.0534 49.7528 31.8257C48.0919 32.5981 46.2632 32.9401 44.4353 32.8204L44.4603 32.758Z" fill="#7A7C80"/>
<path d="M68.0768 28.6259C68.9407 28.6181 69.7923 28.4207 70.5714 28.0475C71.3505 27.6742 72.038 27.1344 72.5852 26.4661C73.4897 25.3061 74.0014 23.8884 74.0463 22.4184C74.0912 20.9483 73.667 19.5021 72.835 18.289C72.3137 17.4911 71.5945 16.8417 70.7475 16.4041C69.9005 15.9665 68.9546 15.7557 68.0018 15.7922C66.9386 15.7808 65.8942 16.0732 64.9915 16.6349C64.0888 17.1967 63.3654 18.0044 62.9064 18.9632C62.3719 19.9414 62.0917 21.0382 62.0917 22.1529C62.0917 23.2675 62.3719 24.3643 62.9064 25.3426C63.3744 26.3246 64.1131 27.1529 65.0355 27.73C65.958 28.3072 67.026 28.6093 68.1142 28.6009L68.0768 28.6259ZM68.0768 32.7581C66.5789 32.7726 65.0954 32.4656 63.7265 31.8577C62.3575 31.2498 61.1351 30.3552 60.1418 29.2345C59.1484 28.1137 58.4074 26.7928 57.9686 25.3611C57.5299 23.9295 57.4037 22.4203 57.5986 20.9357C57.8232 18.798 58.7128 16.7846 60.1422 15.1789C61.5715 13.5732 63.4686 12.456 65.5665 11.9846C68.007 11.3743 70.5855 11.6577 72.835 12.7836C74.3436 13.4903 75.6515 14.5629 76.6396 15.9039C77.6277 17.2448 78.2646 18.8115 78.4925 20.4613C78.758 21.9756 78.6872 23.5297 78.2851 25.0136C77.883 26.4975 77.1594 27.8748 76.1656 29.0481C75.1718 30.2214 73.9321 31.1619 72.5343 31.8031C71.1364 32.4442 69.6147 32.7702 68.0768 32.7581V32.7581Z" fill="#7A7C80"/>
<path d="M114.348 21.7714C114.522 21.7937 114.699 21.754 114.847 21.659L123.165 18.2134C123.715 17.9762 123.74 17.9013 123.377 17.3895C123.069 16.9724 122.678 16.6239 122.228 16.3658C121.25 15.79 120.093 15.5987 118.981 15.829C117.937 16.0144 116.966 16.4914 116.182 17.205C115.397 17.9185 114.831 18.8395 114.548 19.8613C114.307 20.4677 114.238 21.1284 114.348 21.7714V21.7714ZM120.068 32.7449C117.707 32.7819 115.407 31.994 113.565 30.5172C111.722 29.0403 110.453 26.9672 109.977 24.6552C109.579 23.0665 109.547 21.4081 109.884 19.8054C110.222 18.2028 110.92 16.6978 111.925 15.4045C113.147 13.8252 114.829 12.6637 116.74 12.0801C118.65 11.4965 120.694 11.5196 122.591 12.1462C124.098 12.6678 125.442 13.5762 126.487 14.7803C127.608 16.1182 128.456 17.6617 128.985 19.3245C129.001 19.3561 129.011 19.3908 129.012 19.4263C129.014 19.4618 129.008 19.4973 128.995 19.5304C128.982 19.5635 128.963 19.5934 128.937 19.6182C128.911 19.643 128.881 19.662 128.847 19.6741L128.398 19.8613L115.909 25.0422C114.947 25.4417 114.872 25.3294 115.559 26.2906C116.019 26.9886 116.643 27.5631 117.377 27.9636C118.111 28.3641 118.932 28.5784 119.768 28.5877C120.752 28.6543 121.737 28.4718 122.632 28.0572C123.527 27.6427 124.303 27.0093 124.889 26.2157C125.363 25.604 125.326 25.6664 125.913 26.0535L128.498 27.7887C128.897 28.0509 128.897 28.0759 128.598 28.4878C127.65 29.7846 126.412 30.8423 124.983 31.577C123.555 32.3117 121.974 32.7031 120.368 32.72L120.068 32.7449Z" fill="#7A7C80"/>
<path d="M103.22 16.6786V2.22201C103.22 1.07348 103.22 1.19832 104.232 1.19832C105.243 1.19832 106.155 1.24825 107.104 1.24825H107.504C107.629 1.24825 107.716 1.34813 107.716 1.46048C107.729 1.68086 107.729 1.90176 107.716 2.12214V31.2101C107.716 32.1339 107.804 32.109 106.842 32.109C105.88 32.109 104.719 32.109 103.645 32.109C103.283 32.109 103.22 32.0341 103.195 31.672V16.6911L103.22 16.6786Z" fill="#7A7C80"/>
</svg>
