<svg width="99" height="70" viewBox="0 0 99 70" fill="none" xmlns="http://www.w3.org/2000/svg">
<g>
<path d="M12.2108 69.863L7.56319 67.5081L2.97793 70L3.78782 64.8416L0 61.2656L5.14596 60.4433L7.38875 55.7334L9.75614 60.3685L14.927 61.0413L11.2513 64.7295L12.2108 69.863Z" fill="#325AA9"/>
<path d="M28.3464 69.863L23.6864 67.5081L19.1136 70L19.911 64.8416L16.1232 61.2656L21.2816 60.4433L23.5119 55.7334L25.8918 60.3685L31.0627 61.0413L27.387 64.7295L28.3464 69.863Z" fill="#325AA9"/>
<path d="M45.3792 69.863L40.7316 67.5081L36.1588 70L36.9563 64.8416L33.1685 61.2656L38.3144 60.4433L40.5572 55.7334L42.9371 60.3685L48.1079 61.0413L44.4322 64.7295L45.3792 69.863Z" fill="#325AA9"/>
<path d="M61.5148 69.863L56.8673 67.5081L52.282 70L53.0919 64.8416L49.3041 61.2656L54.45 60.4433L56.6804 55.7334L59.0602 60.3685L64.2311 61.0413L60.5554 64.7295L61.5148 69.863Z" fill="#325AA9"/>
<path d="M77.962 69.863L73.3144 67.5081L68.7291 70L69.539 64.8416L65.7512 61.2656L70.8972 60.4433L73.14 55.7334L75.5074 60.3685L80.6782 61.0413L77.0026 64.7295L77.962 69.863Z" fill="#325AA9"/>
<path d="M13.4194 10.1424V3.55109C13.4194 2.99039 13.4194 2.99039 12.8463 2.99039C12.102 2.95906 11.3564 2.98405 10.6159 3.06515C9.71251 3.19011 8.86068 3.56057 8.15325 4.13619C7.44581 4.71181 6.90988 5.47051 6.60383 6.32965C6.19116 7.39153 5.96765 8.51748 5.94346 9.65646C5.83942 11.0924 6.01286 12.5349 6.45431 13.9053C6.73626 14.827 7.29071 15.6418 8.04468 16.2423C8.79865 16.8428 9.71679 17.2009 10.6782 17.2695C11.5006 17.3567 12.3354 17.2695 13.1702 17.2695C13.382 17.2695 13.4194 17.2072 13.4194 17.0078V10.1424ZM16.9456 16.3724C16.9456 21.7385 16.9456 27.1129 16.9456 32.4956C16.9456 32.7323 16.9456 32.7946 16.659 32.7946H13.706C13.4817 32.7946 13.4319 32.7323 13.4319 32.5205C13.4319 28.5084 13.4319 24.4963 13.4319 20.4842C13.4319 20.2599 13.4319 20.1851 13.1453 20.1976C12.3479 20.1976 11.538 20.1976 10.7405 20.1976C10.6617 20.1857 10.5813 20.2033 10.5146 20.2469C10.448 20.2906 10.3998 20.3573 10.3792 20.4343L4.98404 32.5828C4.96096 32.665 4.90951 32.7364 4.8388 32.7843C4.76809 32.8322 4.6827 32.8535 4.59778 32.8444H1.08408C0.785037 32.8444 0.785037 32.8444 0.909637 32.5828C2.79524 28.4295 4.685 24.2761 6.57891 20.1228C6.66613 19.9359 6.74089 19.7366 6.84057 19.5497C6.94025 19.3628 6.84057 19.3254 6.74089 19.2382C5.78859 18.7472 4.94192 18.0741 4.2489 17.257C3.26764 16.0779 2.61822 14.6586 2.36745 13.1452C1.91287 10.9252 2.01129 8.62734 2.65403 6.45425C3.10632 4.85871 4.00412 3.42518 5.24217 2.32175C6.48022 1.21832 8.00719 0.490726 9.64406 0.224279C10.3286 0.0810844 11.0256 0.0059588 11.7249 0L16.7088 0C16.9331 0 16.9705 0.0622997 16.9705 0.274119C16.9705 5.65682 16.9705 11.0561 16.9705 16.4721L16.9456 16.3724Z" fill="#7A7C80"/>
<path d="M21.5433 21.2442C21.5433 17.5062 21.5433 13.7683 21.5433 9.95551C21.5433 9.75615 21.5433 9.69385 21.7925 9.69385H24.92C25.1193 9.69385 25.1692 9.69385 25.1692 9.94305C25.1692 13.0414 25.1692 16.1481 25.1692 19.2631C25.1692 19.4749 25.2315 19.5247 25.4433 19.5247H30.2653C30.4647 19.5247 30.5145 19.5247 30.502 19.2755V9.96797C30.502 9.76861 30.502 9.69385 30.7637 9.69385H33.8288C34.0157 9.69385 34.0531 9.69385 34.0531 9.93059C34.0531 17.4813 34.0531 25.0362 34.0531 32.5952C34.0531 32.7946 33.9908 32.8444 33.8039 32.8444H30.7139C30.502 32.8444 30.4522 32.7821 30.4522 32.5703C30.4522 29.2975 30.4522 26.0205 30.4522 22.7394C30.4522 22.5151 30.4522 22.4528 30.1532 22.4528C28.5583 22.4528 26.951 22.4528 25.3561 22.4528C25.1567 22.4528 25.1193 22.4528 25.1193 22.6896V32.5703C25.1193 32.7697 25.1193 32.8444 24.8577 32.8444H21.805C21.5932 32.8444 21.5433 32.7821 21.5433 32.5703C21.5433 28.8323 21.5433 25.0196 21.5433 21.2442Z" fill="#7A7C80"/>
<path d="M47.0488 21.2442C47.0488 18.4407 47.0488 15.6248 47.0488 12.8213C47.0488 12.6344 47.0488 12.5846 46.8245 12.5846H43.3108C43.099 12.5846 43.0367 12.5846 43.0367 12.8587C43.0911 16.3777 42.8954 19.8961 42.451 23.3873C42.1878 25.5123 41.6906 27.6016 40.9683 29.6173C40.8935 29.8042 40.906 29.8665 41.1303 29.8665C43.0117 29.8665 44.8683 29.8665 46.7622 29.8665C46.9865 29.8665 47.0488 29.8665 47.0488 29.5924C47.0488 26.8014 47.0488 23.9979 47.0488 21.2068V21.2442ZM50.5749 19.7989C50.5749 23.0758 50.5749 26.3653 50.5749 29.6422C50.5749 29.8416 50.5749 29.9039 50.8241 29.9039C51.2976 29.9039 51.7711 29.9039 52.2446 29.9039C52.3692 29.9039 52.419 29.9039 52.419 30.0659C52.419 32.4582 52.419 34.838 52.419 37.2179C52.419 37.3425 52.419 37.3923 52.257 37.3923C51.2976 37.3923 50.3382 37.3923 49.3663 37.3923C49.1794 37.3923 49.2168 37.2802 49.2168 37.168C49.2168 35.8224 49.2168 34.4767 49.2168 33.131C49.2168 32.9192 49.2168 32.8444 48.9427 32.8444H39.523C39.3236 32.8444 39.2613 32.8444 39.2613 33.0936C39.2613 34.4518 39.2613 35.8099 39.2613 37.168C39.2613 37.3425 39.2613 37.3923 39.037 37.3923C38.115 37.3923 37.2054 37.3923 36.2958 37.3923C36.1089 37.3923 36.0466 37.3923 36.0466 37.1556C36.0466 34.8256 36.0466 32.4831 36.0466 30.1531C36.0466 29.9662 36.0466 29.8914 36.2834 29.9039C36.5201 29.9163 36.9313 29.9039 37.2552 29.9039C37.5792 29.9039 37.492 29.8416 37.5543 29.6921C38.1629 28.1723 38.6138 26.5941 38.9 24.9822C39.3901 22.1996 39.6691 19.3839 39.7348 16.5593C39.8718 14.3663 39.8718 12.1609 39.8718 9.96797C39.8718 9.76861 39.8718 9.69385 40.1335 9.69385H50.3756C50.6123 9.69385 50.6372 9.76861 50.6372 9.96797C50.6372 13.2491 50.6372 16.5261 50.6372 19.7989H50.5749Z" fill="#7A7C80"/>
<path d="M61.303 19.1509H64.0691C64.2311 19.1509 64.2685 19.1509 64.2685 18.9391C64.2747 17.7241 64.1747 16.5108 63.9694 15.3133C63.8545 14.5281 63.5649 13.7788 63.1222 13.1203C62.9801 12.9104 62.796 12.7322 62.5815 12.5971C62.367 12.462 62.1269 12.3728 61.8762 12.3353C61.4599 12.2563 61.0297 12.3002 60.638 12.4618C60.2464 12.6233 59.9102 12.8954 59.6707 13.2449C59.2608 13.8294 58.9726 14.4905 58.8235 15.1887C58.5364 16.4167 58.3572 17.6674 58.2877 18.9266C58.2877 19.1011 58.3625 19.0886 58.4746 19.0886L61.303 19.1509ZM63.1222 22.0915H58.5618C58.35 22.0915 58.3126 22.0915 58.3126 22.3407C58.3016 23.8474 58.4987 25.3485 58.8982 26.8013C59.1064 27.5296 59.4534 28.2107 59.9199 28.8074C60.2601 29.2262 60.6953 29.5578 61.1895 29.7745C61.6836 29.9912 62.2223 30.0868 62.7608 30.0534C64.257 29.9971 65.7057 29.5128 66.9349 28.6579C67.1467 28.5208 67.1841 28.5706 67.2464 28.77C67.4707 29.5425 67.7074 30.315 67.9317 31.0876C67.9317 31.2122 67.9317 31.2869 67.8569 31.3741C66.7397 32.2151 65.4399 32.7809 64.063 33.0255C62.6861 33.2702 61.271 33.1868 59.9324 32.7821C59.1032 32.5309 58.3335 32.1143 57.6697 31.5575C57.0058 31.0007 56.4616 30.3153 56.0698 29.5425C55.338 28.1544 54.8731 26.6414 54.6992 25.0819C54.4603 22.7886 54.5021 20.4747 54.8238 18.1915C54.9931 16.4336 55.452 14.7159 56.182 13.1078C56.7224 11.8646 57.6257 10.8136 58.7736 10.0925C59.4436 9.70435 60.1873 9.46047 60.957 9.37651C61.7268 9.29256 62.5056 9.37039 63.2435 9.60502C63.9814 9.83964 64.6621 10.2259 65.242 10.739C65.8219 11.2521 66.2882 11.8807 66.6109 12.5845C67.1598 13.7683 67.5254 15.0287 67.695 16.3225C67.915 18.1787 67.9982 20.0486 67.9442 21.917C67.9442 22.1039 67.8694 22.1039 67.7323 22.1039L63.1222 22.0915Z" fill="#7A7C80"/>
<path d="M84.3787 9.69388L82.9708 12.3852L78.7593 20.3596C78.7143 20.4257 78.6902 20.5039 78.6902 20.5839C78.6902 20.6639 78.7143 20.742 78.7593 20.8082C80.8775 24.7206 82.9708 28.6579 85.0765 32.5828L85.1886 32.7946C85.1886 32.8694 85.064 32.7946 85.0017 32.7946H81.5753C81.4924 32.8017 81.4094 32.7826 81.3379 32.7402C81.2664 32.6977 81.21 32.634 81.1765 32.5579C79.2452 28.8199 77.289 25.219 75.3453 21.5433C75.3078 21.4684 75.2572 21.4009 75.1958 21.3439V21.6056C75.1958 25.2439 75.1958 28.8697 75.1958 32.5081C75.1958 32.7199 75.1958 32.7946 74.9216 32.7946H71.844C71.6571 32.7946 71.6073 32.7946 71.6073 32.5579C71.6073 24.9989 71.6073 17.4357 71.6073 9.86832C71.6073 9.69388 71.6073 9.64404 71.8316 9.64404H74.9466C75.1459 9.64404 75.2082 9.64404 75.2082 9.89324C75.2082 13.2159 75.2082 16.5801 75.2082 19.9858V20.2475L75.3204 20.0481L80.6408 9.968C80.6581 9.88893 80.7024 9.81835 80.766 9.76834C80.8297 9.71833 80.9087 9.69201 80.9896 9.69388H84.3787Z" fill="#7A7C80"/>
<path d="M97.6236 28.7824L98.4086 31.2744C98.4228 31.3161 98.4218 31.3614 98.4059 31.4024C98.3899 31.4435 98.36 31.4776 98.3214 31.4987C97.3408 32.348 96.1317 32.8897 94.8451 33.0562C93.3851 33.289 91.8891 33.0988 90.5339 32.5079C89.0932 31.8421 87.9236 30.7033 87.2196 29.2808C86.5654 27.9326 86.1441 26.4834 85.9736 24.9946C85.6935 23.1183 85.6308 21.216 85.7867 19.3253C85.8744 17.318 86.3616 15.3483 87.2196 13.5314C87.9926 11.8696 89.3692 10.5643 91.0697 9.88067C92.3397 9.4156 93.7027 9.26178 95.0444 9.43211C96.1021 9.54899 97.1199 9.90245 98.0223 10.4663C98.1096 10.4663 98.1843 10.5784 98.1594 10.7155C97.9974 11.7621 97.8479 12.8212 97.6859 13.8803C97.4367 13.6934 97.2 13.5065 96.9383 13.3321C96.196 12.8138 95.3425 12.4766 94.4463 12.3477C93.8227 12.2514 93.1846 12.3364 92.608 12.5927C92.0314 12.8489 91.5406 13.2656 91.1943 13.7931C90.5475 14.7645 90.1221 15.8662 89.9483 17.0202C89.5833 18.9412 89.4786 20.9026 89.6368 22.8515C89.6805 24.1501 89.8814 25.4387 90.2349 26.6891C90.4471 27.4687 90.8066 28.2004 91.294 28.8447C91.5945 29.2479 91.9886 29.572 92.4423 29.789C92.8959 30.0061 93.3956 30.1096 93.8981 30.0907C95.2512 30.1238 96.5734 29.683 97.6361 28.8447C97.6361 28.8447 97.7233 28.7326 97.823 28.7326L97.6236 28.7824Z" fill="#7A7C80"/>
</g>
</svg>
