<svg width="36" height="36" viewBox="0 0 36 36" fill="none" xmlns="http://www.w3.org/2000/svg">
<path d="M26.5426 19.9953L26.4461 19.8865L23.3092 23.0882L21.2944 20.8893L26.7356 15.5371H27.4716C29.5333 15.5371 31.5108 14.7177 32.9699 13.2589C34.4289 11.8001 35.2502 9.82107 35.2534 7.7564C35.2494 6.88852 35.1026 6.02724 34.819 5.20714C34.7875 5.05191 34.7196 4.90639 34.621 4.78249C34.5225 4.65859 34.396 4.55983 34.252 4.49431H34.1675L29.9328 8.62629L26.9528 7.67182L26.434 4.92925L29.8363 1.41345L30.2706 0.942261L29.5708 0.314008H29.5105C28.3581 -0.00291301 27.148 -0.0484797 25.9751 0.180873C24.8021 0.410226 23.698 0.908278 22.7493 1.63605C21.8005 2.36383 21.0328 3.30158 20.5062 4.37594C19.9796 5.45029 19.7085 6.6321 19.7139 7.82889C19.7023 8.02202 19.7023 8.21568 19.7139 8.40881L14.2365 13.7852L7.45605 7.34561L10.05 4.92925L2.94381 0.507317L0 3.22572L3.96932 10.3298L4.05377 10.499L6.46674 8.27591L13.2713 14.7397L1.49604 26.2899C1.03241 26.7459 0.663065 27.289 0.409103 27.888C0.155141 28.487 0.0215424 29.1303 0.0159402 29.7811C0.0103381 30.4318 0.132843 31.0773 0.376454 31.6807C0.620064 32.284 0.980007 32.8333 1.43571 33.2973L1.52017 33.394C2.44304 34.3258 3.69605 34.8549 5.00654 34.8662C6.31704 34.8775 7.57897 34.3701 8.51775 33.4544L20.3292 21.8438L22.3681 24.0668L19.4364 27.051L25.8066 33.5631C26.2619 34.027 26.8044 34.3961 27.4029 34.6491C28.0013 34.9021 28.6438 35.0339 29.2933 35.0371C30.5905 35.0398 31.8358 34.527 32.7559 33.6114L32.8525 33.5269C33.7848 32.6036 34.314 31.3482 34.3244 30.0352C34.3399 28.749 33.8503 27.5081 32.961 26.5798L26.5426 19.9953ZM7.80593 5.15881L4.40365 8.31216L1.7132 3.47944L3.11272 2.22293L7.80593 5.15881ZM21.0772 8.56588C21.061 8.30839 21.061 8.05013 21.0772 7.79264C21.0772 6.09005 21.7518 4.45701 22.9529 3.25197C24.154 2.04692 25.7834 1.36832 27.4836 1.36512H27.9542L25.0103 4.4339H24.95L25.7463 8.59004V8.67461L30.2827 10.1365L33.7815 6.75361C33.8386 7.09698 33.8668 7.44454 33.8659 7.79264C33.8627 9.49314 33.1867 11.1231 31.986 12.3255C30.7852 13.5279 29.1576 14.2049 27.4595 14.2081C27.1525 14.2063 26.846 14.1821 26.5426 14.1356H26.1927L25.879 14.4739L7.55257 32.4758C7.22456 32.8035 6.83501 33.063 6.40637 33.2392C5.97774 33.4155 5.51851 33.505 5.05515 33.5027V33.5027C4.58464 33.4999 4.11939 33.4034 3.68649 33.2188C3.25358 33.0342 2.86168 32.7652 2.53361 32.4274L2.41296 32.3308C1.7534 31.6538 1.38422 30.7454 1.38422 29.7996C1.38422 28.8538 1.7534 27.9455 2.41296 27.2685L20.7877 9.25454H20.848L21.1737 8.96458L21.0772 8.56588ZM32.961 30.0352C32.9686 30.5126 32.8819 30.9867 32.7059 31.4304C32.5299 31.8741 32.2681 32.2786 31.9355 32.6207L31.839 32.7174C31.5087 33.0513 31.1133 33.3137 30.6775 33.4883C30.2416 33.6629 29.7746 33.7459 29.3054 33.7323C28.3514 33.7091 27.4452 33.3096 26.7839 32.6207L21.3547 27.0631L26.4581 21.8559L31.9838 27.5101C32.3145 27.8411 32.5757 28.235 32.7518 28.6687C32.928 29.1024 33.0155 29.5671 33.0093 30.0352H32.961Z" fill="#325AA9"/>
</svg>
