<svg width="33" height="35" viewBox="0 0 33 35" fill="none" xmlns="http://www.w3.org/2000/svg">
<path d="M31.1877 0.667302L31.121 0.800763C30.1942 1.80031 29.0713 2.59772 27.8225 3.14312C26.5736 3.68852 25.2257 3.97017 23.8631 3.97045C22.493 3.93343 21.1457 3.61062 19.9074 3.02268C18.6691 2.43475 17.5672 1.59463 16.672 0.556085L16.3496 0.266921H16.2941L15.9162 0L15.6494 0.322529C14.7567 1.35543 13.6597 2.19206 12.4278 2.77971C11.1959 3.36735 9.85564 3.69326 8.49158 3.73689H8.31375C6.98232 3.71545 5.66913 3.42342 4.45395 2.87854C3.23878 2.33365 2.14697 1.54729 1.24484 0.567207L1.11146 0.433746H0V16.6158C0.0195679 17.0565 0.0715772 17.4952 0.155605 17.9282C1.14615 21.2738 2.79781 24.3863 5.0127 27.0813C7.83657 30.3814 11.4392 32.9236 15.4938 34.4773V34.5663L15.6272 34.5106L15.8828 34.6107L16.0273 35L16.4274 34.8554C20.6356 33.3025 24.3774 30.6992 27.2976 27.2927C29.5536 24.5783 31.2192 21.423 32.188 18.0283C32.2436 17.8392 32.3325 16.8494 32.3325 16.8049V0.645059L31.1877 0.667302ZM30.8765 2.89164V16.9161C30.8558 17.1924 30.8187 17.4672 30.7653 17.7391V17.7391C29.8365 20.9057 28.279 23.8524 26.1861 26.4029C23.5742 29.5075 20.2215 31.9022 16.4386 33.3651V33.3651L16.2607 33.3095L16.1385 32.9759L16.0495 33.2205C12.2209 31.7444 8.81822 29.3407 6.1464 26.225C4.05603 23.6953 2.50181 20.7665 1.57828 17.6168C1.51239 17.2196 1.47524 16.8182 1.46713 16.4156V2.68033C2.15721 3.21437 2.90243 3.67297 3.69006 4.0483C5.22571 4.79943 6.91578 5.18032 8.62496 5.16047C11.4394 5.07007 14.1187 3.93182 16.1385 1.96854C18.1922 4.07176 20.9813 5.29574 23.9187 5.3829C26.4513 5.37716 28.9061 4.50608 30.8765 2.91389V2.89164Z" fill="#325AA9"/>
<path d="M25.508 9.19763L15.3715 21.8096L10.4922 15.5036L9.35846 16.3711L15.3493 24.1007L26.6195 10.0874L25.508 9.19763Z" fill="#325AA9"/>
</svg>
