<svg width="35" height="35" viewBox="0 0 35 35" fill="none" xmlns="http://www.w3.org/2000/svg">
<path d="M17.5 34.6983C14.0985 34.6983 10.7734 33.6897 7.94519 31.7999C5.11695 29.9101 2.9126 27.2241 1.61091 24.0815C0.30921 20.939 -0.0313737 17.481 0.632226 14.1448C1.29582 10.8087 2.9338 7.74425 5.33902 5.33902C7.74425 2.9338 10.8087 1.29582 14.1448 0.632226C17.481 -0.0313737 20.939 0.30921 24.0815 1.61091C27.2241 2.9126 29.9101 5.11695 31.7999 7.94519C33.6897 10.7734 34.6983 14.0985 34.6983 17.5C34.6951 22.0603 32.8821 26.4329 29.6575 29.6575C26.4329 32.8821 22.0603 34.6951 17.5 34.6983ZM17.5 1.32763C14.3014 1.32763 11.1747 2.27612 8.51513 4.05317C5.85559 5.83022 3.78273 8.356 2.55868 11.3111C1.33463 14.2662 1.01436 17.518 1.63838 20.6551C2.26239 23.7923 3.80267 26.6739 6.06442 28.9357C8.32617 31.1974 11.2078 32.7377 14.345 33.3617C17.4821 33.9857 20.7338 33.6655 23.689 32.4414C26.6441 31.2174 29.1699 29.1445 30.9469 26.485C32.724 23.8254 33.6725 20.6986 33.6725 17.5C33.6693 13.2118 31.9644 9.10017 28.9321 6.06795C25.8999 3.03572 21.7883 1.33082 17.5 1.32763Z" fill="#325AA9"/>
<path d="M17.5 35C14.0388 35 10.6554 33.9736 7.77753 32.0507C4.89967 30.1278 2.65665 27.3947 1.33212 24.197C0.00758241 20.9993 -0.338976 17.4806 0.336265 14.0859C1.01151 10.6913 2.67822 7.57306 5.12564 5.12564C7.57306 2.67822 10.6913 1.01151 14.0859 0.336265C17.4806 -0.338976 20.9993 0.00758241 24.197 1.33212C27.3947 2.65665 30.1278 4.89967 32.0507 7.77753C33.9736 10.6554 35 14.0388 35 17.5C34.9968 22.1403 33.152 26.5896 29.8708 29.8708C26.5896 33.152 22.1403 34.9968 17.5 35ZM17.5 0.603456C14.1582 0.603456 10.8914 1.59442 8.11279 3.45104C5.33416 5.30766 3.16849 7.94654 1.88963 11.034C0.61077 14.1214 0.276161 17.5187 0.928119 20.7964C1.58008 24.074 3.18932 27.0846 5.55234 29.4477C7.91537 31.8107 10.926 33.4199 14.2037 34.0719C17.4813 34.7239 20.8786 34.3892 23.966 33.1104C27.0535 31.8315 29.6924 29.6659 31.549 26.8872C33.4056 24.1086 34.3966 20.8418 34.3966 17.5C34.3966 13.0188 32.6164 8.72106 29.4477 5.55234C26.279 2.38362 21.9813 0.603456 17.5 0.603456ZM17.5 33.9741C14.2417 33.9741 11.0566 33.008 8.34747 31.1978C5.63831 29.3876 3.52678 26.8146 2.27989 23.8044C1.033 20.7941 0.706758 17.4817 1.34242 14.2861C1.97807 11.0904 3.54708 8.15498 5.85103 5.85103C8.15498 3.54708 11.0904 1.97807 14.2861 1.34242C17.4817 0.706758 20.7941 1.033 23.8044 2.27989C26.8146 3.52678 29.3876 5.63831 31.1978 8.34747C33.008 11.0566 33.9741 14.2417 33.9741 17.5C33.9678 21.8673 32.23 26.0538 29.1419 29.1419C26.0538 32.23 21.8673 33.9678 17.5 33.9741ZM17.5 1.62932C14.3611 1.62932 11.2926 2.56012 8.68272 4.30401C6.0728 6.04791 4.03862 8.52657 2.8374 11.4266C1.63619 14.3265 1.32189 17.5176 1.93427 20.5962C2.54664 23.6748 4.05818 26.5027 6.27774 28.7223C8.49729 30.9418 11.3252 32.4534 14.4038 33.0657C17.4824 33.6781 20.6735 33.3638 23.5735 32.1626C26.4734 30.9614 28.9521 28.9272 30.696 26.3173C32.4399 23.7074 33.3707 20.6389 33.3707 17.5C33.3643 13.2928 31.6902 9.25974 28.7152 6.28479C25.7403 3.30984 21.7072 1.6357 17.5 1.62932Z" fill="#325AA9"/>
<path d="M17.5 18.019C17.4104 18.0195 17.3224 17.9944 17.2466 17.9466L9.16035 13.2759C9.03712 13.2103 8.945 13.0984 8.90426 12.9649C8.86352 12.8313 8.87749 12.6871 8.94311 12.5638C9.00873 12.4406 9.12062 12.3485 9.25416 12.3077C9.38769 12.267 9.53195 12.281 9.65518 12.3466L17.4276 16.8966L26.8655 7.78451C26.9645 7.68937 27.0964 7.63623 27.2336 7.63623C27.3709 7.63623 27.5028 7.68937 27.6017 7.78451C27.6961 7.88141 27.7489 8.01133 27.7489 8.14658C27.7489 8.28184 27.6961 8.41175 27.6017 8.50865L17.8621 17.8742C17.7641 17.9666 17.6347 18.0184 17.5 18.019Z" fill="#325AA9"/>
<path d="M17.5001 18.3206C17.355 18.318 17.2132 18.2763 17.0898 18.1999L9.01562 13.493C8.92342 13.4394 8.84274 13.3681 8.77822 13.2832C8.71371 13.1982 8.66663 13.1014 8.63971 12.9982C8.61279 12.8949 8.60655 12.7874 8.62135 12.6818C8.63616 12.5762 8.67171 12.4745 8.72597 12.3827C8.77631 12.2873 8.84551 12.203 8.92939 12.1352C9.01326 12.0673 9.11005 12.0172 9.21388 11.9878C9.31771 11.9585 9.42643 11.9505 9.53342 11.9645C9.64042 11.9784 9.74346 12.0139 9.83631 12.0689L17.3794 16.4741L26.6604 7.51891C26.7327 7.43855 26.8227 7.37603 26.9232 7.33624C27.0237 7.29646 27.132 7.28049 27.2398 7.2896C27.3483 7.29143 27.4554 7.31478 27.5548 7.35829C27.6542 7.40179 27.7441 7.46459 27.8191 7.54304C27.9655 7.70053 28.0473 7.90732 28.0484 8.12235C28.0415 8.33734 27.9505 8.54103 27.7949 8.6896L18.1036 18.1034C18.0227 18.1783 17.9276 18.2361 17.8239 18.2734C17.7203 18.3107 17.6101 18.3268 17.5001 18.3206ZM9.42597 12.5758C9.3885 12.5744 9.35144 12.5839 9.31929 12.6032C9.28714 12.6225 9.26131 12.6507 9.24493 12.6844C9.2177 12.7328 9.21003 12.7898 9.22349 12.8437C9.23696 12.8975 9.27054 12.9442 9.31735 12.9741L17.3915 17.681C17.4284 17.7075 17.4727 17.7218 17.5182 17.7218C17.5637 17.7218 17.608 17.7075 17.6449 17.681L27.3725 8.29132C27.3957 8.27517 27.4146 8.25345 27.4272 8.22815C27.4399 8.20284 27.446 8.17476 27.4449 8.14649C27.4625 8.09982 27.4625 8.04834 27.4449 8.00166C27.4262 7.97824 27.4023 7.9595 27.375 7.94693C27.3478 7.93436 27.318 7.92831 27.288 7.92925C27.2414 7.91165 27.1899 7.91165 27.1432 7.92925L17.488 17.1982L9.53459 12.5999L9.42597 12.5758Z" fill="#325AA9"/>
</svg>
