<svg width="35" height="35" viewBox="0 0 35 35" fill="none" xmlns="http://www.w3.org/2000/svg">
<path d="M17.5 10.5505C16.1219 10.5505 14.7747 10.9599 13.6288 11.7269C12.483 12.4939 11.5899 13.584 11.0625 14.8595C10.5351 16.1349 10.3971 17.5384 10.666 18.8924C10.9348 20.2464 11.5985 21.4902 12.5729 22.4664C13.5474 23.4426 14.789 24.1074 16.1406 24.3767C17.4923 24.646 18.8933 24.5078 20.1665 23.9795C21.4398 23.4512 22.528 22.5565 23.2936 21.4086C24.0593 20.2607 24.468 18.9112 24.468 17.5307C24.4647 15.6804 23.7295 13.9069 22.4235 12.5986C21.1175 11.2903 19.347 10.5538 17.5 10.5505V10.5505ZM23.0867 17.5307C23.0867 18.6375 22.759 19.7196 22.1452 20.6399C21.5313 21.5602 20.6588 22.2775 19.638 22.7011C18.6171 23.1247 17.4938 23.2355 16.4101 23.0196C15.3264 22.8037 14.331 22.2706 13.5496 21.488C12.7683 20.7053 12.2362 19.7081 12.0207 18.6225C11.8051 17.5369 11.9158 16.4116 12.3386 15.389C12.7614 14.3664 13.4775 13.4923 14.3962 12.8774C15.315 12.2624 16.3951 11.9342 17.5 11.9342C18.2337 11.9342 18.9601 12.079 19.638 12.3602C20.3158 12.6415 20.9316 13.0537 21.4504 13.5734C21.9692 14.0931 22.3807 14.71 22.6614 15.389C22.9422 16.068 23.0867 16.7957 23.0867 17.5307V17.5307Z" fill="#325AA9"/>
<path d="M34.3834 13.145L34.3217 13.0338H30.3136C30.112 12.4667 29.8731 11.9137 29.5983 11.3783L32.2375 8.07977L32.1758 7.98094C31.5091 6.92625 30.7183 5.95566 29.8203 5.09005C28.7896 4.08554 27.628 3.2253 26.3672 2.53273L26.2685 2.47096L23.3457 5.26301C22.8579 5.02838 22.3553 4.82616 21.8411 4.65765L21.4588 0.383095H21.3478C20.0822 0.120413 18.7925 -0.00795603 17.5 0.000113897C16.1723 0.0216003 14.8518 0.19991 13.5659 0.531345H13.4426V4.4847C12.8226 4.68162 12.2169 4.92103 11.6297 5.20124L8.7685 2.34742L8.63284 2.47096C7.5719 3.07394 6.57947 3.79057 5.67301 4.60824C4.67329 5.53303 3.7873 6.57403 3.03383 7.70915V7.79563L5.50035 11.3289C5.21082 11.8904 4.96349 12.4726 4.76039 13.0709H0.665962V13.1821C0.242624 14.5934 0.018464 16.0572 0 17.5307C0.0101623 18.8453 0.18838 20.1531 0.530303 21.4223V21.5335H4.52607C4.75711 22.2676 5.04577 22.9823 5.38936 23.6708L2.66385 26.92V27.0188C3.17096 27.7778 3.73583 28.4965 4.35342 29.1684C5.37082 30.29 6.52232 31.2817 7.78189 32.1211L7.86822 32.1952L11.1734 29.6008C11.9105 29.9933 12.6826 30.3159 13.4796 30.5644L13.5659 34.5919H13.6769C14.3863 34.7352 15.1025 34.8424 15.8228 34.9131C16.1557 34.9131 16.8217 34.9996 17.5617 34.9996C18.9287 35.0048 20.2925 34.8681 21.6314 34.5919H21.7548V30.4533C22.4821 30.2186 23.1878 29.921 23.8636 29.5638L27.1318 32.1211H27.2304C28.0307 31.5964 28.7856 31.0054 29.4873 30.3544C30.5407 29.3815 31.465 28.277 32.2375 27.0682L32.2992 26.9694L29.5983 23.6708C29.9512 22.9765 30.2441 22.2532 30.4739 21.5088H34.5314V21.3853C34.837 20.1234 34.9902 18.8293 34.9877 17.5307C34.9893 16.0479 34.7859 14.572 34.3834 13.145V13.145ZM30.5479 26.9941C29.588 28.3044 28.4363 29.4622 27.1318 30.4286L23.8883 27.8836H23.7896C23.2804 28.22 22.7488 28.5213 22.1987 28.7854C21.624 29.0413 21.0302 29.252 20.4228 29.4155H20.3118V33.3812C18.4996 33.69 16.6484 33.69 14.8362 33.3812V29.4279H14.7252C14.0816 29.2542 13.4511 29.0354 12.8383 28.7731C12.2477 28.5235 11.6785 28.226 11.1364 27.8836H11.0377L7.80655 30.4286C6.51625 29.4573 5.38099 28.2951 4.43975 26.9817L7.0666 23.819L7.00493 23.7202C6.68862 23.1879 6.40844 22.6348 6.16631 22.0647C5.91673 21.4753 5.71063 20.8683 5.54968 20.2487V20.1375H1.59091C1.45545 19.2751 1.38537 18.4037 1.38125 17.5307C1.38179 16.4976 1.48507 15.4671 1.68957 14.4545H5.67301V14.3434C5.82184 13.801 6.01573 13.272 6.25264 12.762C6.4773 12.2823 6.73699 11.8198 7.0296 11.3783V11.2919L4.56307 7.75856C5.67586 6.32706 7.02273 5.09478 8.54651 4.11407L11.3953 6.93083H11.494C12.0065 6.65181 12.5334 6.40026 13.0726 6.17722C13.6369 5.94831 14.2133 5.75035 14.7992 5.58422H14.9101V1.60616C16.6732 1.30355 18.4748 1.30355 20.2378 1.60616L20.6078 5.70776H20.7065C21.1804 5.83468 21.6459 5.99148 22.1001 6.17722C22.5792 6.36291 23.0448 6.5817 23.4937 6.832H23.5923L26.5398 4.0523C28.0895 5.13907 29.4411 6.4847 30.5356 8.03036L27.9334 11.2548V11.3413C28.2156 11.8017 28.467 12.2805 28.6857 12.7744C28.9058 13.2856 29.0953 13.8095 29.253 14.3434V14.4545H33.2981C33.5032 15.4671 33.6065 16.4976 33.6064 17.5307C33.6031 18.4037 33.533 19.2752 33.3968 20.1375H29.4503V20.2487C29.2894 20.8683 29.0833 21.4753 28.8337 22.0647C28.5906 22.6322 28.3147 23.1849 28.0074 23.7202L27.9457 23.819L30.5479 26.9941Z" fill="#325AA9"/>
</svg>
