<svg width="54" height="36" viewBox="0 0 54 36" fill="none" xmlns="http://www.w3.org/2000/svg">
<path d="M53.4125 16.5973H34.2466L39.7383 11.2157L38.8087 10.2739L38.6987 10.384C38.0137 11.0567 32.0083 17.0254 31.8616 17.2089L31.7882 17.3067L31.8738 17.4046C32.0083 17.5636 38.4173 24.3395 38.6864 24.633L38.7843 24.7431L39.7505 23.8258L34.161 17.9183H53.4125V16.5973Z" fill="#325AA9"/>
<path d="M21.5509 17.2089C21.3919 17.0254 15.4354 11.0934 14.7138 10.384L14.6037 10.2739L13.6742 11.2157L19.1536 16.5973H0V17.9183H19.2393L13.6619 23.8258L14.616 24.7431L14.726 24.633L21.5387 17.4046L21.6243 17.3067L21.5509 17.2089Z" fill="#325AA9"/>
<path d="M36.0079 5.46724C35.9503 5.33898 35.8519 5.2334 35.728 5.16702C35.604 5.10063 35.4616 5.07717 35.3229 5.10031L29.8802 5.93201L27.752 0.428097C27.7024 0.306584 27.6178 0.202592 27.5089 0.129389C27.3999 0.0561854 27.2717 0.0170898 27.1405 0.0170898C27.0092 0.0170898 26.881 0.0561854 26.772 0.129389C26.6631 0.202592 26.5785 0.306584 26.5289 0.428097L24.364 6.11548L18.9213 5.73632C18.787 5.72253 18.6518 5.75184 18.5352 5.82001C18.4187 5.88817 18.3268 5.99166 18.273 6.11548C18.2143 6.23822 18.1957 6.37633 18.2199 6.51024C18.244 6.64415 18.3097 6.76706 18.4076 6.86156L22.0768 10.5308C22.1364 10.594 22.2085 10.6441 22.2886 10.6778C22.3686 10.7114 22.4548 10.7281 22.5416 10.7265C22.6282 10.7266 22.714 10.7094 22.7938 10.6757C22.8736 10.6421 22.9459 10.5929 23.0064 10.5308C23.1289 10.4072 23.1976 10.2401 23.1976 10.0661C23.1976 9.892 23.1289 9.72497 23.0064 9.60129L20.5602 7.15511L24.731 7.44865C24.8642 7.4473 24.9939 7.40569 25.103 7.32929C25.2122 7.25289 25.2956 7.14527 25.3425 7.02057L27.0548 2.54405L28.7549 6.93495C28.8092 7.07658 28.9105 7.19523 29.0419 7.27096C29.1733 7.34669 29.3268 7.37488 29.4766 7.3508L33.3905 6.72702L30.5773 9.30775C30.4548 9.43142 30.3861 9.59846 30.3861 9.77252C30.3861 9.94659 30.4548 10.1136 30.5773 10.2373C30.6353 10.3033 30.7069 10.3561 30.7871 10.3919C30.8673 10.4278 30.9543 10.446 31.0421 10.4452C31.1273 10.4515 31.2129 10.4394 31.293 10.4099C31.3732 10.3803 31.4461 10.334 31.5069 10.274L35.8489 6.23779C35.958 6.14581 36.033 6.01981 36.0618 5.88005C36.0907 5.74029 36.0717 5.59489 36.0079 5.46724V5.46724Z" fill="#325AA9"/>
<path d="M35.9834 28.7793L31.6414 24.7431C31.5165 24.6235 31.3496 24.5576 31.1766 24.5597C30.9986 24.5686 30.8315 24.6478 30.7118 24.7798C30.6518 24.8406 30.6055 24.9135 30.576 24.9937C30.5464 25.0738 30.5344 25.1594 30.5406 25.2446C30.5398 25.3325 30.558 25.4194 30.5939 25.4996C30.6298 25.5799 30.6825 25.6514 30.7485 25.7094L33.5127 28.2779L29.6844 27.703C29.5347 27.6789 29.3812 27.7071 29.2498 27.7829C29.1184 27.8586 29.0171 27.9772 28.9628 28.1189L27.2627 32.5098L25.5504 28.0332C25.5043 27.8981 25.4141 27.7824 25.2943 27.7048C25.1745 27.6271 25.0321 27.592 24.8899 27.6052L20.7192 27.8987L23.1654 25.4525C23.2884 25.3288 23.3586 25.1622 23.3611 24.9877C23.3628 24.8991 23.3463 24.811 23.3127 24.7289C23.279 24.6469 23.2289 24.5726 23.1654 24.5107C23.1043 24.4504 23.0316 24.403 22.9517 24.3714C22.8719 24.3399 22.7864 24.3249 22.7006 24.3273V24.3273C22.5276 24.3252 22.3607 24.3911 22.2358 24.5107L18.5665 28.18C18.4716 28.2752 18.4079 28.3972 18.3841 28.5295C18.3603 28.6619 18.3775 28.7984 18.4334 28.9207C18.4892 29.043 18.5811 29.1454 18.6967 29.2141C18.8123 29.2828 18.9461 29.3146 19.0802 29.3053L24.4618 28.9628L26.6145 34.589C26.6613 34.7137 26.7448 34.8213 26.854 34.8977C26.9631 34.9741 27.0928 35.0158 27.226 35.0171V35.0171C27.3592 35.0158 27.4889 34.9741 27.5981 34.8977C27.7072 34.8213 27.7907 34.7137 27.8376 34.589L29.9658 29.0851L35.4085 29.9168C35.5466 29.934 35.6867 29.908 35.8093 29.8422C35.932 29.7765 36.0313 29.6744 36.0935 29.5499C36.163 29.4274 36.19 29.2853 36.1701 29.1458C36.1501 29.0063 36.0845 28.8774 35.9834 28.7793V28.7793Z" fill="#325AA9"/>
</svg>
