<svg width="35" height="35" viewBox="0 0 35 35" fill="none" xmlns="http://www.w3.org/2000/svg">
<path d="M17.5 0C14.0388 0 10.6554 1.02636 7.77752 2.94928C4.89966 4.87221 2.65664 7.60533 1.33211 10.803C0.00757669 14.0007 -0.338982 17.5194 0.33626 20.9141C1.0115 24.3087 2.67821 27.4269 5.12563 29.8744C7.57305 32.3218 10.6913 33.9885 14.0859 34.6637C17.4806 35.339 20.9993 34.9924 24.197 33.6679C27.3947 32.3434 30.1278 30.1003 32.0507 27.2225C33.9736 24.3446 35 20.9612 35 17.5C34.9935 12.8607 33.1477 8.41329 29.8672 5.13281C26.5867 1.85233 22.1393 0.00650217 17.5 0V0ZM33.6482 17.5C33.6506 20.6973 32.7046 23.8234 30.9298 26.4829C29.155 29.1423 26.6312 31.2156 23.6777 32.4403C20.7243 33.6649 17.4739 33.986 14.338 33.3628C11.202 32.7397 8.32137 31.2003 6.06054 28.9395C3.79972 26.6786 2.26034 23.798 1.63717 20.662C1.01401 17.5261 1.33508 14.2757 2.55975 11.3223C3.78442 8.36883 5.85765 5.84503 8.51711 4.07023C11.1766 2.29543 14.3027 1.3494 17.5 1.35183C21.7818 1.35508 25.8872 3.05745 28.9149 6.08511C31.9426 9.11277 33.6449 13.2182 33.6482 17.5Z" fill="#181B1F"/>
<path d="M24.7801 9.34892L9.35562 24.7734L10.2246 25.6424L25.6491 10.2179L24.7801 9.34892Z" fill="#181B1F"/>
<path d="M10.2246 9.35758L9.35562 10.2266L24.7801 25.6511L25.6491 24.7821L10.2246 9.35758Z" fill="#181B1F"/>
</svg>
