<svg width="33" height="35" viewBox="0 0 33 35" fill="none" xmlns="http://www.w3.org/2000/svg">
<path d="M31.1766 0.667302L31.0654 0.800763C30.1412 1.80053 29.0203 2.59821 27.7732 3.14369C26.5261 3.68916 25.1797 3.97065 23.8187 3.97045C22.447 3.93292 21.0983 3.60995 19.8582 3.0221C18.6182 2.43425 17.5142 1.59441 16.6164 0.556085L16.3385 0.266921H16.2829L15.905 0L15.6383 0.322529C14.7494 1.35721 13.6549 2.19519 12.4244 2.78306C11.1939 3.37093 9.85451 3.69578 8.49158 3.73689H8.31375C6.98054 3.71631 5.66543 3.42471 4.44833 2.87982C3.23123 2.33493 2.13754 1.54812 1.23372 0.567207L1.11146 0.433746H0V16.6158C0.0140579 17.0569 0.0661192 17.496 0.155605 17.9282C1.14134 21.2757 2.79349 24.3892 5.0127 27.0813C7.83712 30.3857 11.4445 32.9286 15.5049 34.4773V34.5663L15.6494 34.5106L15.905 34.6107L16.0495 35L16.4386 34.8554C20.6514 33.3055 24.3975 30.7019 27.3198 27.2927C29.5567 24.5789 31.2102 21.4326 32.1769 18.0505C32.1769 17.8615 32.3214 16.8716 32.3214 16.8271V0.645059L31.1766 0.667302ZM30.8765 2.89164V16.9161C30.8575 17.1933 30.8167 17.4685 30.7542 17.7391V17.7391C29.8254 20.9057 28.2679 23.8524 26.175 26.4029C23.5602 29.5043 20.2083 31.8984 16.4274 33.3651V33.3651L16.2607 33.3095L16.1385 32.9759L16.0384 33.2205C12.2147 31.7412 8.81635 29.3379 6.1464 26.225C4.05258 23.6959 2.49461 20.7671 1.56716 17.6168C1.51113 17.2186 1.47773 16.8176 1.46713 16.4156V2.68033C2.12 3.21078 2.828 3.66941 3.57891 4.0483C5.11497 4.79826 6.80477 5.17908 8.51381 5.16047C11.3294 5.07543 14.0106 3.93639 16.0273 1.96854C18.0824 4.06981 20.8707 5.29344 23.8076 5.3829C26.3783 5.40271 28.8764 4.53017 30.8765 2.91389V2.89164Z" fill="#325AA9"/>
<path d="M25.5082 9.19727L15.3717 21.8093L10.4923 15.5033L9.35864 16.3708L15.3494 24.1003L26.6197 10.087L25.5082 9.19727Z" fill="#325AA9"/>
</svg>
