<svg width="52" height="35" viewBox="0 0 52 35" fill="none" xmlns="http://www.w3.org/2000/svg">
<path d="M36.2983 34.6724H27.5801L27.211 31.0716C24.223 31.6569 21.1499 31.6569 18.1619 31.0716L17.8183 34.6724H9.07464L9.94009 27.6235C8.17045 26.3651 6.67632 24.7588 5.54918 22.9031H2.40554C2.12928 22.9031 1.85577 22.8483 1.60086 22.7419C1.34594 22.6354 1.1147 22.4794 0.920546 22.283C0.726388 22.0865 0.573175 21.8534 0.469789 21.5973C0.366403 21.3412 0.314901 21.0671 0.31827 20.791V15.1544C0.31827 14.601 0.538179 14.0703 0.929619 13.6789C1.32106 13.2876 1.85196 13.0678 2.40554 13.0678H4.28918C4.91905 10.9965 6.0313 9.104 7.53463 7.54575C7.48253 6.5636 7.28524 5.59459 6.94918 4.67022C6.45919 3.31109 5.68714 2.07096 4.68373 1.03128L4.03463 0.369655H4.96373C6.58869 0.293966 8.2163 0.443834 9.80009 0.81498C11.5202 1.23217 13.1647 1.91471 14.6746 2.83803L15.2092 2.71079C17.6294 2.07565 20.1061 1.67932 22.6037 1.5275C32.9892 1.5275 41.4401 8.25827 41.4401 16.5286C41.3733 18.7054 40.7932 20.8357 39.7471 22.746C38.701 24.6563 37.2184 26.2926 35.4201 27.5218L36.2983 34.6724ZM28.331 33.8326H35.3565L34.5292 27.14L34.7328 26.9874C36.4747 25.8416 37.9164 24.2952 38.9373 22.4777C39.9581 20.6602 40.5283 18.6245 40.6001 16.5413C40.6001 8.72904 32.531 2.37998 22.6037 2.37998C20.1703 2.52821 17.7574 2.91603 15.4001 3.53782C14.5983 3.71595 14.3946 3.76685 14.2674 3.53782C12.8247 2.66064 11.2527 2.01653 9.60918 1.62929C8.39685 1.32889 7.15439 1.16669 5.90554 1.14579C6.68834 2.11615 7.30739 3.20777 7.73827 4.37758C8.12182 5.44472 8.33652 6.56514 8.37463 7.69843V7.86384L8.24736 7.99107C6.70407 9.55584 5.58305 11.4864 4.98918 13.6022L4.91282 13.9075H2.36736C2.02981 13.9075 1.70609 14.0416 1.46741 14.2802C1.22872 14.5188 1.09463 14.8424 1.09463 15.1799V20.8164C1.09463 21.1539 1.22872 21.4775 1.46741 21.7161C1.70609 21.9547 2.02981 22.0888 2.36736 22.0888H6.03282L6.14736 22.3051C7.2708 24.2236 8.79975 25.8737 10.6274 27.14L10.831 27.28L10.0165 33.8835H17.0419L17.4237 30.1428L17.8819 30.2446C21.048 30.9319 24.3249 30.9319 27.491 30.2446L27.9365 30.1428L28.331 33.8326Z" fill="#325AA9"/>
<path d="M36.6547 34.9902H27.3001L26.931 31.4531C24.1242 31.9619 21.2488 31.9619 18.442 31.4531L18.0729 34.9902H8.71832L9.60923 27.7632C7.91348 26.5299 6.474 24.9785 5.37104 23.1955H2.40559C1.76762 23.1955 1.15579 22.9421 0.704676 22.4911C0.253566 22.0402 0.000134695 21.4285 0.000134695 20.7907V15.1542C-0.00323083 14.8363 0.0565034 14.5208 0.175881 14.2261C0.295259 13.9314 0.47191 13.6633 0.695613 13.4373C0.919316 13.2113 1.18563 13.0319 1.47914 12.9094C1.77266 12.787 2.08755 12.724 2.40559 12.724H4.04741C4.70117 10.7508 5.77842 8.94432 7.20377 7.43098C7.15063 6.52282 6.9663 5.62713 6.6565 4.77176C6.17602 3.46403 5.42585 2.27191 4.45468 1.27278L3.30923 0.0767615L4.95104 0.000420096C8.38703 -0.116025 11.7829 0.768045 14.7256 2.54513L15.1329 2.45607C17.5775 1.81375 20.0802 1.41735 22.6038 1.27278C33.1674 1.27278 41.7583 8.1435 41.7583 16.5411C41.6927 18.7361 41.1154 20.8855 40.0725 22.8183C39.0296 24.751 37.5499 26.4138 35.751 27.6742L36.6547 34.9902ZM27.8729 34.3541H35.942L35.0765 27.3815L35.2292 27.267C36.9849 26.0673 38.4333 24.4711 39.4571 22.6077C40.4808 20.7442 41.0512 18.6659 41.122 16.5411C41.122 8.44887 32.811 1.85806 22.6038 1.85806C20.1289 2.01006 17.6741 2.39776 15.2729 3.01591L14.611 3.16859L14.4965 3.10497C13.0151 2.20599 11.4059 1.53676 9.72377 1.12009C8.17134 0.740928 6.57319 0.582444 4.9765 0.649322H4.76014L4.91286 0.802005C5.94558 1.87712 6.7431 3.15539 7.25468 4.55546C7.60187 5.51241 7.80351 6.51602 7.85286 7.53277V7.63456L7.76377 7.7618C6.29694 9.29023 5.21121 11.1428 4.59468 13.1693L4.51832 13.3856H2.40559C1.9364 13.3856 1.48642 13.5719 1.15465 13.9036C0.822884 14.2353 0.636498 14.6851 0.636498 15.1542V20.7907C0.636498 21.2598 0.822884 21.7096 1.15465 22.0413C1.48642 22.373 1.9364 22.5593 2.40559 22.5593H5.72741L5.82923 22.712C6.94554 24.5461 8.42712 26.1312 10.182 27.3688L10.3347 27.4706L9.43104 34.3541H17.5001L17.882 30.7151L18.2256 30.7787C21.166 31.3686 24.1943 31.3686 27.1347 30.7787L27.4783 30.7151L27.8729 34.3541ZM35.7129 34.1632H28.0001L27.6056 30.4479H27.5038C24.3181 31.1635 21.0166 31.1938 17.8183 30.537H17.7038L17.322 34.2268H9.68559L10.5129 27.4452C8.63859 26.1632 7.07697 24.4759 5.94377 22.5084V22.5084H2.40559C2.18601 22.5093 1.96867 22.4643 1.76747 22.3764C1.56626 22.2885 1.38561 22.1596 1.23708 21.998C1.08854 21.8363 0.975383 21.6454 0.904842 21.4376C0.834301 21.2297 0.807927 21.0094 0.827407 20.7907V15.1542C0.830765 14.738 0.998519 14.3399 1.29412 14.0468C1.58973 13.7537 1.98923 13.5892 2.40559 13.5892H4.67104V13.5128C5.28476 11.3456 6.4412 9.37057 8.03104 7.77452V7.77452C7.99221 6.67971 7.78178 5.59777 7.40741 4.56818C6.99569 3.42733 6.39319 2.36465 5.62559 1.42546L5.21832 0.827452H5.90559C7.1919 0.852391 8.47187 1.01447 9.72377 1.31095C11.3957 1.72789 12.9959 2.39264 14.471 3.2831L14.5601 3.37217C14.8008 3.33126 15.0388 3.27602 15.2729 3.20676C17.6568 2.58861 20.0947 2.20088 22.5529 2.04891C32.6583 2.04891 40.8674 8.53793 40.8674 16.5283C40.7955 18.6643 40.2139 20.7522 39.1711 22.618C38.1284 24.4838 36.6547 26.0733 34.8729 27.2543L35.7129 34.1632ZM28.6238 33.527H34.9874L34.1856 26.9871L34.5292 26.7326C36.2298 25.6178 37.6385 24.1119 38.6372 22.3409C39.6359 20.5699 40.1955 18.5855 40.2692 16.5538C40.2692 8.91964 32.3401 2.71054 22.591 2.71054C20.184 2.86274 17.7973 3.24622 15.4638 3.85566C14.6238 4.04651 14.2929 4.12286 14.0383 3.85566C12.6429 2.98997 11.1237 2.34211 9.53286 1.9344C8.55957 1.69822 7.56716 1.54919 6.56741 1.48908C7.17907 2.34747 7.67143 3.28483 8.03104 4.27554C8.42617 5.35368 8.6495 6.48716 8.69286 7.63456V7.93993L8.4765 8.16895C6.9684 9.68798 5.87321 11.5668 5.29468 13.6274L5.15468 14.1745H2.40559C2.15799 14.1745 1.92035 14.2719 1.74408 14.4457C1.56782 14.6196 1.46712 14.8558 1.46377 15.1033V20.7398C1.46712 20.9873 1.56782 21.2236 1.74408 21.3974C1.92035 21.5712 2.15799 21.6687 2.40559 21.6687H6.22377L6.42741 22.0504C7.52512 23.9276 9.01925 25.5429 10.8056 26.7835L11.1747 27.0253L10.3729 33.4761H16.7365L17.131 29.6591L17.9329 29.8245C21.0525 30.5054 24.2823 30.5054 27.402 29.8245L28.2038 29.6463L28.6238 33.527Z" fill="#325AA9"/>
<path d="M9.54548 14.4549C9.48743 14.4553 9.42995 14.4434 9.3769 14.4198C9.32385 14.3962 9.27645 14.3616 9.23788 14.3182C9.19932 14.2748 9.17047 14.2237 9.15328 14.1682C9.13609 14.1128 9.13095 14.0543 9.13821 13.9967C9.21654 13.3779 9.46306 12.7924 9.85093 12.304C10.2867 11.7546 10.8759 11.347 11.5437 11.1331C11.5989 11.118 11.6566 11.1143 11.7132 11.1223C11.7699 11.1303 11.8244 11.1498 11.8732 11.1796C11.9221 11.2094 11.9644 11.2488 11.9974 11.2956C12.0305 11.3423 12.0536 11.3953 12.0655 11.4513C12.0832 11.503 12.0903 11.5578 12.0864 11.6124C12.0825 11.667 12.0676 11.7202 12.0427 11.7689C12.0177 11.8176 11.9832 11.8608 11.9412 11.8959C11.8992 11.931 11.8506 11.9572 11.7982 11.9731C11.2987 12.138 10.857 12.4428 10.5255 12.8513C10.2335 13.2182 10.0485 13.6586 9.99093 14.124C9.97321 14.2229 9.92159 14.3126 9.84495 14.3776C9.76832 14.4426 9.67143 14.479 9.57093 14.4803" fill="#325AA9"/>
<path d="M9.54558 14.7725H9.44376C9.34032 14.7646 9.23957 14.7357 9.14766 14.6876C9.05576 14.6394 8.97462 14.5731 8.90922 14.4926C8.82512 14.3417 8.79376 14.1671 8.82013 13.9964C8.90401 13.3023 9.17206 12.6434 9.59649 12.0878C10.0756 11.4913 10.723 11.0524 11.4547 10.8282C11.593 10.7876 11.7403 10.7884 11.8782 10.8305C12.0161 10.8727 12.1387 10.9543 12.2307 11.0652C12.3228 11.1762 12.3803 11.3117 12.3962 11.455C12.4121 11.5983 12.3856 11.7431 12.3201 11.8715C12.2263 12.0408 12.0716 12.1682 11.8874 12.2278C11.4643 12.3593 11.0875 12.6087 10.8012 12.9467C10.5149 13.2848 10.331 13.6974 10.271 14.1363C10.2492 14.3128 10.1632 14.4752 10.0295 14.5925C9.89571 14.7098 9.7235 14.7738 9.54558 14.7725V14.7725ZM11.671 11.4516C11.0646 11.6439 10.5287 12.0113 10.131 12.5077C9.77872 12.9372 9.54214 13.4497 9.44376 13.9964V13.9964L9.53285 14.0981C9.55548 14.0969 9.57722 14.089 9.59535 14.0754C9.61347 14.0618 9.62716 14.0432 9.63467 14.0218C9.70072 13.4913 9.91214 12.9893 10.2456 12.5713C10.6155 12.1048 11.1162 11.7592 11.6838 11.5789L11.7601 11.4516C11.7466 11.4438 11.7312 11.4397 11.7156 11.4397C11.6999 11.4397 11.6846 11.4438 11.671 11.4516V11.4516Z" fill="#325AA9"/>
<path d="M42 15.4591C41.6385 15.4599 41.2772 15.4386 40.9182 15.3955C40.8089 15.3827 40.7091 15.3275 40.64 15.2419C40.571 15.1562 40.5384 15.0469 40.5491 14.9375C40.5678 14.8285 40.6264 14.7304 40.7134 14.6622C40.8004 14.594 40.9097 14.5606 41.02 14.5685C41.8575 14.7029 42.7134 14.6685 43.5374 14.4675C44.3614 14.2665 45.1368 13.9028 45.8182 13.3979L46.1746 13.0925L45.8182 12.9144C44.2425 12.048 43.0551 10.6153 42.4964 8.90648C42.3603 8.50073 42.3081 8.07154 42.3431 7.64501C42.3781 7.21848 42.4996 6.80352 42.7 6.42538C43.2691 5.59572 44.1427 5.02415 45.1309 4.83494C45.5763 4.71404 46.0415 4.6844 46.4986 4.74781C46.9558 4.81122 47.3953 4.96637 47.7909 5.20392C48.1237 5.46427 48.3985 5.79106 48.5979 6.16347C48.7973 6.53589 48.9169 6.94574 48.9491 7.36693C49.1345 9.22429 48.686 11.0897 47.6764 12.6599C48.8152 12.8548 49.9855 12.736 51.0619 12.3164C51.1127 12.2961 51.1672 12.2863 51.2219 12.2876C51.2767 12.2888 51.3306 12.3011 51.3805 12.3236C51.4305 12.3462 51.4753 12.3786 51.5124 12.4189C51.5495 12.4592 51.578 12.5066 51.5964 12.5581C51.6338 12.6611 51.6295 12.7747 51.5843 12.8745C51.5391 12.9744 51.4567 13.0526 51.3546 13.0925C50.009 13.6191 48.5345 13.7212 47.1291 13.3852C46.9149 13.6251 46.6808 13.8464 46.4291 14.0468C45.1637 15.0215 43.5963 15.5213 42 15.4591V15.4591ZM46.0728 5.56018C45.8156 5.55915 45.5592 5.58905 45.3091 5.64925C44.9294 5.71184 44.5664 5.85134 44.2425 6.05919C43.9186 6.26705 43.6406 6.53887 43.4255 6.85798C43.2804 7.13822 43.1922 7.44438 43.166 7.75883C43.1398 8.07328 43.1761 8.38981 43.2728 8.69018C43.7837 10.182 44.8379 11.4267 46.2255 12.1764C46.4019 12.2699 46.5848 12.3507 46.7728 12.4182C47.7571 10.9701 48.2071 9.2248 48.0455 7.48144C48.0247 7.17497 47.9418 6.87594 47.8017 6.60252C47.6617 6.3291 47.4675 6.08702 47.2309 5.89099C46.851 5.65216 46.4064 5.53661 45.9582 5.56018" fill="#325AA9"/>
<path d="M42.0003 15.7776C41.6259 15.7818 41.2517 15.7606 40.8803 15.714C40.7847 15.703 40.6923 15.6731 40.6084 15.6261C40.5245 15.579 40.4508 15.5158 40.3916 15.44C40.3324 15.3642 40.2888 15.2774 40.2634 15.1847C40.2381 15.0919 40.2314 14.9951 40.2439 14.8997C40.2663 14.7083 40.3628 14.5332 40.5126 14.412C40.6624 14.2907 40.8538 14.2329 41.0457 14.2508C42.6476 14.5026 44.2843 14.1141 45.6021 13.1693C43.9668 12.2658 42.7311 10.7807 42.1403 9.00869C41.991 8.56048 41.9354 8.08637 41.977 7.6158C42.0186 7.14522 42.1565 6.68821 42.3821 6.27312C42.6876 5.81678 43.0816 5.42629 43.5406 5.12471C43.9997 4.82313 44.5146 4.61658 45.0548 4.51727C45.5442 4.3909 46.0539 4.36295 46.5542 4.43502C47.0545 4.5071 47.5355 4.67777 47.9693 4.93715C48.3366 5.22512 48.6395 5.58669 48.8587 5.99863C49.0779 6.41058 49.2085 6.86379 49.2421 7.32918C49.4088 9.09934 49.022 10.8776 48.1348 12.4186C49.0789 12.5061 50.0302 12.3665 50.9093 12.0115C51.0917 11.9454 51.2927 11.9538 51.469 12.0347C51.6452 12.1157 51.7825 12.2627 51.8512 12.4441C51.8878 12.5332 51.9059 12.6289 51.9044 12.7252C51.903 12.8216 51.882 12.9167 51.8427 13.0047C51.8034 13.0927 51.7467 13.1718 51.676 13.2373C51.6052 13.3028 51.522 13.3532 51.4312 13.3856C50.0821 13.9095 48.6106 14.0332 47.193 13.7419C47.0021 13.9454 46.7984 14.1236 46.5948 14.3017C45.2786 15.3071 43.656 15.8284 42.0003 15.7776V15.7776ZM40.9693 14.887C40.9451 14.8891 40.9222 14.8989 40.9039 14.9149C40.8856 14.9309 40.8728 14.9523 40.8675 14.976C40.8673 15.001 40.8763 15.0251 40.8927 15.0439C40.9091 15.0626 40.9319 15.0747 40.9566 15.0778C41.3025 15.1244 41.6513 15.1456 42.0003 15.1414C43.4948 15.1793 44.9578 14.7082 46.1493 13.8055C46.378 13.6108 46.5947 13.4026 46.7984 13.182L46.9257 13.0293H47.1166C48.4597 13.3357 49.8633 13.2383 51.1512 12.7494C51.1666 12.7551 51.1831 12.757 51.1994 12.755C51.2157 12.7529 51.2312 12.7469 51.2447 12.7376C51.2582 12.7282 51.2692 12.7157 51.2768 12.7011C51.2844 12.6866 51.2884 12.6704 51.2884 12.654C51.2884 12.6376 51.2844 12.6214 51.2768 12.6068C51.2692 12.5923 51.2582 12.5798 51.2447 12.5704C51.2312 12.5611 51.2157 12.5551 51.1994 12.553C51.1831 12.5509 51.1666 12.5529 51.1512 12.5586C50.0211 12.9945 48.7944 13.1176 47.6003 12.9148L47.0912 12.8767L47.3457 12.4822C48.3299 10.9769 48.7782 9.18404 48.6184 7.3928C48.5914 7.01945 48.4868 6.65583 48.3116 6.32507C48.1363 5.9943 47.894 5.70363 47.6003 5.47154C47.2466 5.24708 46.8508 5.09742 46.437 5.03177C46.0233 4.96612 45.6006 4.98588 45.1948 5.08983C44.7461 5.17199 44.3186 5.34396 43.9381 5.5954C43.5575 5.84684 43.2317 6.17258 42.9803 6.55304C42.8 6.89233 42.6912 7.26495 42.6605 7.64791C42.6299 8.03087 42.678 8.41604 42.8021 8.77967C43.3408 10.4168 44.4893 11.7837 46.0093 12.5967L46.353 12.7621L46.7857 12.9403L46.4421 13.2711C46.3253 13.3921 46.202 13.5068 46.073 13.6146C45.3518 14.1547 44.53 14.5454 43.6558 14.7639C42.7817 14.9824 41.8726 15.0242 40.9821 14.887H40.9693ZM46.8621 12.8003L46.6839 12.724C46.4841 12.6455 46.2886 12.5563 46.0984 12.4568C44.6375 11.6652 43.5286 10.3522 42.993 8.77967C42.8781 8.43921 42.8325 8.07926 42.8587 7.72093C42.885 7.3626 42.9825 7.01312 43.1457 6.693C43.3867 6.33977 43.6952 6.03765 44.0534 5.80401C44.4116 5.57037 44.8125 5.40981 45.233 5.33158C45.9973 5.12844 46.8109 5.23354 47.4984 5.62422C48.0395 6.08329 48.3779 6.73698 48.4403 7.44369C48.6124 9.27066 48.1347 11.0998 47.0912 12.6095L46.8621 12.8003ZM46.073 5.87869C45.8376 5.87956 45.603 5.90515 45.373 5.95503C45.0355 6.01116 44.7128 6.13474 44.4241 6.31837C44.1354 6.50201 43.8868 6.74193 43.693 7.02381C43.4562 7.51736 43.4242 8.08448 43.6039 8.60154C44.0892 10.0092 45.0834 11.1846 46.3912 11.8969L46.6712 12.0369C47.5369 10.6975 47.9352 9.10936 47.8039 7.52003C47.7832 7.25494 47.7095 6.99669 47.587 6.76064C47.4646 6.52459 47.296 6.31553 47.0912 6.14589C46.7846 5.96057 46.431 5.86778 46.073 5.87869V5.87869Z" fill="#325AA9"/>
</svg>
