<svg width="130" height="70" fill="none" xmlns="http://www.w3.org/2000/svg"><path d="M12.24 69.836l-4.66-2.372-4.595 2.51.812-5.17L0 61.223l5.158-.837 2.248-4.718 2.373 4.656 5.183.674-3.685 3.695.962 5.144zm16.172 0l-4.67-2.372-4.584 2.51.8-5.17-3.797-3.582 5.17-.837 2.235-4.718 2.386 4.656 5.183.674-3.685 3.695.962 5.144zm17.072 0l-4.658-2.372-4.583 2.51.799-5.17-3.797-3.582 5.158-.837 2.248-4.718 2.386 4.656 5.182.674-3.684 3.695.95 5.144zm16.173 0L57 67.464l-4.596 2.51.812-5.17-3.797-3.582 5.158-.837 2.236-4.718 2.385 4.656 5.183.674-3.684 3.695.962 5.144zm16.486 0l-4.659-2.372-4.596 2.51.812-5.17-3.796-3.582 5.158-.837 2.248-4.718 2.373 4.656 5.182.674-3.684 3.695.962 5.144z" fill="#325AA9"/><path d="M25.215 14.98h7.144a.35.35 0 01.387.338c.062.574.15 1.136.162 1.71a16.574 16.574 0 01-1.424 7.603 13.822 13.822 0 01-5.882 6.242 15.104 15.104 0 01-6.407 1.86 16.978 16.978 0 01-6.481-.7A16.535 16.535 0 011.31 19.364 15.712 15.712 0 015.67 5.106 15.875 15.875 0 0114.862.249 15.73 15.73 0 0128.3 3.995c.562.499.562.499 0 1.06a73.299 73.299 0 00-2.073 2.16c-.462.462-.475.462-1 0a11.843 11.843 0 00-2.023-1.385 11.031 11.031 0 00-6.094-1.324 11.368 11.368 0 00-9.78 6.242 11.631 11.631 0 00-1.248 7.154 11.67 11.67 0 002.985 6.541 11.366 11.366 0 006.794 3.658 12.37 12.37 0 005.532-.35 9.853 9.853 0 005.495-4.032 9.836 9.836 0 001.35-3.845c0-.25-.063-.35-.325-.362h-9.991c-.3 0-.375-.087-.375-.4v-3.744c0-.338.075-.4.387-.412h7.218l.063.024zm71.211 7.266a7.014 7.014 0 00-1.174-4.032 5.269 5.269 0 00-4.608-2.384 5.422 5.422 0 00-4.471 2.421 6.703 6.703 0 00-1.162 5.131 6.092 6.092 0 002.573 4.22 5.41 5.41 0 007.643-1.386 6.64 6.64 0 001.25-4.007l-.05.037zm-.337 8.227c-.325 0-.412.213-.537.337a6.983 6.983 0 01-4.109 1.873 9.395 9.395 0 01-7.768-2.721 10.212 10.212 0 01-3.297-8.74 10.535 10.535 0 017.918-9.3 8.083 8.083 0 016.032.774c.545.314 1.045.7 1.486 1.149a.213.213 0 00.15 0c.1 0 .125-.088.125-.175v-1.061c0-.35.088-.313.362-.338h3.622c.362 0 .4.063.425.438V31.11a16.53 16.53 0 01-.337 3.508 10.52 10.52 0 01-1.25 3.134 8.192 8.192 0 01-4.208 3.62 10.844 10.844 0 01-7.943.125 10.064 10.064 0 01-5.508-5.144c0-.075 0-.15-.087-.224a.212.212 0 01.075-.225l.2-.125 3.347-1.373c.3-.125.337-.112.5.2a6.744 6.744 0 001.785 2.234 5.172 5.172 0 002.935 1.124 7.121 7.121 0 002.123-.175 4.784 4.784 0 003.535-3.333 7.039 7.039 0 00.424-1.998v-1.985zm-56.737-8.426a6.677 6.677 0 001.037 3.857 5.78 5.78 0 007.43 2.107 5.782 5.782 0 002.136-1.795 6.927 6.927 0 00.1-7.927 5.794 5.794 0 00-7.488-1.798 5.793 5.793 0 00-2.066 1.86 6.54 6.54 0 00-1.124 3.67l-.025.026zm5.108 10.711a9.993 9.993 0 01-8.742-5.905 10.508 10.508 0 015.225-14.326 10.52 10.52 0 015.566-.78 10.33 10.33 0 019.304 9.988c.148 2.37-.512 4.72-1.874 6.666a10.914 10.914 0 01-9.504 4.42l.025-.063zm23.617-4.132a5.898 5.898 0 004.508-2.16 6.927 6.927 0 00.25-8.177 5.52 5.52 0 00-4.833-2.497 5.585 5.585 0 00-5.096 3.171 6.652 6.652 0 000 6.38 5.718 5.718 0 005.208 3.258l-.037.025zm0 4.132a10.469 10.469 0 01-10.108-7.397 10.458 10.458 0 01-.37-4.425 10.272 10.272 0 017.968-8.951c2.44-.61 5.019-.327 7.268.799a9.99 9.99 0 015.658 7.677 10.483 10.483 0 01-5.959 11.342c-1.398.641-2.92.967-4.457.955zm46.271-10.987a.748.748 0 00.499-.112l8.318-3.446c.55-.237.575-.312.212-.823a3.743 3.743 0 00-1.149-1.024 4.571 4.571 0 00-3.247-.537 5.618 5.618 0 00-4.433 4.032 3.55 3.55 0 00-.2 1.91zm5.72 10.974a10.142 10.142 0 01-10.091-8.09 10.807 10.807 0 01-.093-4.85 10.807 10.807 0 012.041-4.4 9.652 9.652 0 0110.666-3.259 9.1 9.1 0 013.896 2.634 13.4 13.4 0 012.498 4.545.247.247 0 01-.048.294.252.252 0 01-.09.055l-.449.187-12.489 5.181c-.962.4-1.037.287-.35 1.249a5.107 5.107 0 004.209 2.297 5.87 5.87 0 005.121-2.372c.474-.612.437-.55 1.024-.163l2.585 1.736c.399.262.399.287.1.699a10.327 10.327 0 01-8.23 4.232l-.3.025zM103.22 16.679V2.222c0-1.149 0-1.024 1.012-1.024 1.011 0 1.923.05 2.872.05h.4c.125 0 .212.1.212.212.013.22.013.442 0 .662V31.21c0 .924.088.899-.874.899h-3.197c-.362 0-.425-.075-.45-.437v-14.98l.025-.013z" fill="#7A7C80"/></svg>