<svg width="99" height="70" fill="none" xmlns="http://www.w3.org/2000/svg"><path d="M12.21 69.863l-4.647-2.355L2.978 70l.81-5.158L0 61.266l5.146-.823 2.243-4.71 2.367 4.636 5.171.672-3.676 3.689.96 5.133zm16.136 0l-4.66-2.355L19.114 70l.797-5.158-3.788-3.576 5.159-.823 2.23-4.71 2.38 4.636 5.17.672-3.675 3.689.96 5.133zm17.034 0l-4.648-2.355L36.159 70l.797-5.158-3.788-3.576 5.146-.823 2.243-4.71 2.38 4.636 5.17.672-3.675 3.689.947 5.133zm16.135 0l-4.648-2.355L52.282 70l.81-5.158-3.788-3.576 5.146-.823 2.23-4.71 2.38 4.636 5.171.672-3.676 3.689.96 5.133zm16.447 0l-4.648-2.355L68.73 70l.81-5.158-3.788-3.576 5.146-.823 2.243-4.71 2.367 4.636 5.171.672-3.675 3.689.959 5.133z" fill="#325AA9"/><path d="M13.42 10.142v-6.59c0-.562 0-.562-.574-.562a14.778 14.778 0 00-2.23.075A4.984 4.984 0 006.604 6.33a9.756 9.756 0 00-.66 3.326 11.21 11.21 0 00.51 4.25 4.772 4.772 0 004.224 3.364c.823.087 1.657 0 2.492 0 .212 0 .25-.063.25-.262v-6.866zm3.526 6.23v16.124c0 .236 0 .299-.287.299h-2.953c-.224 0-.274-.063-.274-.275V20.484c0-.224 0-.299-.287-.286h-2.404a.324.324 0 00-.362.236L4.984 32.583a.361.361 0 01-.386.261H1.084c-.299 0-.299 0-.174-.261 1.885-4.153 3.775-8.307 5.669-12.46.087-.187.162-.386.262-.573.1-.187 0-.225-.1-.312a8.187 8.187 0 01-2.492-1.981 8.635 8.635 0 01-1.882-4.112 13.818 13.818 0 01.287-6.69 8.722 8.722 0 016.99-6.23A10.604 10.604 0 0111.724 0h4.985c.224 0 .262.062.262.274v16.198l-.025-.1zm4.597 4.872V9.956c0-.2 0-.262.25-.262h3.127c.2 0 .25 0 .25.249v9.32c0 .212.061.262.273.262h4.822c.2 0 .25 0 .237-.25V9.969c0-.2 0-.274.262-.274h3.065c.187 0 .224 0 .224.237v22.664c0 .2-.062.25-.25.25h-3.09c-.211 0-.26-.063-.26-.275v-9.83c0-.225 0-.287-.3-.287h-4.797c-.2 0-.237 0-.237.237v9.88c0 .2 0 .274-.261.274h-3.053c-.212 0-.262-.062-.262-.274V21.244zm25.506 0v-8.423c0-.187 0-.236-.224-.236H43.31c-.212 0-.274 0-.274.274a74.287 74.287 0 01-.586 10.528 29.055 29.055 0 01-1.483 6.23c-.075.187-.062.25.162.25h5.632c.224 0 .287 0 .287-.275v-8.385.037zm3.526-1.445v9.843c0 .2 0 .262.25.262h1.42c.124 0 .174 0 .174.162v7.152c0 .124 0 .174-.162.174h-2.89c-.188 0-.15-.112-.15-.224v-4.037c0-.212 0-.287-.274-.287h-9.42c-.2 0-.262 0-.262.25v4.074c0 .175 0 .224-.224.224h-2.741c-.187 0-.25 0-.25-.236v-7.003c0-.187 0-.262.237-.25.237.013.648 0 .972 0 .324 0 .237-.061.3-.21a23.916 23.916 0 001.345-4.71c.49-2.783.77-5.6.835-8.424.137-2.193.137-4.398.137-6.591 0-.2 0-.274.261-.274h10.243c.236 0 .261.075.261.274v9.83h-.062zm10.728-.649h2.766c.162 0 .2 0 .2-.21a20.83 20.83 0 00-.3-3.627 5.308 5.308 0 00-.847-2.193 1.832 1.832 0 00-1.246-.785 2.18 2.18 0 00-2.205.91 5.321 5.321 0 00-.847 1.944 21.663 21.663 0 00-.536 3.738c0 .174.075.162.187.162l2.828.062zm1.82 2.942h-4.561c-.212 0-.25 0-.25.249a16.373 16.373 0 00.586 4.46c.208.729.555 1.41 1.022 2.006a3.39 3.39 0 002.84 1.246 7.826 7.826 0 004.175-1.395c.212-.137.25-.087.311.112.225.773.461 1.545.686 2.318 0 .124 0 .199-.075.286a8.895 8.895 0 01-7.925 1.408 6.415 6.415 0 01-3.862-3.24 12.546 12.546 0 01-1.37-4.46 28.34 28.34 0 01.124-6.89 16.03 16.03 0 011.358-5.084 6.729 6.729 0 012.592-3.016 5.558 5.558 0 017.837 2.492 12.86 12.86 0 011.084 3.739 38.3 38.3 0 01.25 5.594c0 .187-.076.187-.213.187l-4.61-.012zM84.379 9.694l-1.408 2.691-4.212 7.975a.399.399 0 000 .448c2.118 3.913 4.212 7.85 6.317 11.775l.113.212c0 .074-.125 0-.187 0h-3.427a.399.399 0 01-.398-.237c-1.932-3.738-3.888-7.339-5.832-11.015a.699.699 0 00-.15-.2v11.165c0 .212 0 .287-.273.287h-3.078c-.187 0-.237 0-.237-.237V9.868c0-.174 0-.224.225-.224h3.115c.199 0 .261 0 .261.25v10.353l.112-.199 5.32-10.08a.349.349 0 01.35-.274h3.389zm13.245 19.088l.785 2.492a.187.187 0 01-.088.225 6.605 6.605 0 01-3.476 1.557 7.738 7.738 0 01-4.311-.548 6.952 6.952 0 01-3.314-3.227 13.279 13.279 0 01-1.246-4.286 24.668 24.668 0 01-.187-5.67 15.113 15.113 0 011.433-5.794 7.214 7.214 0 013.85-3.65 8.46 8.46 0 013.974-.449 7.09 7.09 0 012.978 1.034c.088 0 .162.112.137.25-.162 1.046-.311 2.105-.473 3.164-.25-.187-.486-.373-.748-.548a5.794 5.794 0 00-2.492-.984 3.29 3.29 0 00-3.252 1.445 7.962 7.962 0 00-1.246 3.227 21.793 21.793 0 00-.311 5.832c.043 1.298.244 2.587.598 3.837.212.78.572 1.511 1.059 2.156a3.1 3.1 0 002.604 1.246 5.806 5.806 0 003.738-1.246s.087-.112.187-.112l-.2.05z" fill="#7A7C80"/></svg>