<svg version="1.1" id="Слой_1" xmlns="http://www.w3.org/2000/svg" x="0" y="0" viewBox="0 0 12 12" xml:space="preserve"><style/><path d="M6.5.7c1.2.1 2.3.7 3.2 1.5 1 1.1 1.5 2.3 1.5 3.8 0 1.2-.5 2.3-1.2 3.3-.8.9-1.8 1.6-3 1.8-1.2.2-2.4.1-3.5-.5-1-.6-1.8-1.5-2.3-2.6-.4-1.1-.5-2.4-.1-3.5.4-1.2 1.1-2.2 2.1-2.8.9-.7 2.1-1 3.3-1zm.4 9.7c1-.2 1.9-.8 2.6-1.6.6-.8.9-1.8.9-2.8 0-1.2-.4-2.4-1.3-3.2-.8-.8-1.7-1.2-2.7-1.3-1-.1-2 .2-2.9.7S2.1 3.7 1.8 4.7c-.3 1-.3 2 .1 3S3.1 9.4 4 10c.9.5 1.9.6 2.9.4zM6 5.6l1.8-1.9.5.5-1.8 1.9L8.3 8l-.5.5L6 6.7 4.2 8.5 3.7 8l1.8-1.9-1.8-1.8.5-.5L6 5.6z"/></svg>