<svg width="15" height="15" fill="none" xmlns="http://www.w3.org/2000/svg"><path d="M13.152 14.422a12.978 12.978 0 01-9.172-3.798A12.937 12.937 0 01.193 1.46.986.986 0 011.23.425h2.615a.991.991 0 011.06 1.035c.007.88.155 1.754.437 2.588a1.174 1.174 0 01-.177 1l-1.626 1.54a11.195 11.195 0 004.512 4.493L9.536 9.6a.872.872 0 011.178-.188c.783.276 1.608.42 2.438.424a.991.991 0 011.037 1.035v2.493a.987.987 0 01-1.037 1.059zM1.23 1.014a.413.413 0 00-.448.446 12.374 12.374 0 003.625 8.738 12.416 12.416 0 008.745 3.636.413.413 0 00.472-.47v-2.518a.412.412 0 00-.472-.447 8.177 8.177 0 01-2.792-.459.33.33 0 00-.436.071l-1.779 1.8-.188-.106a11.842 11.842 0 01-5.042-5.046l-.106-.2 1.873-1.776a.67.67 0 00.082-.447 8.479 8.479 0 01-.471-2.776.411.411 0 00-.448-.446H1.23z"/></svg>