<svg width="15" height="15" fill="none" xmlns="http://www.w3.org/2000/svg"><path d="M7.798 14.235l-.238-.28-.173-.258-.443-.635a43.12 43.12 0 01-3.168-5.38 8.772 8.772 0 01-.724-2.13 4.027 4.027 0 01.184-2.001 4.642 4.642 0 01.998-1.737A4.67 4.67 0 015.874.656 4.485 4.485 0 019.117.441c.824.227 1.57.673 2.157 1.292a4.652 4.652 0 011.173 2.216c.213.899.13 1.842-.238 2.69a24.145 24.145 0 01-1.87 3.69 48.336 48.336 0 01-2.26 3.518l-.28.388zM7.766.785c-.575 0-1.144.126-1.665.366a4.13 4.13 0 00-2.346 2.561 3.288 3.288 0 00-.163 1.743c.133.674.358 1.325.67 1.937a42.84 42.84 0 003.136 5.38l.39.57a65.41 65.41 0 002.086-3.228A23.047 23.047 0 0011.7 6.456a3.782 3.782 0 00.216-2.378 4.136 4.136 0 00-1.061-1.981A4.166 4.166 0 008.912.957a3.899 3.899 0 00-1.146-.17z" fill="#7A7C80"/></svg>