<svg width="20" height="20" xmlns="http://www.w3.org/2000/svg"><path fill="#7C7A80" d="M19.9 10c0-2.6-1-5.1-2.9-7-1.9-1.9-4.4-2.9-7-2.9h-.1C8 .1 6.1.7 4.5 1.8 2.9 2.9 1.6 4.4.9 6.2.1 8-.1 10 .3 11.9c.4 2 1.3 3.7 2.7 5.1s3.1 2.3 5.1 2.7c1.9.4 3.9.2 5.7-.6 1.8-.7 3.4-2 4.4-3.6 1.1-1.6 1.7-3.5 1.7-5.5zm-1 0c0 1.8-.5 3.5-1.5 5s-2.4 2.6-4 3.3-3.4.9-5.2.5c-1.7-.3-3.3-1.2-4.6-2.5-1.3-1.3-2.1-2.8-2.5-4.6-.2-1.7-.1-3.5.6-5.1s1.8-3 3.3-4c1.5-1 3.2-1.5 5-1.5 2.4 0 4.6.9 6.3 2.6 1.7 1.7 2.6 3.9 2.6 6.3z"/><circle fill="#325AA9" cx="10" cy="10" r="5.4"/></svg>