<svg version="1.1" id="Слой_1" xmlns="http://www.w3.org/2000/svg" x="0" y="0" viewBox="0 0 12 12" xml:space="preserve"><style/><path d="M6 .7c-1.1 0-2.1.3-3 .9C2.2 2.2 1.5 3 1.1 4c-.4.9-.5 2-.3 3s.7 2 1.5 2.7S3.9 11 5 11.2c1 .2 2.1.1 3.1-.3s1.8-1.1 2.4-2c.6-.9.9-1.9.9-3 0-1.4-.6-2.8-1.6-3.8C8.8 1.2 7.4.7 6 .7zm0 10c-.9 0-1.8-.3-2.6-.8S2 8.6 1.7 7.8c-.4-.9-.5-1.8-.3-2.7.2-.9.6-1.7 1.3-2.4.7-.7 1.5-1.1 2.4-1.3.9-.2 1.8-.1 2.7.3s1.6 1 2.1 1.7c.5.8.8 1.7.8 2.6 0 1.2-.5 2.4-1.4 3.3-.9.9-2.1 1.4-3.3 1.4z"/><path d="M9.3 4s-.1-.1-.2-.1-.2.1-.2.1L5.2 7.7l-2-2c-.1 0-.2-.1-.3-.1-.1 0-.2 0-.2.1-.1.1-.1.1-.1.2s0 .2.1.2l2.5 2.5 4.2-4.2.1-.1v-.2c-.1 0-.1 0-.2-.1z"/></svg>