<svg version="1.1" id="Слой_1" xmlns="http://www.w3.org/2000/svg" x="0" y="0" viewBox="0 0 12 12" xml:space="preserve"><style/><path d="M6 9.8c.2 0 .4-.2.4-.4S6.2 9 6 9s-.4.2-.4.4.2.4.4.4zm0-1.6c-.1 0-.2 0-.2-.1-.1-.1-.1-.1-.1-.2v-4c0-.1 0-.2.1-.2l.2-.2s.2 0 .2.1c.1.1.1.1.1.2v4c0 .1 0 .2-.1.2 0 .2-.1.2-.2.2z"/><path d="M5.1 1.2c.1-.2.2-.3.4-.4.1-.1.3-.1.5-.1s.4.1.5.1c.2.1.3.2.4.4l4.6 8.5c.1.2.1.3.1.5s-.1.4-.2.5c-.1.2-.2.3-.4.4-.2.1-.3.1-.5.1H1.4c-.2 0-.4 0-.5-.1s-.4-.1-.5-.3c-.1-.2-.2-.3-.2-.5s0-.4.1-.5l4.8-8.6zM1 10.1c0 .1-.1.1 0 .2 0 .1 0 .1.1.2 0 .1.1.1.2.1h9.5c.1 0 .1 0 .2-.1.1 0 .1-.1.1-.1 0-.1.1-.1.1-.2V10L6.4 1.5c0-.1-.1-.1-.1-.2-.1.1-.2 0-.3 0-.1 0-.1 0-.2.1-.1 0-.1.1-.1.2L1 10.1z"/></svg>