<svg width="15" height="15" viewBox="0 0 15 15" fill="none" xmlns="http://www.w3.org/2000/svg">
<path d="M13.1525 14.4216C11.4487 14.4216 9.76156 14.0862 8.18771 13.4345C6.61386 12.7829 5.18417 11.8278 3.98047 10.624C2.77676 9.42009 1.82267 7.99108 1.17278 6.41871C0.522896 4.84633 0.189976 3.16144 0.193074 1.46047C0.186334 1.32277 0.208536 1.18519 0.258253 1.05657C0.30797 0.927949 0.384101 0.81114 0.481751 0.713655C0.5794 0.61617 0.696406 0.540167 0.825243 0.490534C0.954081 0.440901 1.0919 0.418736 1.22983 0.425465H3.84528C3.98512 0.41529 4.12554 0.434897 4.25722 0.482988C4.3889 0.531078 4.50883 0.606554 4.60909 0.704414C4.70934 0.802275 4.78762 0.920287 4.83874 1.05063C4.88986 1.18097 4.91265 1.32067 4.9056 1.46047C4.91242 2.34061 5.05956 3.21405 5.34151 4.04799C5.38871 4.21723 5.39734 4.39487 5.36675 4.56787C5.33617 4.74087 5.26716 4.90483 5.16479 5.04772L3.53897 6.58847C4.57569 8.49057 6.1432 10.0513 8.05121 11.0813L9.53566 9.5994C9.67129 9.42442 9.86858 9.30756 10.0874 9.27261C10.3063 9.23765 10.5302 9.28722 10.7138 9.41122C11.4973 9.68721 12.3216 9.83033 13.1525 9.83463C13.2905 9.8279 13.4283 9.85007 13.5571 9.8997C13.6859 9.94934 13.8029 10.0253 13.9006 10.1228C13.9982 10.2203 14.0744 10.3371 14.1241 10.4657C14.1738 10.5944 14.196 10.7319 14.1893 10.8696V13.3631C14.1995 13.5027 14.1798 13.6429 14.1317 13.7743C14.0835 13.9058 14.0079 14.0255 13.9099 14.1256C13.8118 14.2257 13.6936 14.3038 13.5631 14.3549C13.4325 14.4059 13.2926 14.4286 13.1525 14.4216ZM1.22983 1.01354C1.16968 1.00813 1.10907 1.01597 1.0523 1.03652C0.995518 1.05707 0.943954 1.08981 0.901249 1.13245C0.858545 1.17508 0.825742 1.22656 0.80516 1.28324C0.784578 1.33992 0.77672 1.40043 0.78214 1.46047C0.785243 4.73699 2.0888 7.87876 4.40734 10.1978C6.72589 12.5169 9.87049 13.8242 13.1525 13.8335C13.2167 13.8436 13.2824 13.8383 13.3441 13.8183C13.4059 13.7982 13.462 13.7638 13.508 13.7179C13.5539 13.6721 13.5884 13.616 13.6085 13.5544C13.6286 13.4927 13.6338 13.4271 13.6238 13.3631V10.8461C13.6298 10.7839 13.6216 10.721 13.5997 10.6624C13.5778 10.6038 13.5428 10.551 13.4974 10.5079C13.4519 10.4648 13.3973 10.4326 13.3375 10.4138C13.2778 10.3949 13.2145 10.39 13.1525 10.3992C12.2021 10.4097 11.2572 10.2545 10.3603 9.94049C10.2918 9.89638 10.2093 9.87918 10.1288 9.89221C10.0483 9.90524 9.97551 9.94758 9.92444 10.0111L8.14546 11.8106L7.95696 11.7047C5.79663 10.5802 4.03593 8.81835 2.91456 6.65904L2.80853 6.45909L4.68176 4.68311C4.76053 4.54826 4.7897 4.3902 4.76422 4.23618C4.45353 3.34356 4.29426 2.40544 4.29297 1.46047C4.29839 1.40043 4.29053 1.33992 4.26995 1.28324C4.24937 1.22656 4.21657 1.17508 4.17386 1.13245C4.13116 1.08981 4.07959 1.05707 4.02282 1.03652C3.96604 1.01597 3.90543 1.00813 3.84528 1.01354H1.22983Z" fill="#7A7C80"/>
</svg>
