<svg width="15" height="15" viewBox="0 0 15 15" fill="none" xmlns="http://www.w3.org/2000/svg">
<path d="M7.79809 14.2349L7.56024 13.9551L7.38726 13.6969L6.94398 13.0621C5.75912 11.3472 4.70044 9.54926 3.7762 7.68237C3.44419 7.006 3.20075 6.29004 3.05183 5.55201C2.94298 4.88016 3.0062 4.19184 3.23563 3.55075C3.43787 2.90668 3.77861 2.31414 4.23417 1.81433C4.68973 1.31452 5.24917 0.919415 5.87364 0.65647C6.88922 0.181731 8.04718 0.104906 9.1171 0.441281C9.94103 0.667688 10.6869 1.11427 11.274 1.73259C11.861 2.35091 12.2667 3.11737 12.4471 3.94885C12.6598 4.84765 12.5764 5.7907 12.2092 6.63871C11.6927 7.91973 11.0669 9.1544 10.3388 10.3292C9.6793 11.4589 8.94412 12.6209 8.07919 13.8475L7.79809 14.2349ZM7.76566 0.785583C7.19055 0.785664 6.62237 0.910502 6.10068 1.1514C5.54585 1.38248 5.04842 1.73137 4.64319 2.17368C4.23795 2.61599 3.93468 3.14105 3.75458 3.71215C3.54399 4.26807 3.48797 4.87022 3.59241 5.45517C3.72458 6.12853 3.95018 6.78034 4.26272 7.39187C5.17564 9.25825 6.22351 11.0562 7.39807 12.7716L7.78728 13.3418C8.57652 12.2013 9.25765 11.1254 9.87391 10.114C10.5904 8.95072 11.2018 7.72653 11.7011 6.4558C12.0281 5.70693 12.1039 4.8731 11.9173 4.07797C11.7535 3.33293 11.3862 2.64735 10.8558 2.09679C10.3255 1.54624 9.65274 1.15207 8.91168 0.957734C8.54048 0.843593 8.15417 0.785562 7.76566 0.785583V0.785583Z" fill="#7A7C80"/>
</svg>
