<svg width="20" height="20" xmlns="http://www.w3.org/2000/svg" viewBox="0 0 20 20">
<g>
	<path fill="#7C7A80" d="M19.9,10L19.9,10c0-2.6-1-5.1-2.9-7c-1.9-1.9-4.4-2.9-7-2.9h0l-0.1,0v0C8,0.1,6.1,0.7,4.5,1.8C2.9,2.9,1.6,4.4,0.9,6.2C0.1,8-0.1,10,0.3,11.9C0.7,13.9,1.6,15.6,3,17s3.1,2.3,5.1,2.7c1.9,0.4,3.9,0.2,5.7-0.6c1.8-0.7,3.4-2,4.4-3.6C19.3,13.9,19.9,12,19.9,10z M18.9,10c0,1.8-0.5,3.5-1.5,5c-1,1.5-2.4,2.6-4,3.3s-3.4,0.9-5.2,0.5c-1.7-0.3-3.3-1.2-4.6-2.5c-1.3-1.3-2.1-2.8-2.5-4.6C0.9,10,1,8.2,1.7,6.6s1.8-3,3.3-4c1.5-1,3.2-1.5,5-1.5c2.4,0,4.6,0.9,6.3,2.6C18,5.4,18.9,7.6,18.9,10z"/>
</g>
<circle fill="#325AA9" cx="10" cy="10" r="5.4"/>
</svg>
