<svg version="1.0" xmlns="http://www.w3.org/2000/svg" width="1280" height="1280" viewBox="0 0 960 960"><path d="M0 480v256h432.8l13.3-24.7c7.3-13.7 16.9-31.6 21.4-39.8 4.5-8.3 46.3-86.2 93-173.3 46.7-87 85.2-158.2 85.5-158.2.3 0 38.3 70.3 84.5 156.3l84.1 156.2-9.1.6c-4.9.4-41.2.7-80.6.8-39.4 0-85.1.4-101.5.8l-30 .6-20.9 39.4c-11.6 21.6-21.1 39.8-21.3 40.3-.2.7 71.9 1 204.2 1 112.5 0 204.6-.3 204.6-.8 0-.4-61.5-115.5-136.5-255.7l-136.4-255-40.9-.3-40.8-.2-68.3 127.7c-37.6 70.3-68.6 128.2-69 128.6-.4.4-3.3-2.5-6.4-6.5-20.3-26.6-52.9-46.3-88.9-53.8-20.8-4.3-20.7-4.3-151.6-4.7L95 414.9l.2-54.7.3-54.7 177.3-.3L450 305v-81H0v256zm340 18.1c35.2 4.4 55.7 29.7 57.7 71.5 1.9 38.2-10.9 66.1-35.7 78.2-15.4 7.5-9.3 7.2-145.5 7.2H95v-78.3c0-43.1.3-78.7.7-79 1.1-1.2 234.9-.8 244.3.4z"/></svg>