<?xml version="1.0" standalone="no"?>
<!DOCTYPE svg PUBLIC "-//W3C//DTD SVG 20010904//EN"
 "http://www.w3.org/TR/2001/REC-SVG-20010904/DTD/svg10.dtd">
<svg version="1.0" xmlns="http://www.w3.org/2000/svg"
 width="960.000000pt" height="960.000000pt" viewBox="0 0 960.000000 960.000000"
 preserveAspectRatio="xMidYMid meet">
<metadata>
Created by potrace 1.14, written by Peter Selinger 2001-2017
</metadata>
<g transform="translate(0.000000,960.000000) scale(0.100000,-0.100000)"
fill="#000000" stroke="none">
<path d="M0 4800 l0 -2560 2164 0 2164 0 133 247 c73 137 169 316 214 398 45
83 463 862 930 1733 467 870 852 1582 855 1582 3 0 383 -703 845 -1563 l841
-1562 -91 -6 c-49 -4 -412 -7 -806 -8 -394 0 -851 -4 -1015 -8 l-300 -6 -209
-394 c-116 -216 -211 -398 -213 -403 -2 -7 719 -10 2042 -10 1125 0 2046 3
2046 8 0 4 -615 1155 -1365 2557 l-1364 2550 -409 3 -408 2 -683 -1277 c-376
-703 -686 -1282 -690 -1286 -4 -4 -33 25 -64 65 -203 266 -529 463 -889 538
-208 43 -207 43 -1516 47 l-1262 4 2 547 3 547 1773 3 1772 2 0 405 0 405
-2250 0 -2250 0 0 -2560z m3400 -181 c352 -44 557 -297 577 -715 19 -382 -109
-661 -357 -782 -154 -75 -93 -72 -1455 -72 l-1215 0 0 783 c0 431 3 787 7 790
11 12 2349 8 2443 -4z"/>
</g>
</svg>
