<svg width="35" height="35" fill="none" xmlns="http://www.w3.org/2000/svg"><path d="M17.5 10.55a6.96 6.96 0 00-3.871 1.177 6.99 6.99 0 00-1.056 10.74 6.964 6.964 0 007.593 1.513 6.97 6.97 0 003.128-2.571 6.988 6.988 0 001.174-3.878 6.999 6.999 0 00-2.044-4.932A6.974 6.974 0 0017.5 10.55zm5.587 6.98a5.59 5.59 0 01-6.677 5.489 5.584 5.584 0 01-4.39-4.397 5.606 5.606 0 012.376-5.745 5.58 5.58 0 018.265 2.512c.281.679.426 1.407.426 2.142z" fill="#325AA9"/><path d="M34.383 13.145l-.061-.111h-4.008a13.54 13.54 0 00-.716-1.656l2.64-3.298-.062-.1a15.571 15.571 0 00-2.356-2.89 15.95 15.95 0 00-3.453-2.557l-.099-.062-2.922 2.792c-.488-.235-.99-.437-1.505-.605L21.46.383h-.111A18.37 18.37 0 0017.5 0c-1.328.022-2.648.2-3.934.531h-.123v3.954c-.62.197-1.226.436-1.813.716L8.768 2.347l-.135.124a16.847 16.847 0 00-2.96 2.137c-1 .925-1.886 1.966-2.64 3.101v.087L5.5 11.329c-.29.561-.537 1.144-.74 1.742H.666v.111A15.826 15.826 0 000 17.531c.01 1.314.188 2.622.53 3.891v.111h3.996c.231.735.52 1.45.863 2.138L2.664 26.92v.099a17.738 17.738 0 001.69 2.15 18.421 18.421 0 003.428 2.952l.086.074 3.305-2.594c.738.392 1.51.715 2.307.963l.086 4.028h.11c.71.143 1.426.25 2.147.321.333 0 .999.087 1.739.087a19.81 19.81 0 004.07-.408h.123v-4.139a13.165 13.165 0 002.109-.89l3.268 2.558h.098a17.12 17.12 0 005.007-5.053l.062-.099-2.7-3.298c.352-.694.645-1.418.875-2.162h4.057v-.124c.306-1.262.46-2.556.457-3.854a16.092 16.092 0 00-.605-4.386zm-3.835 13.85a16.158 16.158 0 01-3.416 3.434l-3.244-2.545h-.098c-.51.336-1.041.637-1.591.901-.575.256-1.169.467-1.776.63h-.111v3.966a16.298 16.298 0 01-5.476 0v-3.953h-.11a14.194 14.194 0 01-1.888-.655c-.59-.25-1.16-.547-1.702-.89h-.098L7.807 30.43a15.926 15.926 0 01-3.367-3.447l2.627-3.163-.062-.099a13.804 13.804 0 01-.839-1.655c-.25-.59-.455-1.197-.616-1.816v-.111H1.59a17.326 17.326 0 01-.209-2.607c0-1.033.104-2.064.309-3.076h3.983v-.112c.149-.542.343-1.071.58-1.581.224-.48.484-.942.777-1.384v-.086L4.563 7.759a16.043 16.043 0 013.984-3.645l2.848 2.817h.099c.513-.28 1.04-.53 1.579-.754a16.65 16.65 0 011.726-.593h.111V1.606a15.747 15.747 0 015.328 0l.37 4.102h.098c.474.127.94.283 1.394.47.48.185.945.404 1.394.654h.098l2.948-2.78a16.516 16.516 0 013.996 3.978l-2.603 3.225v.086c.283.46.534.94.753 1.433.22.512.41 1.036.567 1.57v.11h4.045c.205 1.013.308 2.044.308 3.077a17.124 17.124 0 01-.21 2.607H29.45v.11c-.16.62-.367 1.227-.616 1.817a15.96 15.96 0 01-.827 1.655l-.061.099 2.602 3.175z" fill="#325AA9"/></svg>