<svg width="54" height="36" fill="none" xmlns="http://www.w3.org/2000/svg"><path d="M53.413 16.597H34.246l5.491-5.381-.93-.942-.11.11c-.684.673-6.69 6.641-6.836 6.825l-.074.098.086.098c.134.159 6.543 6.934 6.812 7.228l.098.11.967-.917-5.59-5.908h19.252v-1.32zm-31.863.612c-.158-.184-6.115-6.116-6.836-6.825l-.11-.11-.93.942 5.48 5.381H0v1.321h19.24l-5.578 5.908.954.917.11-.11 6.813-7.228.085-.098-.073-.098zM36.008 5.467a.636.636 0 00-.685-.367l-5.443.832L27.752.428a.66.66 0 00-1.223 0l-2.165 5.687-5.443-.379a.636.636 0 00-.648.38.648.648 0 00.135.746l3.669 3.669a.623.623 0 00.465.195.646.646 0 00.464-.195.66.66 0 000-.93L20.56 7.155l4.171.294a.66.66 0 00.611-.428l1.713-4.477 1.7 4.391a.66.66 0 00.722.416l3.914-.624-2.814 2.58a.66.66 0 000 .93.611.611 0 00.465.208.599.599 0 00.465-.171l4.342-4.036a.636.636 0 00.159-.77zm-.025 23.313l-4.342-4.037a.66.66 0 00-.464-.183.673.673 0 00-.465.22.599.599 0 00-.171.465.61.61 0 00.207.464l2.765 2.569-3.829-.575a.66.66 0 00-.721.416l-1.7 4.39-1.713-4.476a.636.636 0 00-.66-.428l-4.17.294 2.445-2.447a.673.673 0 00.148-.723.65.65 0 00-.612-.402.66.66 0 00-.465.184l-3.67 3.669a.661.661 0 00.514 1.125l5.382-.342 2.152 5.626a.66.66 0 00.612.428.66.66 0 00.612-.428l2.128-5.504 5.442.832a.672.672 0 00.685-.367.637.637 0 00-.11-.77z" fill="#325AA9"/></svg>