<svg width="33" height="35" fill="none" xmlns="http://www.w3.org/2000/svg"><path d="M31.188.667l-.067.134a9.904 9.904 0 01-7.258 3.17A9.842 9.842 0 0116.672.555l-.322-.29h-.056L15.916 0l-.267.323a9.881 9.881 0 01-7.157 3.414h-.178a9.82 9.82 0 01-7.07-3.17L1.112.434H0v16.182c.02.44.072.88.156 1.312a26.074 26.074 0 004.857 9.153 26.074 26.074 0 0010.48 7.396v.09l.134-.056.256.1.144.389.4-.145a26.32 26.32 0 0010.87-7.562 25.4 25.4 0 004.891-9.265c.056-.189.145-1.179.145-1.223V.645l-1.145.022zm-.311 2.225v14.024a6.925 6.925 0 01-.112.823 24.55 24.55 0 01-4.579 8.664 24.096 24.096 0 01-9.747 6.962l-.178-.056-.122-.333-.09.245a24.797 24.797 0 01-9.903-6.996 24.206 24.206 0 01-4.568-8.608 8.37 8.37 0 01-.11-1.201V2.68c.69.534 1.434.993 2.222 1.368A10.942 10.942 0 008.625 5.16a11.3 11.3 0 007.514-3.191 11.344 11.344 0 007.78 3.414 11.11 11.11 0 006.957-2.47v-.021z" fill="#325AA9"/><path d="M25.508 9.198L15.372 21.81l-4.88-6.306-1.134.867 5.991 7.73 11.27-14.014-1.111-.89z" fill="#325AA9"/></svg>