<svg width="52" height="35" fill="none" xmlns="http://www.w3.org/2000/svg"><path d="M36.298 34.672H27.58l-.369-3.6a23.537 23.537 0 01-9.05 0l-.343 3.6H9.075l.865-7.048a15.957 15.957 0 01-4.39-4.72H2.405A2.09 2.09 0 01.318 20.79v-5.637a2.087 2.087 0 012.088-2.086h1.883a13.69 13.69 0 013.246-5.522 9.96 9.96 0 00-.586-2.876A10.251 10.251 0 004.684 1.03l-.65-.66h.93A17.607 17.607 0 019.8.815c1.72.417 3.365 1.1 4.875 2.023l.534-.127a38.281 38.281 0 017.395-1.183c10.385 0 18.836 6.73 18.836 15a13.828 13.828 0 01-6.02 10.994l.878 7.15zm-7.967-.84h7.025l-.827-6.692.204-.153A13.044 13.044 0 0040.6 16.541C40.6 8.73 32.531 2.38 22.604 2.38A37.085 37.085 0 0015.4 3.538c-.802.178-1.005.229-1.133 0A16.052 16.052 0 009.61 1.629a16.55 16.55 0 00-3.703-.483 11.45 11.45 0 011.832 3.232 10.88 10.88 0 01.637 3.32v.166l-.128.127a12.99 12.99 0 00-3.258 5.611l-.076.306H2.367a1.273 1.273 0 00-1.272 1.272v5.636a1.272 1.272 0 001.272 1.273h3.666l.114.216a15.268 15.268 0 004.48 4.835l.204.14-.814 6.603h7.025l.382-3.74.458.102c3.166.687 6.443.687 9.609 0l.445-.102.395 3.69z" fill="#325AA9"/><path d="M36.655 34.99H27.3l-.369-3.537a23.796 23.796 0 01-8.489 0l-.37 3.537H8.719l.891-7.227a16.16 16.16 0 01-4.238-4.568H2.406A2.406 2.406 0 010 20.791v-5.637a2.404 2.404 0 012.406-2.43h1.641a14.262 14.262 0 013.157-5.293 9.426 9.426 0 00-.547-2.66 9.937 9.937 0 00-2.202-3.498L3.309.077 4.951 0a17.746 17.746 0 019.775 2.545l.407-.089a37.936 37.936 0 017.47-1.183c10.564 0 19.155 6.87 19.155 15.268a14.106 14.106 0 01-6.007 11.133l.904 7.316zm-8.782-.636h8.069l-.865-6.973.152-.114a13.54 13.54 0 005.893-10.726c0-8.092-8.311-14.683-18.518-14.683-2.475.152-4.93.54-7.331 1.158l-.662.153-.115-.064A17.146 17.146 0 009.724 1.12 17.009 17.009 0 004.976.65H4.76l.153.152a10.738 10.738 0 012.342 3.753c.347.957.549 1.961.598 2.978v.102l-.09.127a13.473 13.473 0 00-3.168 5.407l-.077.217H2.406a1.77 1.77 0 00-1.77 1.768v5.637a1.768 1.768 0 001.77 1.768h3.321l.102.153a15.664 15.664 0 004.353 4.657l.153.102-.904 6.883h8.07l.381-3.639.344.064c2.94.59 5.968.59 8.909 0l.343-.064.395 3.64zm7.84-.19H28l-.394-3.716h-.102a23.043 23.043 0 01-9.686.089h-.114l-.382 3.69H9.686l.827-6.782a15.13 15.13 0 01-4.57-4.937H2.407a1.578 1.578 0 01-1.579-1.717v-5.637a1.577 1.577 0 011.579-1.565H4.67v-.076a13.245 13.245 0 013.36-5.738 10.469 10.469 0 00-.624-3.207 10.713 10.713 0 00-1.781-3.143L5.218.827h.688a18.09 18.09 0 013.818.484 17.273 17.273 0 014.747 1.972l.09.09c.24-.042.478-.097.712-.166a38.458 38.458 0 017.28-1.158c10.105 0 18.314 6.489 18.314 14.48a13.407 13.407 0 01-5.994 10.725l.84 6.91zm-7.09-.637h6.364l-.801-6.54.343-.254a12.725 12.725 0 005.74-10.18c0-7.633-7.929-13.842-17.678-13.842a37.593 37.593 0 00-7.127 1.145c-.84.19-1.171.267-1.426 0a16.153 16.153 0 00-4.505-1.922 16.868 16.868 0 00-2.966-.445 11.653 11.653 0 011.464 2.787c.395 1.078.618 2.211.662 3.359v.305l-.216.229a12.57 12.57 0 00-3.182 5.458l-.14.547h-2.75a.942.942 0 00-.941.93v5.636a.941.941 0 00.942.929h3.818l.203.381a14.952 14.952 0 004.379 4.733l.369.242-.802 6.451h6.364l.394-3.817.802.166c3.12.68 6.35.68 9.469 0l.802-.179.42 3.881z" fill="#325AA9"/><path d="M9.545 14.455a.408.408 0 01-.407-.458 3.41 3.41 0 01.713-1.693 3.538 3.538 0 011.693-1.17.42.42 0 01.521.317.408.408 0 01-.267.522c-.5.165-.941.47-1.273.878a2.546 2.546 0 00-.534 1.273.433.433 0 01-.42.356" fill="#325AA9"/><path d="M9.546 14.773h-.102a.764.764 0 01-.535-.28.776.776 0 01-.089-.497 3.918 3.918 0 01.776-1.908 3.818 3.818 0 011.859-1.26.738.738 0 01.865 1.043.763.763 0 01-.433.357 2.33 2.33 0 00-1.616 1.908.725.725 0 01-.725.637zm2.125-3.321a3.22 3.22 0 00-1.54 1.056c-.352.43-.589.942-.687 1.488l.089.102a.114.114 0 00.102-.076 2.9 2.9 0 01.61-1.45c.37-.467.871-.813 1.439-.993l.076-.127a.09.09 0 00-.089 0zM42 15.46a8.91 8.91 0 01-1.082-.065.42.42 0 01-.369-.457.446.446 0 01.471-.37 6.366 6.366 0 004.798-1.17l.357-.306-.357-.178a7.087 7.087 0 01-3.322-4.008 3.155 3.155 0 01.204-2.48 3.819 3.819 0 012.43-1.591 3.425 3.425 0 012.66.369 3.04 3.04 0 011.16 2.163 8.268 8.268 0 01-1.274 5.293 6.365 6.365 0 003.386-.344.405.405 0 01.534.242.42.42 0 01-.241.534 7.078 7.078 0 01-4.226.293c-.214.24-.448.461-.7.662A6.823 6.823 0 0142 15.459zm4.073-9.9a3.208 3.208 0 00-.764.09 2.826 2.826 0 00-1.883 1.208 2.391 2.391 0 00-.153 1.832 6.273 6.273 0 002.952 3.486c.177.094.36.175.548.242a7.543 7.543 0 001.272-4.937 2.263 2.263 0 00-.814-1.59 2.177 2.177 0 00-1.273-.33" fill="#325AA9"/><path d="M42 15.778a8.253 8.253 0 01-1.12-.064.726.726 0 01-.636-.814.738.738 0 01.802-.65 6.174 6.174 0 004.556-1.08 7.443 7.443 0 01-3.462-4.161 3.447 3.447 0 01.242-2.736 4.11 4.11 0 012.673-1.756 3.82 3.82 0 012.914.42 3.346 3.346 0 011.273 2.392 8.587 8.587 0 01-1.107 5.09 5.945 5.945 0 002.774-.408.739.739 0 01.942.433.71.71 0 01-.42.942 7.524 7.524 0 01-4.238.356c-.19.203-.395.382-.598.56A7.205 7.205 0 0142 15.778zm-1.03-.891a.114.114 0 00-.102.089.102.102 0 00.089.102A7.17 7.17 0 0042 15.14a6.594 6.594 0 004.15-1.335c.228-.195.445-.403.648-.624l.128-.153h.19a6.988 6.988 0 004.035-.28.103.103 0 00.094-.011.102.102 0 00-.094-.18 6.734 6.734 0 01-3.55.357l-.51-.038.255-.395a8 8 0 001.272-5.09 2.697 2.697 0 00-1.018-1.92 3.068 3.068 0 00-2.405-.382 3.386 3.386 0 00-2.215 1.463 2.812 2.812 0 00-.178 2.227 6.706 6.706 0 003.207 3.817l.344.165.433.178-.344.331c-.117.121-.24.236-.369.344a6.772 6.772 0 01-5.09 1.272h-.014zm5.892-2.087l-.178-.076a5.984 5.984 0 01-.586-.267 6.604 6.604 0 01-3.105-3.677 2.696 2.696 0 01.153-2.087 3.245 3.245 0 012.087-1.361 3.017 3.017 0 012.265.292c.541.46.88 1.113.942 1.82a7.799 7.799 0 01-1.349 5.166l-.229.19zm-.789-6.921c-.235 0-.47.026-.7.076a2.546 2.546 0 00-1.68 1.069 2.074 2.074 0 00-.09 1.578 5.967 5.967 0 002.788 3.295l.28.14a7.225 7.225 0 001.133-4.517 1.984 1.984 0 00-.713-1.374 1.859 1.859 0 00-1.018-.267z" fill="#325AA9"/></svg>