<svg width="33" height="35" fill="none" xmlns="http://www.w3.org/2000/svg"><path d="M31.177.667l-.112.134a9.87 9.87 0 01-7.246 3.17A9.876 9.876 0 0116.616.555l-.277-.29h-.056L15.905 0l-.267.323a9.815 9.815 0 01-7.146 3.414h-.178a9.831 9.831 0 01-7.08-3.17L1.11.434H0v16.182c.014.44.066.88.156 1.312a25.885 25.885 0 004.857 9.153 25.985 25.985 0 0010.492 7.396v.09l.144-.056.256.1.144.389.39-.145a26.286 26.286 0 0010.88-7.562 25.586 25.586 0 004.858-9.242c0-.19.144-1.18.144-1.224V.645l-1.144.022zm-.3 2.225v14.024c-.02.277-.06.552-.123.823a24.55 24.55 0 01-4.579 8.664 24.196 24.196 0 01-9.748 6.962l-.166-.056-.122-.333-.1.245a24.84 24.84 0 01-9.893-6.996 24.229 24.229 0 01-4.579-8.608c-.056-.398-.09-.8-.1-1.201V2.68c.653.53 1.361.99 2.112 1.368A10.97 10.97 0 008.514 5.16a11.244 11.244 0 007.513-3.191 11.367 11.367 0 007.78 3.414 11.11 11.11 0 007.07-2.47v-.021z" fill="#325AA9"/><path d="M25.508 9.197L15.372 21.81l-4.88-6.306-1.133.868 5.99 7.73 11.27-14.014-1.11-.89z" fill="#325AA9"/></svg>