<svg width="36" height="36" fill="none" xmlns="http://www.w3.org/2000/svg"><path d="M26.543 19.995l-.097-.108-3.137 3.201-2.015-2.199 5.442-5.352h.736a7.78 7.78 0 005.498-2.278 7.798 7.798 0 002.283-5.503 7.912 7.912 0 00-.434-2.549 1.002 1.002 0 00-.567-.713h-.085l-4.234 4.132-2.98-.954-.519-2.743 3.402-3.516.435-.47-.7-.629h-.06a7.735 7.735 0 00-6.762 1.322 7.754 7.754 0 00-3.035 6.193 4.836 4.836 0 000 .58l-5.477 5.376-6.78-6.44L10.05 4.93 2.944.507 0 3.226l3.97 7.104.084.169 2.413-2.223 6.804 6.464L1.496 26.29a4.954 4.954 0 00-1.12 5.39 4.955 4.955 0 001.06 1.617l.084.097a4.967 4.967 0 006.998.06l11.811-11.61 2.04 2.223-2.933 2.984 6.37 6.512a4.922 4.922 0 003.487 1.474 4.895 4.895 0 003.463-1.426l.096-.084a4.97 4.97 0 001.472-3.492 4.91 4.91 0 00-1.363-3.455l-6.418-6.585zM7.806 5.16L4.404 8.312 1.714 3.48l1.399-1.256L7.806 5.16zm13.271 3.407a6.157 6.157 0 010-.773c0-1.703.675-3.336 1.876-4.541a6.414 6.414 0 014.53-1.887h.471L25.01 4.434h-.06l.796 4.156v.085l4.537 1.461 3.498-3.382a6.432 6.432 0 01-1.796 5.572 6.414 6.414 0 01-4.526 1.882 6.296 6.296 0 01-.916-.072h-.35l-.314.338L7.553 32.476a3.51 3.51 0 01-2.498 1.027 3.543 3.543 0 01-2.521-1.076l-.121-.096a3.627 3.627 0 010-5.063L20.788 9.255h.06l.326-.29-.097-.4zm11.884 21.47a3.627 3.627 0 01-1.025 2.585l-.097.096a3.426 3.426 0 01-2.534 1.015 3.617 3.617 0 01-2.521-1.111l-5.43-5.558 5.104-5.207 5.526 5.654a3.505 3.505 0 011.025 2.525h-.048z" fill="#325AA9"/></svg>