<svg width="35" height="35" fill="none" xmlns="http://www.w3.org/2000/svg"><path d="M17.5 34.698A17.198 17.198 0 1134.698 17.5 17.21 17.21 0 0117.5 34.698zm0-33.37A16.172 16.172 0 1033.672 17.5 16.184 16.184 0 0017.5 1.328z" fill="#325AA9"/><path d="M17.5 35A17.5 17.5 0 1135 17.5 17.512 17.512 0 0117.5 35zm0-34.397a16.897 16.897 0 100 33.793 16.897 16.897 0 000-33.793zm0 33.371A16.474 16.474 0 1133.974 17.5 16.498 16.498 0 0117.5 33.974zm0-32.345A15.87 15.87 0 1033.37 17.5 15.895 15.895 0 0017.5 1.63z" fill="#325AA9"/><path d="M17.5 18.019a.47.47 0 01-.253-.072L9.16 13.276a.526.526 0 11.495-.93l7.773 4.55 9.438-9.111a.531.531 0 01.736 0 .519.519 0 010 .724l-9.74 9.365a.531.531 0 01-.362.145z" fill="#325AA9"/><path d="M17.5 18.32a.807.807 0 01-.41-.12l-8.074-4.707a.809.809 0 01-.29-1.11.796.796 0 011.11-.314l7.543 4.405L26.66 7.52a.7.7 0 01.58-.23.82.82 0 01.808.833.82.82 0 01-.253.568l-9.691 9.413a.82.82 0 01-.604.218zm-8.074-5.744a.193.193 0 00-.181.108.217.217 0 00.072.29l8.075 4.707a.217.217 0 00.253 0l9.727-9.39a.169.169 0 00.073-.145.205.205 0 000-.144.192.192 0 00-.157-.073.205.205 0 00-.145 0l-9.655 9.27-7.953-4.6-.109-.023z" fill="#325AA9"/></svg>