<svg width="182" height="182" fill="none" xmlns="http://www.w3.org/2000/svg"><path d="M0 0h182v182H36.233A36.232 36.232 0 010 145.767V0z" fill="#F4F4F4"/><path d="M106.212 45.895H60.57a3.502 3.502 0 00-3.502 3.503v77.503a3.514 3.514 0 003.502 3.503h64.012a3.519 3.519 0 003.491-3.503v-60.22l-21.861-20.785zm.423 15.919V48.227l18.974 18.116H108.7a2.1 2.1 0 01-2.089-2.101l.024-2.428zm17.935 67.189H60.558a2.102 2.102 0 01-2.102-2.102V49.398a2.101 2.101 0 012.102-2.102h44.688v16.91a3.51 3.51 0 003.454 3.43h17.935v59.181a2.1 2.1 0 01-2.089 2.101" fill="#030303"/><path d="M113.966 95.898H71.09a.7.7 0 110-1.401h42.876a.7.7 0 110 1.4zm.036 9.686H71.126a.699.699 0 01-.7-.701.699.699 0 01.7-.7h42.876c.186 0 .364.073.495.205a.697.697 0 010 .99.697.697 0 01-.495.206zM79.87 78.88a10.146 10.146 0 1110.133-10.146A10.157 10.157 0 0179.87 78.88zm0-18.878a8.744 8.744 0 108.733 8.732 8.756 8.756 0 00-8.733-8.732zm34.132 55.268H71.126a.702.702 0 01-.495-1.196.702.702 0 01.495-.205h42.876a.7.7 0 110 1.401z" fill="#030303"/><path d="M79.17 73.868l-4.541-5.471a.724.724 0 011.074-.894c1.208 1.425 2.416 2.862 3.624 4.3.096.12.591-.133.591-.133l4.095-6.86a.749.749 0 01.894 0 .713.713 0 01.302.773l-4.095 6.872c-.266.447-.531.882-.785 1.328-.253.447-1.111.145-1.111.145" fill="#030303"/></svg>