<svg width="182" height="182" fill="none" xmlns="http://www.w3.org/2000/svg"><path d="M0 0h182v182H36.233A36.232 36.232 0 010 145.767V0z" fill="#F4F4F4"/><path d="M107.057 68.602h-1.763l-2.415-4.554a8.86 8.86 0 00-2.271-3.02 8.058 8.058 0 00-2.899-1.52H87.636a7.682 7.682 0 00-3.285 1.605 9.251 9.251 0 00-2.101 2.9l-2.537 4.589h-1.642a7.646 7.646 0 00-.665 15.266 5.29 5.29 0 0010.46 0h8.986a5.29 5.29 0 0010.459 0 7.644 7.644 0 007.518-7.772 7.626 7.626 0 00-.63-2.916 7.65 7.65 0 00-7.142-4.602v.024zm-23.515-4.01a7.35 7.35 0 011.74-2.416 6.196 6.196 0 012.596-1.292h9.541a6.921 6.921 0 012.307 1.208 7.665 7.665 0 011.921 2.596l2.065 3.902H93.289v-4.336a.773.773 0 00-1.546 0v4.348h-10.4l2.199-4.01zm2.512 20.339c0 .072-.072.145-.12.217l-.242.326-.181.278-.278.266-.254.205-.29.205-.338.17-.29.145-.434.132h-.29a3.805 3.805 0 01-1.474 0h-.217l-.423-.132-.302-.194-.326-.169-.29-.205-.254-.206a2.88 2.88 0 01-.277-.265l-.181-.23c-.085-.108-.182-.217-.254-.326l-.109-.217a3.792 3.792 0 01-.507-1.884 3.74 3.74 0 01.217-1.208 5.32 5.32 0 01.254-.604c.094-.18.208-.35.338-.507l.073-.097.374-.398.157-.121c.12-.107.25-.204.387-.29l.253-.133a2.16 2.16 0 01.375-.181l.386-.12.302-.085c.246-.053.497-.081.749-.085.256.004.51.033.76.085.1.017.198.045.29.084l.4.12c.126.049.247.11.362.182l.265.133c.137.086.266.183.387.29l.145.12c.145.133.265.266.386.4l.073.096c.13.156.243.326.338.507a3.82 3.82 0 01.47 1.812c.002.66-.17 1.31-.494 1.884h.084zm19.349 0l-.109.205-.254.338c0 .073-.108.145-.181.218a2.761 2.761 0 01-.278.265 1.425 1.425 0 01-.253.206l-.29.205-.326.17-.29.144-.435.133h-.253a3.781 3.781 0 01-1.474 0h-.254l-.434-.133-.326-.145-.326-.169a1.765 1.765 0 01-.29-.205 2.227 2.227 0 01-.266-.206l-.23-.205c-.072-.072-.132-.157-.193-.23l-.241-.326a1.97 1.97 0 01-.121-.217 4.832 4.832 0 01-.495-2.415c.028-.23.08-.458.157-.677.07-.204.16-.403.265-.592a5.29 5.29 0 01.338-.507l.085-.096c.109-.133.242-.266.374-.4l.157-.12c.121-.107.25-.204.387-.29l.254-.133c.115-.07.237-.13.362-.18l.399-.121c.096-.042.198-.07.301-.085a3.481 3.481 0 011.498 0c.104.015.206.043.302.085l.399.12c.125.05.246.112.362.181l.254.133.398.29.145.12c.133.134.266.267.387.412l.072.084c.122.163.235.332.338.507.106.194.195.396.266.604.133.39.206.797.217 1.208a3.87 3.87 0 01-.507 1.896l.109-.072zm1.739-2.343a5.288 5.288 0 00-8.795-3.371 5.29 5.29 0 00-1.725 3.37h-8.72a5.29 5.29 0 00-10.52-.072 6.242 6.242 0 11.689-12.464h28.986a6.234 6.234 0 11.278 12.464m6.631 18.685H71.09a.698.698 0 01-.7-.701.699.699 0 01.7-.7h42.876a.698.698 0 01.7.7.696.696 0 01-.205.495.697.697 0 01-.495.206zm0 7.15H71.09a.698.698 0 01-.7-.701.699.699 0 01.7-.701h42.876c.186 0 .364.074.495.206a.696.696 0 010 .99.697.697 0 01-.495.206zm-22.175 7.138H71.126a.702.702 0 01-.495-1.196.698.698 0 01.495-.205h20.665a.698.698 0 01.7.7.703.703 0 01-.7.701z" fill="#030303"/><path d="M123.193 130.609H61.911a4.952 4.952 0 01-4.94-4.928V51.053a4.94 4.94 0 014.94-4.94h61.282a4.953 4.953 0 014.928 4.94v74.628a4.929 4.929 0 01-4.928 4.928zM61.911 47.526a3.527 3.527 0 00-3.527 3.527v74.628a3.526 3.526 0 003.503 3.551h61.306a3.523 3.523 0 003.515-3.526V51.053a3.526 3.526 0 00-3.515-3.527H61.911z" fill="#030303"/></svg>