<svg width="182" height="182" fill="none" xmlns="http://www.w3.org/2000/svg"><path d="M0 0h182v182H36.233A36.232 36.232 0 010 145.767V0z" fill="#F4F4F4"/><path d="M78.82 105.077a19.77 19.77 0 01-2.73-.169c-9.445-1.353-17.054-9.216-16.909-17.525a12.392 12.392 0 014.372-9.409 16.427 16.427 0 0113.093-3.37c9.445 1.353 17.053 9.228 16.969 17.537a12.415 12.415 0 01-4.384 9.409 15.702 15.702 0 01-10.315 3.623l-.096-.096zm-5.05-29.289a14.3 14.3 0 00-9.409 3.237 10.955 10.955 0 00-3.888 8.37c-.085 7.645 6.992 14.892 15.773 16.148a15.025 15.025 0 0011.993-3.044 11.036 11.036 0 003.89-8.382c.084-7.573-6.994-14.82-15.774-16.148a18.86 18.86 0 00-2.585-.18z" fill="#181B1F"/><path d="M79.05 88.24a3.442 3.442 0 113.43-3.442 3.455 3.455 0 01-3.43 3.442zm0-5.495a2.054 2.054 0 10-.025 4.107 2.054 2.054 0 00.024-4.107zm-27.9 43.202l-2.03-9.662 4.264-.399-.544-5.157 3.938-.229-.532-5.013h4.046l4.276-6.908 1.171.725-4.674 7.572H57.78l.52 4.916-3.938.242.544 5.096-4.107.387 1.45 6.957 8.538-.653 11.945-20.568 1.196.7-12.32 21.185-10.459.809zm57.333-18.298c-2.56.028-5.083-.6-7.332-1.824a12.4 12.4 0 01-6.183-8.333 16.439 16.439 0 013.297-13.105c5.701-7.645 16.244-10.58 23.503-6.534a12.405 12.405 0 016.184 8.334 16.435 16.435 0 01-3.297 13.104 20.706 20.706 0 01-16.172 8.358zm5.93-30.194a19.32 19.32 0 00-15.037 7.802A15.049 15.049 0 0096.32 97.25a11.04 11.04 0 005.496 7.416c6.679 3.72 16.426.966 21.74-6.148a15.059 15.059 0 002.818-5.668c.526-2.067.607-4.224.237-6.325a11.025 11.025 0 00-5.495-7.416 13.707 13.707 0 00-6.691-1.654" fill="#181B1F"/><path d="M108.41 90.499a3.318 3.318 0 01-1.63-.423 3.414 3.414 0 01-1.377-4.65 3.43 3.43 0 016.304.664 3.322 3.322 0 01-.277 2.609 3.416 3.416 0 01-3.02 1.8zm0-5.496a2.056 2.056 0 00-2.025 1.699 2.05 2.05 0 00.057.946 1.996 1.996 0 00.978 1.208 2.052 2.052 0 002.947-2.415 2.015 2.015 0 00-.978-1.208 2.082 2.082 0 00-.979-.254m22.827 46.246l-9.457-2.838 1.691-3.938-4.795-1.98 1.679-3.576-4.65-1.92 1.933-3.551-4.034-7.065 1.207-.677 4.409 7.718-1.57 2.887 4.577 1.896-1.679 3.563 4.735 1.969-1.619 3.792 6.812 2.041 3.491-7.802-12.356-20.327 1.184-.713 12.73 20.943-4.288 9.578zM73.107 68.53a21.74 21.74 0 0143.48 0 21.448 21.448 0 01-1.317 7.343l1.341.374a23.084 23.084 0 00-15.852-30.002A23.08 23.08 0 0080.921 86.96l.29.193.846-1.087-.29-.217a21.523 21.523 0 01-8.6-17.296" fill="#181B1F"/><path d="M109.654 84.327a21.63 21.63 0 01-14.843 5.906 22.4 22.4 0 01-1.812-.073l-.23.761-.64.532c.89.104 1.785.16 2.681.169a22.946 22.946 0 0015.822-6.317l-.978-.978z" fill="#181B1F"/></svg>