<svg width="182" height="182" fill="none" xmlns="http://www.w3.org/2000/svg"><path d="M0 0h182v182H36.233A36.232 36.232 0 010 145.767V0z" fill="#F4F4F4"/><path d="M92.612 54.857a22.573 22.573 0 1022.574 22.573 22.6 22.6 0 00-22.574-22.573zm17.67 10.943v.108c.328.488.63.992.906 1.51.478.92.882 1.878 1.208 2.862a14.093 14.093 0 01.519 1.655c.109.435.242.858.326 1.293.085.434.181 1.074.242 1.63l.048-.713c.124.8.204 1.607.242 2.416v.169h-12.078a33.006 33.006 0 00-1.606-9.457 38.03 38.03 0 009.046-2.995c.418.5.801 1.006 1.147 1.522zm-9.976 12.331a30.957 30.957 0 01-1.643 9.372 39.855 39.855 0 00-6.884-.628 40.862 40.862 0 00-5.302.363 31.402 31.402 0 01-1.57-9.107h15.399zM84.919 76.73a31 31 0 011.618-9.312 37.69 37.69 0 005.93.568 36.4 36.4 0 006.245-.483 30.992 30.992 0 011.594 9.227H84.919zm23.286-13.563a36.127 36.127 0 01-8.54 2.778 35.024 35.024 0 00-5.458-9.663 21.112 21.112 0 0113.998 6.885zm-9.964 3.02a34.782 34.782 0 01-5.75.386 36.67 36.67 0 01-5.47-.496 33.274 33.274 0 015.591-9.444 33.118 33.118 0 015.629 9.553zm-19.675-4.59a21.1 21.1 0 0112.21-5.29c-.58.06-1.207.132-1.702.229a20.35 20.35 0 011.944-.242 34.593 34.593 0 00-5.399 9.47 36.233 36.233 0 01-8.454-2.863c.483-.41.93-.846 1.4-1.304zm-2.331 2.415c.242-.302.52-.592.785-.882-.266.29-.543.58-.785.882a37.44 37.44 0 008.901 3.104 32.912 32.912 0 00-1.642 9.59H71.416c.072 0 0-.435.097-1.208v-.531a19.59 19.59 0 01.555-2.911c.245-.62.44-1.257.58-1.908a21.39 21.39 0 013.587-6.136zm-1.679 24.41a2 2 0 01.133.217l-.133-.218zm15.701 10.024h.556c-.495 0-.978-.109-1.474-.181h.363a25.464 25.464 0 01-1.836-.326c.205 0 .41 0 .616.108a22.193 22.193 0 01-1.208-.29h.181c-.447-.108-.882-.265-1.328-.398l-.93-.314h.072a20.977 20.977 0 01-5.52-3.092 21.514 21.514 0 01-1.497-1.292c-.467-.431-.91-.887-1.329-1.365.242.278.508.531.761.785-.266-.278-.543-.544-.809-.834-.326-.374-.64-.76-.93-1.207a1.392 1.392 0 00-.169-.206l.109.133c-.097-.12-.17-.241-.254-.362a16.264 16.264 0 01-.954-1.425 21.135 21.135 0 01-1.522-2.996v-.096c-.133-.35-.266-.689-.386-1.039-.121-.35-.194-.592-.278-.894-.17-.567-.29-1.147-.41-1.727a23.909 23.909 0 01-.206-1.207 23.838 23.838 0 01-.206-2.295h12.078a33.08 33.08 0 001.546 9.324c-3.19.533-6.3 1.458-9.263 2.754.302.386.603.772.93 1.207a38.501 38.501 0 018.804-2.548 34.652 34.652 0 005.484 9.662c.531 0 1.062.097 1.606.097-.88.066-1.764.075-2.645.024h.048zm-3.297-9.843a36.619 36.619 0 0111.208.253 33.094 33.094 0 01-5.556 9.373 33.14 33.14 0 01-5.652-9.626zm9.18 9.662a20.78 20.78 0 01-1.933.241 35.28 35.28 0 005.374-9.384 39.008 39.008 0 018.455 2.814 21.126 21.126 0 01-11.897 6.34v-.011zM112.6 84.29l.254-.797-.254.797zm.519-1.776c0-.241.121-.495.17-.749-.049.254-.109.508-.17.75zm.411-1.896c0-.217.073-.423.097-.64-.097.217-.097.423-.097.64zm.097-.64c0 .23-.073.447-.109.676-.036.23-.109.725-.181 1.087-.073.363-.133.556-.193.834-.061.278-.157.592-.242.881-.084.29-.181.568-.278.846a21.148 21.148 0 01-3.623 6.546 39.783 39.783 0 00-8.877-3.056 32.475 32.475 0 001.666-9.662h12.078c-.145.628-.205 1.232-.278 1.848h.037z" fill="#030303"/><path d="M123.193 130.609H61.911a4.942 4.942 0 01-4.94-4.928V51.053a4.94 4.94 0 014.94-4.94h61.282a4.938 4.938 0 014.928 4.94v74.628a4.929 4.929 0 01-4.928 4.928zM61.911 47.526a3.527 3.527 0 00-3.527 3.527v74.628a3.52 3.52 0 001.024 2.51 3.533 3.533 0 002.503 1.041h61.282a3.525 3.525 0 003.515-3.526V51.053a3.526 3.526 0 00-3.515-3.527H61.911z" fill="#030303"/><path d="M73.143 104.485h-4.445v17.633h1.208v-7.585h3.31c3.937 0 6.292-1.678 6.292-5.133 0-3.454-2.38-4.915-6.365-4.915zm-.205 9.046H69.93v-7.971h2.899c3.623 0 5.435.917 5.435 3.877 0 2.959-1.727 4.094-5.326 4.094zm13.502-9.046h-1.207l-6.208 17.633h1.208l2.077-6.039h6.981l2.053 6.039h1.305l-6.208-17.633zm-3.768 10.556l1.136-3.31c.724-2.089 1.34-3.937 1.956-6.039h.109a83.966 83.966 0 001.957 6.039l1.123 3.31h-6.28zm18.661-2.017l-2.67-1.208c-1.292-.556-3.055-1.341-3.055-3.394s1.558-3.152 3.889-3.152a5.576 5.576 0 014.203 1.811l.712-.821a6.746 6.746 0 00-4.915-2.114c-2.935 0-5.121 1.788-5.121 4.349 0 2.56 2.04 3.707 3.623 4.384l2.669 1.208c1.739.772 3.177 1.473 3.177 3.623 0 2.15-1.691 3.539-4.385 3.539a6.92 6.92 0 01-5.181-2.416l-.797.846a7.8 7.8 0 005.966 2.657c3.418 0 5.641-2.054 5.641-4.747s-1.788-3.684-3.756-4.565zm12.983 0l-2.669-1.208c-1.292-.555-3.056-1.341-3.056-3.394s1.57-3.152 3.901-3.152a5.632 5.632 0 014.203 1.812l.701-.797a6.715 6.715 0 00-4.904-2.114c-2.934 0-5.133 1.787-5.133 4.348 0 2.56 2.041 3.708 3.624 4.384l2.681 1.208c1.727.773 3.164 1.473 3.164 3.623 0 2.15-1.691 3.539-4.384 3.539a6.911 6.911 0 01-5.181-2.416l-.785.846a7.723 7.723 0 005.954 2.657c3.418 0 5.64-2.041 5.64-4.747 0-2.705-1.787-3.707-3.756-4.589z" fill="#030303"/></svg>