<svg width="875" height="450" fill="none" xmlns="http://www.w3.org/2000/svg"><path fill-rule="evenodd" clip-rule="evenodd" d="M695.478 89.002l-.713 2.037 1.795 1.184 2.024-1.184-.713-2.508-2.393.47zm-170.722 54.195l3.272 2.598 1.502-2.368.497-1.961-1.821-1.146-2.177-.318-1.273 3.195zm-6.365 7.703l1.043 1.311 3.642-2.228-.815-2.19-2.279-.089-1.273 1.961-.318 1.235zm80.548-33.852l5.487.713.242 2.75-2.152.598-2.495-1.553-1.082-2.508zm14.437-9.064l.955 4.404h2.266l.484-3.933-2.266-1.91-1.439 1.439zm5.016 3.692v5.016l5.601-1.197 5.258-2.737-1.782-4.061-3.476-.484-2.622-.586-1.91 2.865-1.069 1.184zm1.795-27.919l1.668 3.577 10.732.115 3.106-5.73-2.024-4.404-2.266 2.508-4.418-.37-1.196 2.038h-2.381l-.357 2.38-2.864-.114zm-4.176-17.9l-.725 2.623 2.151.483.828-2.279-2.254-.827zm-5.729 23.145l2.508 3.819 4.647.955.115-5.373-1.541-2.622-5.499-.357-2.852 2.024-4.418-.712-.356 2.991 2.622 2.737-1.438 1.668-4.176-3.45-5.016.471-.357 4.061.484 4.176 2.266 2.865.841 3.221 4.646 1.311 4.291-.357-.344-4.532 3.094.357 2.393-3.947 2.864.598 1.91-2.138-1.91-1.91-4.175-1.197-3.349-3.934 2.75-.725zm-21.006 10.032l.713 3.221 2.865 3.335 1.795-.713-2.152-3.934-3.221-1.91zm123.821-7.104l-1.438 2.814-7.804 4.392-5.666-5.385-5.678-.573-8.084 5.245-5.538 6.811-1.986 6.951-3.679 1.133-4.545-2.266-4.392.42-2.266 2.979-1.986-1.706-1.846 1.986-2.266-2.126 3.259-3.259-7.664-.573-4.392 3.832 2.406 8.224-4.392 4.253v-6.379h-2.979l-2.979 2.699-.701-3.259 4.392-3.972-4.684.28-13.89 7.091 2.686 3.259-3.972 3.832 1.566 2.839 2.839-1.425.28 4.112 3.399 3.972-5.245 1.273-1.553 2.139 1.413 3.399-4.252.713-5.678-1.706-1.693 6.378-9.65-1.693v14.182l-6.811-1.133-10.49-9.51 3.832-2.686-6.379-9.51-4.124-1.986-6.239 2.126-6.951-2.687-.993 10.771-12.616 5.385-4.825-3.259.713-2.546-12.909-.14-3.4 4.532-.852 2.979-.853-4.392-2.407-2.126-2.839 2.979-3.933 1.96-.217 2.699 1.833 2.457.039.051.012.051.841 4.367 6.072 8.606.051.064v5.678l3.094 3.717.178.216-.204.166-7.091 5.627-.407 3.259-.013.064-.025.051-1.668 2.495-1.248 6.06-.051.229-.242-.025-3.475-.408-5.602 4.571-.012.012-.026.013-1.884.968 4.443 6.798.038.064v.063l1.515 18.995.013.114-.077.09-3.908 4.315 2.572 1.986.127.102-.025.153-1.057 5.054 2.291 2.495.064.077v3.628l2.699 1.872.166.114-.077.191-1.298 3.45-.013.051-.026.026-4.048 4.914-.395 3.501h6.71l.063.063 2.877 2.254 3.081-2.05.204-.14.153.191 1.718 2.164.14.178-.012.013 2.266 3.425.14.216-.229.153-2.559 1.63v3.029l2.839.217 2.368-1.655.242-.166.14.268 2.928 5.614.038.064v.076l-.242 6.671 3.768 2.126.179.089-.051.204-1.693 6.989 2.113 4.698 4.774 1.439.28.076-.115.28-3.641 8.504-.725 10.592 3.666 3.896 3.972-3.03.064-.051h.076l5.971-.229 2.126-3.794.166-.293.242.242 3.221 3.221 4.188-4.888 6.582-14.144.064-.128.14-.025 4.392-.726.076-.013.064.026 8.555 3.424.115.039.038.114 1.858 5.589 5.118-2.317.128-.064.127.09 3.183 2.189.051.051.038.064 5.754 13.049 7.473 13.864 4.711-3.081.025-.013.026-.012 4.888-1.948.14-.064.128.102 3.73 3.03 2.024-1.808.178-.153.178.166 2.992 2.763 2.763-2.763.076-.076h.115l6.836.241.089.013.064.051 4.29 3.323 8.416-3.119.14-.051.114.089 2.801 2.342 11.585-5.308.076-.039.09.026 3.348.713 3.628-1.362-.445-2.725-.039-.178.166-.089 8.962-4.66-2.24-6.314-.051-.153.114-.115 3.005-3.233-1.248-3.107-5.729-3.755-.203-.127.114-.204 3.017-5.831-5.614-3.87-.242-.178.191-.217 2.623-3.055v-13.011l.165-.064 11-4.188.433-4.965.012-.23.23-.012 6.518-.433 1.489-4.023-.229-4.189v-.178l.153-.076 3.145-1.464-2.368-8.39-4.38-3.068-.153-.115.051-.178 2.877-10.172-3.984-10.63-.051-.14.089-.115 2.228-2.903.114-.152.179.063 7.74 2.661 4.94-1.082 1.731-3.017.064-.115.127-.013 5.856-.865 1.044-3.756-9.739-20.204-.038-.089.012-.076.981-4.953.025-.101.089-.051 6.531-4.622-2.469-4.723-.09-.178.153-.14 6.315-5.933.076-.051.076-.012 5.64-.586 3.221-3.616.573-6.301-3.654-3.272-.076-.064-.013-.115-.191-4.073-2.33-3.501-.127-.179.166-.165 2.788-2.585-3.005-3.564-.165-.191.191-.178 7.307-6.71.038-.038.039-.013 3.284-1.362 2.445-3.564-4.609-9.587h-5.818l-.051-.025-4.545-1.974-.089-.05-.038-.102-2.381-6.124-.064-.14.115-.115 9.217-10.795v-5.309l-12.069-9.052zm14.323-70.657l6.11 7.244 1.337-1.337 1.668-8.364 1.999-3.908-2.215-3.005-5.564.446-3.335 5.016v3.908z" fill="#E5E5E5"/><path fill-rule="evenodd" clip-rule="evenodd" d="M821.819 94.209l-1.387-15.354-4.252-2.406 10.07-6.95-1.426-4.686-18.715-1.566-2.266 2.98-5.117.432-.561 3.972-4.112-.293v-5.525l4.673-1.566 1.858-3.819-1.005-10.07-1.834-.713-2.279 1.413-.14-3.68-4.392 1.694-2.979-3.4 1.133-5.524 3.692 3.259 2.126-1.706 3.119 3.412 1.846-4.265-.432-5.105 3.411-2.827 5.946.56 9.93-7.51-2.406-2.84 4.965.7-.14-4.812-5.398.993-1.553-3.399-7.232-1.426 2.839-3.539-3.692-2.699 3.4-2.419L805.257 0 793.2 7.091l-.713 5.818-3.259 4.252 8.084 3.26-4.392 1.985-13.049-3.539-15.175 10.07-22.687 12.337-6.098 9.93.56 2.966-4.112 1.146-5.818 5.245 4.112 5.105 3.692-1.133 5.538 3.12-.573 5.524-5.105.573-3.412 1.986-7.218-4.545v9.218l-7.384 5.537-2.839 5.513 12.234 9.179.115.076v5.767l-.064.077-9.191 10.745 2.278 5.869 4.393 1.909h6.034l.076.153 2.305 4.812 3.819.573.127.026.064.114 2.444 4.329 5.118-2.47.089-.038.102.025 4.8 1.541 3.641-3.259.063-.064h.089l5.628-.395 4.188-4.366-.764-4.227-.051-.216.229-.077 4.214-1.337 1.146-4.01.051-.178.178-.013 3.578-.382 1.133-3.399.051-.14.14-.025 6.607-1.554 1.719-3.068.063-.127h.153l9.879-.598.191-.013.077.191 2.279 6.276 6.874-2.088.038-.025h.039l7.524.204 6.06-17.404.101-.292.268.14 3.666 1.922 4.672-1.413zm46.417 77.888l2.203 2.202 4.303-3.539-1.872-.433-4.634 1.77zm-18.498 93.101l.344 1.655 2.139 1.387 1.044-2.622-1.184-1.935-2.343 1.515zm6.76-3.17l-.343 1.591 2.342.891 1.248-1.375-2.279-1.998-.968.891zm-1.451 3.45l-.547 6.556 2.546 3.31 2.342-1.108-.471-6.48-1.871-1.731-1.999-.547zm3.654 14.551l-.344 2.406 1.108 2.419 3.03-1.375.42-1.591-4.214-1.859zm3.908 19.173l-1.133 2.164 1.693 2.445 2.076-1.974-1.324-2.457-1.312-.178zm.191 12.146l1.121 1.871 1.604-.56.382-3.017-2.076-.471-1.031 2.177zm1.413 4.888l-1.706 1.783 1.325 3.59 3.959-1.044-1.324-3.667-2.254-.662zm-2.648 14.869l-1.973 1.987.089 4.137.102 4.329.089 1.986h2.075l1.693-4.902-.369-4.799-1.706-2.738zm-5.92 16.207l2.063.09.662 2.724-1.502 2.355-1.986 2.827-.179 3.106-.573 3.857-.369 2.928-.942-.471-.764-5.092-.178-6.302 2.546-2.635 1.413-1.235-.191-2.152zm-7.473 33.687l1.019-.459.407-7.358 1.273-1.464.242-1.923-1.349-.853-2.075.968-1.146.904 1.018 3.233-.369 4.163.98 2.789zm7.754-7.41l.687 1.592 2.088-.726-.458-2.215-1.133-1.592-1.146 1.108-.038 1.833zm-39.988-216.171l-1.655 4.965 6.289 7.053.878-10.147-3.424-1.54-2.088-.331zm41.49 18.536l1.642 2.533 6.302.993 2.533-1.324-1.54-2.648-4.634-.547-4.303.993z" fill="#E5E5E5"/><path fill-rule="evenodd" clip-rule="evenodd" d="M743.168 231.83l3.794-2.508 2.559-2.126 3.551-.853-1.145-7.231 6.251-1.986 4.812-4.252 4.405-.14-3.259 4.685 3.119 2.686 4.532-5.105 1.133-8.084 4.112-1.553 3.259-4.265-3.399-2.547-2.979 3.692-3.119-2.991-.853-14.603-2.686-8.644.84-6.391 5.258-7.511 2.966-.14 1.426-4.252 6.098 8.364 4.252-.713.28-3.119-.993-6.378-1.069-4.494-4.099-2.317-.115-.064-.013-.115-.789-4.099-2.635-2.444-4.265.382-.191.025-.077-.191-2.533-6.633-3.641-.764-.102-.025-.064-.089-5.83-8.479-4.125 4.316-.077.076h-.101l-5.64.395-3.679 3.285-.115.101-.153-.038-4.838-1.553-5.232 2.521-.229.114-.115-.216-2.508-4.43-3.335-.497 2.151 4.481.077.14-.089.128-2.572 3.755-.038.064-.077.025-3.322 1.375-7.092 6.506 3.005 3.564.166.191-.191.179-2.801 2.61 2.253 3.36.038.064v.077l.204 4.035 3.666 3.285.102.089-.012.14-.599 6.518-.013.089-.05.064-3.361 3.756-.064.076-.102.013-5.64.573-6.111 5.729 2.47 4.761.102.216-.178.128-6.633 4.685-.955 4.748 9.612 19.937 4.43-2.954.102-.076.128.051 10.044 3.348.14.051.039.14 1.107 5.576.013.102-.038.076-2.394 4.342 1.808 3.615 3.985-2.941.076-.051h5.373l.063.14 2.534 4.418zm7.753 171.969l-.548 16.563 2.98 5.105-11.637.993-3.819 8.364 10.771 11.064.28 4.112 5.958-5.678 10.21.14 7.384-5.946 4.392-8.797 2.126-24.112 2.979-12.616-1.973-14.768-2.916-.828-.165-.051-.025-.153-.713-3.539-4.851-3.463-5.423 4.074 3.221 3.489 5.13.432.28.026-.038.267-1.158 8.008-.039.216h-.216l-3.641.14.547 5.106.013.152-.127.089-5.233 3.489-.063.038-.064.013-8.606.573-2.164 2.826 1.68 3.335.153.306-.331.076-4.354.955z" fill="#E5E5E5"/><path fill-rule="evenodd" clip-rule="evenodd" d="M746.172 385.964l3.769 6.174-1.414 4.532 2.305 6.608 3.997-.879-1.591-3.182-.077-.153.102-.127 2.317-3.056.077-.102h.127l8.644-.573 5.054-3.361-.572-5.232-.026-.28.28-.013 3.705-.127 1.095-7.511-4.953-.408-.101-.012-.077-.077-3.488-3.781-.204-.216.242-.166 5.818-4.367.153-.114.153.114 5.092 3.629.089.063.013.102.7 3.476 2.597.738 1.286-16.728-1.833-5.245-8.237-16.729-2.686-3.272-2.419-11.763-1.63-3.921-.585-.637-6.149-2.533-2.126-2.559 1.845-3.692-4.544-1.833-9.498-1.706-7.371 3.832-2.559 11.203-3.119-3.972-3.539 4.532-2.979-8.644-6.238 3.832-5.258-.853.293-4.965 6.798-17.021 1.706-17.022 1.986-8.224-1.706-6.811 2.279-6.085-.993-6.531 14.322-14.042 4.532.852.433-1.705-1.273-1.986 1.986-1.312-2.457-4.316h-4.901l-4.163 3.069-.255.178-.14-.28-1.999-4.01-.076-.128.076-.114 2.406-4.38-1.069-5.334-9.765-3.259-4.506 3.004-1.083 3.921-.051.166-.165.025-5.894.866-1.719 3.017-.064.102-.114.026-5.131 1.107-.064.026-.076-.026-7.626-2.622-2.024 2.635 3.959 10.567.026.089-.013.076-2.852 10.083 4.303 3.017.077.064.025.076 2.457 8.708.064.217-.204.089-3.182 1.489.203 4.061.013.051-.025.051-1.566 4.24-.051.165-.166.013-6.467.42-.433 4.914-.013.166-.152.051-10.987 4.175v12.859l-.064.076-2.482 2.89 5.55 3.857.191.128-.102.203-3.017 5.818 5.602 3.667.076.038.026.077 1.336 3.348.064.153-.115.127-3.017 3.233 2.164 6.086 8.899-4.621.179-.09.14.14 2.928 3.183.127.128-.089.165-4.354 9.459.471 4.57.025.179-.152.076-3.285 1.872.229 3.742h7.461l.076.115 3.348 5.016 3.667-.229 5.971-5.5.967-4.074.038-.216h4.698l1.388-2.776.089-.178.191.026 3.17.496.165.026.051.152 2.928 9.039.051.153-.114.115-1.948 1.96-.064.051-.089.013-7.231 1.171 1.808 3.832.076.166-.115.127-2.889 3.119-.713 4.087-.013.063-.051.064-4.252 4.965 1.82 2.266.115.166-.115.165-2.877 3.832v4.634l7.677 3.845.051.025.038.051 6.174 8.556 3.871-3.667.076-.076.102.012 8.288.14h.102l.063.051 3.667 2.967 11.063-3.731.458-.152-.114.471-1.159 4.685z" fill="#E5E5E5"/><path fill-rule="evenodd" clip-rule="evenodd" d="M714.791 393.653l4.239 6.709 4.545 3.972 9.637-4.685 1.273-3.972 7.231-8.084 3.947-1.808 1.044-4.176-10.745 3.629-.14.051-.115-.089-3.704-3.005-8.097-.14-3.972 3.781-5.143 7.817zm-77.188-25.195l9.663-4.965 7.384 2.546 8.924-1.413 13.049 12.897 16.169 16.741 6.378-2.559 3.972 1.846 2.839-1.413 5.385 1.693 2.928-.369 5.105-7.792-6.2-8.606-7.766-3.87-.14-.076v-5.144l.051-.063 2.801-3.743-1.82-2.292-.14-.165.14-.166 4.353-5.079.726-4.087.013-.076.051-.051 2.813-3.056-1.884-3.984-.153-.319.357-.051 7.486-1.209 1.782-1.782-2.839-8.734-2.826-.433-1.375 2.75-.077.153h-4.595l-.93 3.947-.013.076-.063.064-6.111 5.614-.064.064-.102.012-3.908.242-.153.013-.076-.127-3.348-5.016h-7.677l-.026-.255-.241-4.15v-.166l.14-.076 3.271-1.872-.471-4.468-.012-.077.038-.063 4.316-9.37-2.674-2.903-17.976 9.357.458 2.738.039.216-.204.076-3.921 1.464-.064.026-.076-.013-3.336-.713-11.649 5.334-.152.064-.128-.102-2.813-2.342-8.415 3.119-.14.051-.115-.089-4.328-3.361-6.646-.242-2.852 2.852-.178.178-.178-.178-3.005-2.763-2.024 1.795-.165.153-.179-.153-3.781-3.068-4.723 1.884-4.583 3.005 5.793 3.87.229.152-.153.217-1.732 2.419 2.674 2.673 4.838-2.686.229-.127.14.229 2.317 4.099 3.717-.878.293-.077.026.319.547 7.282 3.781 2.164.255.153-.166.229-2.126 3.017 6.022 9.039zm126.876-48.454l-.203-.484 8.364 4.545 2.699 7.091 4.112 5.245 4.952 7.945 3.552 5.805 4.112 3.132 1.273 3.679 1.133 3.259 5.105 2.419.713 5.105 5.245 6.658.433-5.805-.713-4.405 4.113-.28 1.565-.713 3.82 1.986-3.119-6.518h-4.533l-4.825-2.126-5.525-3.972-3.552-9.077-1.986-5.819 4.252-2.406 7.944-.432-17.861-12.057-12.629-11.343-5.818-10.923-7.944-5.525-3.68-4.685-2.558 1.146-.561 2.686 4.673 3.259 2.559 3.832-1.414 1.846-2.278-.573-.701 3.272 4.533 3.399 4.545 10.35-.382-.153.585.637zM86.035 257.279l1.184 2.254-.203 5.232 3.603 1.923.025.012 2.61 1.681 2.419-1.681.064-.051.101.013 3.654.191 3.845-2.355.42-2.928.038-.255.255.038 4.303.573 2.266-.713.204-.063.101.203 1.694 3.387 3.819 1.362.853-.751.255-4.265-2.458-1.846-.089-.076-.012-.115-.179-2.75-1.566-1.477-2.367-1.744-.115-.089v-.14l.267-4.188-4.748-3.68-.089-.063-.013-.102-.433-2.814-1.808-.853-.153-.076v-1.935l-.725-1.286-2.699-.165-.471 1.12-.064.127-.14.026-1.095.191-.153.025-.101-.127-.739-.917h-1.158l-1.77 1.604v3.094l-.038.076-1.044 1.439.891.675.102.076v.115l.09 1.476.024.293-.292-.013-1.96-.089-.777 1.35.522 2.661.038.127-.102.102-6.085 6.161z" fill="#E5E5E5"/><path fill-rule="evenodd" clip-rule="evenodd" d="M76.78 228.622l-2.037 2.546-.993 1.566.42 2.126 2.126.993-.28 3.259 5.385 3.4.14 6.238 4.24 8.046 5.869-5.946-.535-2.622-.012-.102.05-.077.917-1.578.076-.127h.166l1.82.089-.063-1.057-1.006-.764-.216-.153.152-.203 1.146-1.592v-2.941l-3.908-3.997-3.87-.815-.051-.013-.038-.025-2.75-1.846-.09-.051-.025-.089-.687-2.33-1.4-.229-1.388.777-.153.101-.14-.127-2.865-2.457z" fill="#E5E5E5"/><path fill-rule="evenodd" clip-rule="evenodd" d="M80.485 214.834l-2.343 1.019-1.133 2.266-1.706.433-.14 2.826 2.42 1.426-.6 5.296 2.865 2.457 1.299-.738.089-.038.09.012 1.654.28.166.026.038.153.713 2.393 2.635 1.757 3.896.815.076.025.051.051 3.87 3.959 1.732-1.578.076-.064h1.604l.076.102.739.891.802-.14.433-1.018-1.744-2.356-.038-.063-.013-.077-.166-2.304-1.846-.598-.114-.026-.051-.114-.548-1.184-.025-.064v-1.986l-.866-1.12-.05-.077v-4.239l-6.213-8.097-7.728-.306zm8.797-18.943l-3.908-.319-2.84-2.699.293-2.546-2.699-.573-1.566 3.832-5.665 4.825.42 3.119 2.98-.14 2.266 1.834.852 3.972 2.56-.28 2.978.573v1.986l-3.704 4.863 7.014.267 8.747-6.391-.688-1.133-.038-.076v-1.592l.076-.076 1.031-1.044.026-.013.038-.025 1.477-.879-.166-1.171-1.77-.127-.954.751-.14.115-.153-.09-1.566-.891-.063-.038-.038-.064-.968-1.858-.026-.051v-.064l-.076-1.718v-.064l.038-.077.904-1.565-4.188-.268h-.077l-.063-.051-.344-.254z" fill="#E5E5E5"/><path fill-rule="evenodd" clip-rule="evenodd" d="M101.606 171.88l-.637 1.146-4.672 2.686-2.406 3.832-2.56 5.245-.28 4.253.713 2.559-1.846 2.266-.114 1.756.064.051 4.468.293 1.808-.789.05-.026h.064l3.527.077 1.935-1.795.089-.077.102.013 2.61.14.178.013.051.178 1.095 3.768.98-.572.077-.051.089.012 1.935.306.114.013.064.102.955 1.349 5.054-.497 3.03-1.947 3.361-4.813.127-1.158-2.317-2.814-.038-.051-.013-.076-.343-2.559-5.691-1.006-.064-.012-.038-.039-2.763-2.011-.038-.038-.038-.051-3.641-6.837v-.012l-.013-.013-1.146-2.737-1.094-.573-2.203.56-.064.025-.038-.012-.483-.077zm-12.884 43.044l6.174 8.071.051.076v4.227l.866 1.12.05.077v2.049l.485 1.044 1.871.599 2.865.14.878-1.579.025-.038.039-.026 5.423-4.405.56-4.443-2.342-2.138-.039-.039-.025-.038-1.197-2.61-.025-.051v-.063l.153-4.52-7.155-3.794-8.657 6.341z" fill="#E5E5E5"/><path fill-rule="evenodd" clip-rule="evenodd" d="M107.665 226.789l-5.257 4.265-.955 1.668-.077.14h-.165l-2.75-.14.153 2.113 1.718 2.317 2.903.178.153.013.063.127.828 1.464.038.064v1.744l1.77.853.127.051.026.14.445 2.839 4.647 3.616 2.266-1.044.598-1.401-.356-2.266-.649-1.375-.064-.127.064-.115.967-1.718.051-.077.076-.025 3.973-1.846 2.342-2.126.064-2.597-.548-1.744-2.1-1.655-.051-.051-.026-.064-.687-1.859-1.999-.191-3.132 1.452-.063.025h-.077l-2.228-.229-.102-.013-.076-.076-1.91-2.33z" fill="#E5E5E5"/><path fill-rule="evenodd" clip-rule="evenodd" d="M121.135 235.841l-.013.407v.115l-.089.076-2.444 2.228-.039.026-.038.012-3.934 1.834-.853 1.502.611 1.298.013.026v.051l.382 2.38.013.064-.038.076-.662 1.554-.039.101-.101.039-2.343 1.082-.267 4.023 2.279 1.668.025.025 1.642 1.566.077.064.012.101.179 2.738 2.38 1.782 3.489-.599 6.963-3.602.879-1.21.076-5.792v-.039l.675-3.946.013-.077.051-.05 3.042-3.616-2.444-2.712-1.451.917-.039.025-.025.013-1.273.369-.102.026-.102-.051-1.935-1.12-.064-.039-.025-.063-1.719-3.145-2.762-.127zm-16.079-23.464l-.14 4.482 1.145 2.482 2.406 2.203.102.089-.012.14-.586 4.57 1.948 2.356 2.049.203 3.132-1.451.064-.038.076.012 1.974.191.191-1.158.012-.064.026-.051 1.413-1.935.013-.013.012-.012 2.827-3.043v-2.011l.076-.077 1.706-1.706-.357-3.463-2.036-1.273-.077-.038-.025-.064-.891-1.858-4.329.216-1.031 1.248-.153.178-.191-.127-3.756-2.279-1.056-.331-4.532 2.622z" fill="#E5E5E5"/><path fill-rule="evenodd" clip-rule="evenodd" d="M122.102 221.696l-2.826 3.03-1.362 1.872-.204 1.286.688 1.871 2.113 1.668.051.051.025.076.599 1.859.012.038v.051l-.051 1.808 2.929.153h.14l.076.127 1.744 3.208 1.77 1.031 1.12-.331 1.604-1.031.191-.114.153.165 2.699 3.005 1.82.623 1.643-.063 5.436-4.851h.012l.013-.013 2.877-2.049-.674-1.808-1.108-3.03-5.563-9.37-3.4-.14-1.171 1.044-.165.14-.166-.115-1.337-.891v-.012l-1.324-.93-.662.548-.05.038-.051.013-2.381.598-.089.025-.089-.038-1.324-.598-.917.84-.064.076h-.101l-2.636.14zm-1.973-11.368l.815-1.006 1.286-1.872v-4.366l-2.025-1.121-.051-.025-.038-.064-1.566-2.457-.025-.038-.013-.064-.382-2.495-2.775 1.795-.051.026-.064.012-5.283.522-.153.013-.089-.127-.98-1.401-1.732-.254-1.184.687-.28.179-.102-.332-1.133-3.908-2.304-.127-1.935 1.782-.076.064h-.102l-3.59-.077-1.719.764-1.044 1.795.076 1.566.904 1.744 1.337.764.904-.713.076-.051h.102l2.088.153.204.013.038.216.216 1.553.026.179-.153.089-1.604.955-.942.942v1.222l.738 1.209 7.244 3.845 4.634-2.673.102-.064.115.038 1.184.369h.038l.025.026 3.59 2.189.981-1.171.076-.089h.115l4.481-.216z" fill="#E5E5E5"/><path fill-rule="evenodd" clip-rule="evenodd" d="M118.614 196.451l.42 2.737 1.49 2.342 2.1 1.159.14.076v4.851l-.051.063-1.336 1.935-.013.013-.789.993.865 1.783 2.088 1.298.115.076.012.128.37 3.717.012.128-.089.089-1.706 1.706v1.616l2.381-.127.968-.904.127-.114.153.063 1.413.637 2.228-.56.776-.624.153-.127.166.114 1.476 1.031 1.172.777 1.12-.98.076-.064h.102l3.488.14 1.324-1.999.892-2.559-.841-.776-.012-.013-.013-.013-1.566-2.011-.025-.038-.013-.039-1.261-3.87-.025-.089.025-.076.892-2.75.012-.051.039-.038 2.889-3.349.026-.012v-.013l1.795-1.655.407-2.011-2.291-2.712-5.449.076h-.076l-.077-.051-6.022-3.857-.127-.089.013-.153.127-2.279-.713-.356-.598.611-.064.063-.089.013-5.156.713-.051.458-.013.077-.025.051-3.361 4.825z" fill="#E5E5E5"/><path fill-rule="evenodd" clip-rule="evenodd" d="M142.204 201.785l-1.451 1.324-2.852 3.297-.853 2.61 1.223 3.743 1.527 1.961.942.878.128.115-.051.165-.968 2.75-.013.026-.012.025-1.324 2.024 5.423 9.154 3.794-2.266.064-.038h.063l4.8-.166 5.283-3.183-1.095-3.093-5.181-6.62-2.559-1.121-.051-.025-.038-.038-1.961-2.126-.153-.166.14-.178 1.439-1.923.598-2.418-1.196-1.197-2.597 2.139-.191.152-.166-.178-2.457-2.622-.064-.064-.012-.089-.179-2.852z" fill="#E5E5E5"/><path fill-rule="evenodd" clip-rule="evenodd" d="M149.206 205.884l.344.344.115.102-.039.153-.662 2.609-.012.051-.026.051-1.349 1.783 1.782 1.935 2.572 1.12.063.025.039.051 5.232 6.71.025.038.013.038 1.121 3.119 1.705-.344 1.235-1.769.077-.115h.127l3.17-.242.115-.012.076.076 1.248 1.171 1.986-1.146.573-6.887-3.119-1.719-.141-.063v-.153l-.165-2.839-1.439-1.299-2.304.777-.114.038-.102-.051-7.626-4.061-4.52.509z" fill="#E5E5E5"/><path fill-rule="evenodd" clip-rule="evenodd" d="M156.959 206.496l4.545 2.419 2.343-.79.153-.051.114.115 1.63 1.464.089.076v.115l.153 2.801 3.157 1.718.14.09-.013.165-.573 6.926 9.383.076 1.146-.764.076-.051h.077l3.093.077.178.012.064.166.853 2.419 2.495 1.082.051.025.038.039 2.127 2.164 3.462-3.527.077-.089h.114l8.415.166.166-5.309v-.089l.064-.077 1.629-1.782-1.846-1.846-4.43 1.108-.115.025-.089-.051-6.709-3.934-.064-.038-.038-.051-4.061-7.473-6.098-3.692-9.345-.484-3.195 2.241-.064.038-.076.013-3.629.153-1.069 1.68-.038.051-.051.038-4.329 2.636zm-14.016-7.83l4.01-1.82-.547-1.885-.026-.051.013-.063 1.235-6.798.051-.23.229.013 3.463.242 4.392-4.278-.573-5.067-4.29.026-.026.28-.395-.344-4.723-4.214-2.839.166-.102.013-.076-.064-3.386-2.775-.064-.051-.025-.089-.599-2.496-2.521-1.795-.929.713-.433 2.304-.038.242-.242-.012-6.238-.548h-.089l-.064-.063-2.088-1.834-6.098-1.591-.038-.013-.051-.025-3.208-2.33h-.013l-.013-.026-1.693-1.693-1.642 1.643-.968 4.01-.012.051-.026.038-1.795 2.775-.063.102-.115.026-4.227.814 1.057 2.521 3.616 6.773 2.648 1.935 5.818 1.031.191.026.025.191.356 2.686 2.33 2.839.077.089-.013.102-.038.331 4.927-.688.687-.674.127-.14.179.089 1.031.522.165.076-.012.178-.14 2.305 5.818 3.73 5.499-.077h.128l.076.102 2.33 2.75z" fill="#E5E5E5"/><path fill-rule="evenodd" clip-rule="evenodd" d="M168.927 199.341l-3.425-3.272-.115-.102.039-.153 1.324-4.812-2.547-3.132-2.215.115-.089.012-.064-.051-5.754-3.717-4.418 4.303-.089.089-.114-.013-3.349-.229-1.183 6.493.598 2.05.064.216-.204.089-4.278 1.935-.42 2.076.217 3.259 2.227 2.38 2.598-2.138.178-.153.165.165.65.65 5.041-.561.076-.012.064.051 2.508 1.324 4.545-2.763 1.12-1.744.077-.127h.127l3.692-.166 2.954-2.062zm-6.391 101.503l-.153 3.221 1.706 4.112 1.986-.42 1.413-1.286 2.979 1.426-.14 1.986-.853 1.833.993 1.146 2.839.993 1.133 3.972 1.133 4.952-1.273 3.132 1.273 2.546 3.259-1.986 1.426.421.993 2.126.7 3.692 2.126 1.565 2.559-1.705 2.419.14 4.532 1.986-.14 2.126.993 1.706 2.266.432 1.846-1.986 1.987 1.986 2.546 1.554-.56 3.972.56 2.266 2.559 2.839 2.126.713 2.126-1.286 1.706.573 1.273 2.546 5.245 1.706 2.266-1.706 2.279-3.259-4.023-8.784-.357-.242-.063-.051-.038-.089-.879-2.623-.051-.178.14-.115 2.177-1.706.535-1.578-1.082-2.33-5.615-1.719-2.622.688-1.362 3.195-.077.178-.191-.025-3.386-.331h-.102l-.064-.076-3.093-3.094-5.716-1.299-.115-.025-.064-.115-1.235-2.406-.089-.165.128-.128 2.228-2.38-1.401-1.477-.076-.089v-.102l.089-1.502.013-.179.178-.051 2.062-.611.217-3.501-2.941.153-1.439.955-.356.242-.051-.433-.497-4.138-.025-.203.191-.077 1.337-.522.152-2.444-1.336-1.489-.077-.077.013-.114.153-5.78-1.604-2.241-.051-.076v-7.804l-1.541-3.425-.038-.089.026-.076.713-3.094-2.05-2.304-.089.356v.013l-1.057 3.501-.013.025-.012.026-.802 1.54-.039.064-.076.038-6.022 3.374-1.502 2.775-.064.102-.089.025-4.15 1.299-.026.013h-.012l-2.126.318-4.24 3.679-.063.064h-.089l-6.137.484-.165.216zm-29.803-2.482l2.711 2.585-.292 2.839-.701 2.266 1.553 2.839 3.12-1.426 1.565-3.119 1.834-1.986 4.405.853 2.406-1.986 1.706-.14 1.273.993 4.392-.28 3.272-.853 2.19-.484.127-.178.076-1.923-.229-1.629-2.151-3.119-.064-.077.013-.089.318-3.794-2.457-3.093-.038-.038-.013-.064-.891-3.488v-.026l-.013-.025-.14-2.012-2.024-.675-.038-.012-.013-.013-6.009-3.246-.14-.077v-.153l-.077-3.271-5.881-1.019-.051-.013-.038-.025-6.251-3.654-.14-.076v-2.19l-.866-1.528-3.03-.318-.127-.013-.077-.101-4.443-7.015-5.92 3.055-.038.026h-.038l-3.437.598-.268 4.29v.115l-.076.076-.955.841.28 3.424 1.77 2.33 2.661.56.076.013.064.051 4.786 4.647.077.076v3.692l-.064.076-2.113 2.406-.128 2.254 1.706.127 1.974-.853.356-.153.013.395.14 3.832 1.209 1.744 2.788.56.204.039.013.203.153 6.429z" fill="#E5E5E5"/><path fill-rule="evenodd" clip-rule="evenodd" d="M157.227 280.882l.153 1.986.865 3.412 2.483 3.119.076.089-.012.102-.319 3.806 2.139 3.094.038.051.013.051.242 1.719v.038l-.076 1.744 5.881-.458 4.24-3.68.063-.051.064-.025 2.177-.318 4.023-1.261 1.489-2.75.039-.063.063-.038 6.035-3.374.764-1.451 1.043-3.463.382-1.592-3.004-4.341-1.286-1.133-1.375.929-.051.039-.051.012-1.209.23-.178.038-.089-.14-2.458-3.514-.725.56-3.081 3.234-.026.025-.025.013-1.795 1.057-.089.063-.102-.038-2.279-.56-.064-.013-.05-.051-3.476-3.068-2.355-1.731-2.164.229-3.616.484-1.439 2.037-.063.891 1.145.56.166.089-.025.191-.408 2.368-.025.14-.14.051-1.528.662z" fill="#E5E5E5"/><path fill-rule="evenodd" clip-rule="evenodd" d="M148.926 273.346l.077 3.221 5.856 3.17 2.075.687 1.49-.624.343-2.024-1.12-.573-.166-.076.026-.179.076-1.133v-.076l.051-.064 1.541-2.189.063-.089.115-.013 3.743-.497 2.279-.242.101-.012.077.063 2.444 1.795.013.013 3.45 3.043 2.113.522 1.655-.981 3.069-3.22.012-.013.013-.026.764-.56-2.266-2.788-.14-.178.14-.166.98-1.133-.204-2.431-4.57-.306-.127-.013-.077-.101-2.61-3.705-3.284-.166h-.166l-.063-.165-1.197-2.966-3.59-4.278-.484.598-.637 3.196-.012.051-.038.038-.802 1.222-.115.166-.191-.064-5.5-1.91v5.818l-.076.077-1.171 1.324 1.056 2.037.051.102-.038.101-.497 1.388-.012.051-.051.051-4.469 4.227z" fill="#E5E5E5"/><path fill-rule="evenodd" clip-rule="evenodd" d="M136.959 242.6l-1.591.077h-.051l-.038-.013-1.77-.611-3.03 3.59-.662 3.857-.063 5.844v.089l-.051.064-.968 1.349-.038.051-.051.025-.675.344 4.354 6.862 3.043.318.127.013.077.115.967 1.706.038.063v2.025l6.086 3.551 5.92 1.032 4.404-4.163.421-1.222-1.083-2.088-.076-.166.115-.14 1.235-1.375v-5.754l-2.114-.14-.153-.013-.063-.14-1.49-3.208-3.399-.611-1.12.98-.242.204-.153-.268-2.113-3.501-.038-.051v-.063l-.306-3.896h-3.756l-.063-.178-1.63-4.558z" fill="#E5E5E5"/><path fill-rule="evenodd" clip-rule="evenodd" d="M145.667 235.611l-2.851 2.025-5.36 4.774 1.566 4.392h3.87l.025.254.319 4.074 1.922 3.17.98-.84.089-.089.128.025 3.654.65.14.025.05.115 1.477 3.195 1.923.14v-.089l.343.115 5.666 1.96.674-1.005.637-3.196.013-.064.038-.051.725-.878 1.172-1.961.063-1.387-1.566-.904-.101-.064-.026-.127-.229-1.655-.955-.548-.522.841-.076.114-.14.013-3.807.153-.42 1.069-.089.191-.204-.038-1.948-.318-.127-.026-.063-.114-2.037-3.82-.013-.038-.013-.063-.56-5.589-4.367-4.431zm17.798 15.341l-.076 1.489v.077l-.039.051-1.12 1.871 3.705 4.405.025.038.013.038.522 1.273 2.737-.789h.038l3.616-.458.382-2.814.013-.127.114-.064 1.872-1.056.038-.013.025-.013 3.73-.929.37-3.119-1.019-5.487-7.078-2.279-4.061 1.146-.395 4.201v.127l-.102.064-3.31 2.368z" fill="#E5E5E5"/><path fill-rule="evenodd" clip-rule="evenodd" d="M144.152 230.328l1.044 2.839.726 1.96 4.557 4.609.064.064.013.102.56 5.627 1.948 3.666 1.604.267.407-1.031.064-.153.178-.012 3.845-.153.573-.942.127-.217.229.128 1.299.738.114.064.013.127.229 1.655 1.452.828 3.17-2.266.394-4.265.026-.179.165-.05 4.125-1.172.191-6.149.013-.254h.242l3.717-.166 1.999-1.604.153-.115.152.102 4.011 2.508 3.17-4.43.152-.216.217.165 3.768 2.712 2.623-1.146 1.146-1.362-2.241-2.916-4.583-4.659-2.559-1.121-.102-.05-.038-.102-.828-2.355-2.826-.064-1.146.764-.063.038h-.089l-9.676-.077-2.215 1.261-.166.102-.152-.14-1.286-1.21-2.928.217-1.235 1.769-.064.089-.102.026-1.986.394-5.487 3.311-.051.025-.076.013-4.812.152-3.769 2.254z" fill="#E5E5E5"/><path fill-rule="evenodd" clip-rule="evenodd" d="M181.39 237.406l-3.959-2.482-1.922 1.54-.077.051h-.076l-3.565.153-.191 5.907 7.129 2.292.14.051.039.152 1.056 5.691v.076l-.356 2.89 1.922-.751.026-.012.038-.013 5.958-.828h.064l.051.013 4.213 1.324.102.038.051.077 1.324 2.202 2.152-2.011-.153-4.711-.955-2.317-2.89-3.208-7.447-1.311-.064-.013-.051-.038-1.744-1.413-.064-.051-.025-.089-.726-3.209z" fill="#E5E5E5"/><path fill-rule="evenodd" clip-rule="evenodd" d="M195.522 254.479l-2.05 1.909-.229.217-.166-.28-1.438-2.394-4.074-1.273-5.869.815-2.152.853v.025l-.178.039-3.87.98-1.719.967-.395 2.878-.025.191-.204.038-3.794.484-2.66.763.433 1.083 3.233.152h.14l.077.102 2.597 3.718 4.672.318.229.013.026.229.242 2.762v.115l-.077.076-.904 1.057 2.139 2.635.013-.012.153.229 2.508 3.59.993-.191 1.502-1.031.165-.115.153.14 1.464 1.299.026.012.025.026 3.081 4.481.064.089-.026.115-.165.725 2.38 2.674.089.102-.038.14-.713 3.132 1.464 3.246h.65l.916-2.088 1.159-2.559.076-.165.178.013 1.986.076h.077l.051.038 2.61 1.617.623-.879-.471-2.864-1.846-1.846-.089-.089.013-.127.42-2.903.038-.255.255.026 4.825.573 3.921-1.248.522-3.221-1.4-.204-.09-.025-.076-.076-.904-1.07-.178-.216.229-.166 2.063-1.515.101-.7-1.795-.204-.191-.025-.038-.191-.242-1.159-.025-.089.051-.089 1.044-1.871-.675-.509-3.488 1.909-.089.051-.09-.025-4.137-.828-.115-.025-.063-.089-1.732-2.814-.025-.038v-.026l-1.082-3.386-.013-.038v-.051l-.076-7.753z" fill="#E5E5E5"/><path fill-rule="evenodd" clip-rule="evenodd" d="M196.68 263.938l.497 1.578 1.667 2.686 3.934.79 3.552-1.935.153-.077.127.089.993.751.191.141-.114.19-1.108 1.987.191.878 1.871.229.28.038-.05.268-.166 1.069-.013.115-.089.063-1.922 1.401.662.789 1.54.229h2.445l2.482-2.253.089-5.678v-.28l.28.012 2.266.166 2.368-2.61 1.477-3.832.013-.051.038-.038 2.279-2.444 2.635-6.811-1.324-1.032-.025-.012-.013-.026-1.566-1.795-2.075.395-.14.025-.089-.102-2.75-2.571-4.265-.153-.076 1.477v.012l-.242 2.076-.026.101-.076.064-3.055 2.572-.14.102-.141-.064-2.444-1.146-1.884-.14-1.935 6.989-.038.166-.179.025-4.15.637-1.935 4.94z" fill="#E5E5E5"/><path fill-rule="evenodd" clip-rule="evenodd" d="M214.172 273.346l-2.571 2.33-.077.063h-2.444l-.548 3.425-.025.153-.153.051-4.137 1.324-.051.025-.064-.013-4.621-.547-.357 2.508 1.808 1.808.064.063.012.09.497 3.055.013.115-.064.089-.827 1.145-.14.204-.217-.127-2.75-1.706-1.744-.064-1.082 2.406-.993 2.228-.064.153h-.904v7.435l1.604 2.241.051.076v.089l-.165 5.767 1.337 1.502.076.077-.013.114-.165 2.725v.165l-.166.064-1.298.509.42 3.514 1.133-.764.064-.038h.076l3.31-.166.293-.012-.013.292-.255 3.972-.012.179-.178.051-2.05.611-.077 1.196 1.503 1.566.165.179-.165.191-2.279 2.418 1.107 2.139 5.666 1.286.076.025.051.051 3.081 3.081 3.106.306 1.337-3.145.051-.114.127-.026 2.636-.713.394-2.38.331-2.483.026-.178.178-.051 3.374-.789.394-2.712v-.051l.038-.038 2.801-4.8.038-.063.064-.039 4.723-2.648.115-.063.127.063 2.343 1.21h1.145l.853-3.03.039-.153.14-.038 2.355-.726 1.298-1.031-1.807-1.884-1.07.484-1.731.916-.102.051-.102-.038-7.537-2.483-.038-.012-.038-.026-1.744-1.413-.051-.038-.025-.064-1.987-4.468-.038-.089.038-.102.904-2.648.039-.089.076-.051 3.565-2.152.063-.038h.089l1.986.166.115.012.076.089 1.566 2.075.051.064.013.089.076 3.438 1.426 1.145 1.846-.84.064-.038.063.013 1.745.165h.076l.051.051 1.158.828h.013l.013.025 2.673 2.597 1.248-.7.891-1.77-1.642-2.189-.038-.051-.013-.064-.255-1.744-.012-.076.051-.077 1.705-3.183.37-2.597-1.388-.203-.038-.013-.026-.013-4.888-2.151-.026-.013-.038-.026-2.062-1.655-.064-.05-.026-.077-.751-2.33-1.986.522-.178.051-.102-.153-.916-1.234-.039-.051-.012-.077-.331-2.139-.28-1.311-2.254-.547-.178-.051-.013-.178-.242-2.916-5.219-.242-.255-.012v-4.112l-2.279.076zm16.105-44.89l-3.501 1.604-.089.039-.115-.039-9.93-3.832-3.348 3.769-.166.178-.203-.153-1.579-1.26-.089-.089V222.6l-.828-1.948-.063-.153.114-.127 7.957-8.886-.331-3.845-2.317-2.801-3.119.497-4.519 2.941-.064.051h-.089l-4.023-.166-.56 1.413 2.839 2.686.203.179-.191.191-3.501 3.615v.013l-1.731 1.884-.166 5.462v.267h-.267l-8.568-.165-3.386 3.45 2.126 2.177.013.012.012.013 2.381 3.094.127.165-.14.166-1.324 1.566-.038.051-.051.025-2.813 1.235-.14.064-.128-.09-3.679-2.66-3.081 4.328.7 3.107 1.617 1.298 7.46 1.311.09.026.063.064 2.979 3.31.026.038.012.038.993 2.406.026.038v.051l.165 4.876v.127l.09 8.199.292.942 1.757-4.468.051-.14.153-.026 4.137-.636 1.936-7.041.063-.203.217.012 2.151.166h.038l.051.025 2.33 1.095 2.852-2.393.242-1.961.076-1.731.013-.255.267.013 4.634.166h.089l.077.063 2.711 2.559 2.114-.395.14-.025.102.115 1.629 1.884 1.286.993 2.177-2.445 1.693-2.304-1.922-1.68-.089-.089v-3.056l.152-.076 7.346-3.094-.242-3.946-4.379-5.806zm163.961-78.906l1.986.229.357-1.324-1.311-1.464-1.617.509.585 2.05zm6.302 10.172l2.343.879 2.406-.433-1.019-3.59-2.928 1.604-.802 1.54z" fill="#E5E5E5"/><path fill-rule="evenodd" clip-rule="evenodd" d="M406.053 161.504l-2.852.179-1.426 5.105-4.672-4.265-1.286 4.405 4.965 5.385.293 4.685-9.09-8.084-.28-5.105 3.832-4.685.56-7.512-1.553.701-1.846 5.105-2.839 2.559-2.979.853-2.826 4.252.14 11.203-6.951 10.923.42 6.658h7.104l5.805 6.951v6.671l-4.112 4.965 1.133 2.267 3.259 1.846-6.085 1.413-1.706-6.379 4.532-7.944-1.986-5.958-6.951-.993-3.819 3.692-.433 8.364-6.378 6.519-5.818 2.139-3.973 4.252-13.329-8.225v-3.972l8.937 4.113 4.685-1.846 7.512-4.826 5.105-10.21-.853-5.525 8.657-20.573.993-3.539-.993-4.685 5.665-5.385 1.133-7.512-4.392-5.818 4.519-.598-.662-5.462-4.481-.331-.331 3.972.955 2.419-2.839-1.133-4.252 3.259-5.105 6.519-3.972 3.832-5.958 1.425-3.12 2.967 3.12 4.112-3.4 6.098-4.685 1.426-.14 2.126 4.112 4.252-1.413 3.972.7 2.559 1.566 2.266-5.245 4.812-1.706-2.686-1.413-6.098-5.538-8.886-3.17 2.635 1.859 3.323.076.127-.076.128-3.883 6.9 1.489 4.927.039.114-.064.102-2.406 3.73-.051.077-.089.025-3.87 1.299-2.585 3.004-.063.089h-.115l-9.765.433-4.965 4.099-.076.064h-.089l-3.196.051-.28 8.301-.012.076-.039.064-3.819 5.385 2.47 5.219 9.408.713h.076l.064.051 4.481 3.476.102.076.013.128.14 4.519 1.579 1.464 10.77.573h.115l.076.102 3.335 4.188.051.077v.076l.293 6.875 1.833 2.393.051.077v.089l-.14 4.506h7.219l.076.077 6.48 5.907 8.937 3.896.077.025.051.076 3.297 5.449 5.831 3.552 5.92.56 4.837-3.552.179-.14.165.153 4.405 4.125 4.532-.14h.14l.077.115 3.411 4.965 1.757.127.089.013.077.076 3.259 3.259 6.76-8.581.42-5.525.013-.076.038-.064 4.469-6.174-.828-4.965-5.092-3.82-.127-.101.025-.153 1.273-7.231-3.386-4.66-.064-.089.013-.102 1.069-10.032-4.252-5.538-.089-.102.051-.14 1.693-5.079-1.693-4.011-.115-.28.293-.076 5.487-1.477 2.317-5.894-1.209-6.951-5.742-1.439-.089-.025-.051-.077-5.283-6.951-.064-.102.025-.114 1.057-4.227.026-.115.127-.05 7.88-3.54.79-3.157-3.323-7.078-.038-.077.012-.076.841-4.647.038-.178.178-.026 3.45-.585-3.221-6.849-.025-.039v-.051l-.051-.56zM287.884 330.368l3.985-.064 3.259 5.525 2.636.42.076-.089.866-2.317.025-.051.051-.051 4.647-4.366.726-3.31.012-.077.051-.051 2.801-3.093.102-.115.14.038 3.514.7.916-1.438.56-2.521-.967-2.622-2.979-1.146-.128-.038-.038-.128-.445-1.629-.026-.128.089-.114 1.413-1.706.433-4.341.013-.102.076-.064 5.016-4.863.179-.191.191.191 2.8 2.801.153.152-.127.191-1.528 2.165 1.948.369.064.013.051.025 5.079 3.628 3.87-.572.09-.013.076.051 3.628 2.024 3.539.153 4.787-3.285-8.555-6.416-.051-.038-.025-.051-4.125-8.123-.013-.012-3.043-6.811-2.38-.561h-.013l-.025-.012-5.016-2.063-.051-.025-.026-.038-2.52-2.381-.739 1.999-.076.178-.191-.013-3.998-.14-.955 1.082-.025.038-.051.026-2.495 1.324-.089.051-.102-.026-1.935-.42-1.235.968-.077.051h-2.648l-.051-.026-3.17-1.375-1.362 2.585-.051.114-.127.026-4.494.878-2.89 4.991-.076.14-.153-.013-8.008-.255-2.177 4.609.128 4.494.012.204-.203.051-2.126.598-.726 3.565 1.82 4.201v.025l.013.013.738 2.788 3.361 1.031.064.013.038.038 3.119 2.826.089.077v.114l.09 2.903 4.595 4.023.077.064.013.102.292 2.635v.013z" fill="#E5E5E5"/><path fill-rule="evenodd" clip-rule="evenodd" d="M249.984 325.466l7.983 1.858 4.545 2.839 2.686-2.126 3.972 2.126 13.342 2.547 4.838-2.203.012-.114-.28-2.508-4.608-4.036-.077-.077-.012-.114-.089-2.903-2.992-2.711-3.45-1.057-.14-.038-.039-.14-.776-2.903-1.846-4.278-.026-.076.013-.076.739-3.603-3.794-1.808-2.814 1.413-.191.089-.127-.165-2.292-2.967-4.914-1.693-5.589 1.706.306 1.566v.064l-.102 5.054v.14l-.102.076-7.6 5.678-.178 2.737 5.703 3.425.229.127-.127.23-2.203 3.921z" fill="#E5E5E5"/><path fill-rule="evenodd" clip-rule="evenodd" d="M218.628 339.381l1.617-2.126 5.398-.433.42-3.832 2.546-1.413 2.699.14 3.259 2.559 1.986-1.846-2.406-3.972-1.133-3.972 2.686-2.839 2.419-.7 3.679 3.959 7.652.484v-.013l.012-.051.026-.051 2.113-3.768-5.627-3.374-.14-.089.013-.153.191-3.017.013-.127.101-.077 7.588-5.665.102-4.914-.662-3.501-2.037-1.935-1.095.662-.089.063-.115-.025-1.947-.484-.064-.013-.038-.051-8.084-6.925-1.401.356-.394 2.725-.013.038-.013.051-1.706 3.144.229 1.592 1.693 2.266.102.127-.076.14-.993 1.986-.026.077-.076.038-1.489.827-.179.102-.127-.14-2.801-2.724-1.095-.764-1.591-.153-1.922.879-.153.063-.115-.102-1.667-1.324-.09-.076v-.127l-.089-3.463-1.451-1.91-1.782-.153-3.4 2.063-.84 2.457 1.91 4.316 1.655 1.336 7.384 2.432 1.629-.853.013-.013 1.248-.573.165-.076.128.127 2.151 2.241.204.204-.229.178-1.566 1.248-.038.025-.051.013-2.267.713-.865 3.081-.051.19h-1.668l-.064-.025-2.278-1.184-4.533 2.546-2.749 4.698-.408 2.852-.025.178-.166.038-3.386.789-.306 2.292v.013l-.382 2.342 5.589 1.706.115.038.051.102 1.171 2.534.038.089-.025.102-.586 1.756-.025.077-.064.051-2.101 1.642.764 2.279z" fill="#E5E5E5"/><path fill-rule="evenodd" clip-rule="evenodd" d="M275.23 236.617l-1.388 2.368-.993 2.279-.013.025-.025.026-4.545 6.034-.013.013-.012.013-6.837 6.709-.038.025-.038.026-5.755 2.61-.127 2.584 1.846 3.552.089.166-.127.127-2.483 2.89-.394 3.806-.013.077-.051.063-1.604 1.999-.077.102h-.114l-5.423.255-.764 3.424-.026.115-.089.051-2.279 1.477-.191.114-.152-.165-2.177-2.419-3.03 4.799-.077.115-.127.013-4.978.522-4.278 5.054.764 2.355 1.974 1.579 4.825 2.126 1.566.229 1.655-.42.14-.026.089.089 8.148 6.977 1.782.445 1.171-.725.166-.102.152.14 2.241 2.139.064.063.012.077.293 1.515 5.615-1.719.076-.025.076.025 5.067 1.757.077.025.051.064 2.202 2.852 2.737-1.362.115-.064.114.051 3.998 1.91 1.999-.548-.14-4.354v-.063l.025-.064 2.279-4.812.076-.166.178.013 8.021.254 2.788-4.812-2.062-3.081-.051-.076.012-.089.268-2.954v-.013l.776-5.321-5.487-3.527-.063-.05-.039-.077-.929-2.419-.064-.14.102-.114 3.132-3.794-.649-3.234-1.07-5.767-.012-.102.063-.102 2.623-3.679-.127-4.277-3.03-7.244-5.156-3.043-.09-.051-.025-.127-.789-3.539-1.426-1.452z" fill="#E5E5E5"/><path fill-rule="evenodd" clip-rule="evenodd" d="M310.545 205.63l-3.08.051-4.431 3.908-.063.064-.09.013-3.997.203-.153.013-.089-.127-1.299-2.063-6.454 5.742-1.031 3.717-.026.077-.051.051-6.811 6.072-7.473 12.795 1.592 1.604.05.064.013.063.777 3.514 5.13 3.03.077.038.038.077 3.081 7.371.013.051v.051l.14 4.417v.089l-.051.077-2.61 3.654 1.044 5.652.675 3.348.025.128-.076.089-3.119 3.781.84 2.177 5.563 3.577.14.089-.025.166-.802 5.5-.255 2.839 1.999 2.991 4.303-.84 1.413-2.686.115-.217.229.09 3.335 1.451h2.368l1.261-.968.089-.076.127.025 1.973.421 2.381-1.261.993-1.146.089-.089h.127l3.934.14.815-2.177.14-.382.293.28 2.763 2.623 4.952 2.037 2.495.586.127.025.051.127 3.094 6.913 4.099 8.059 8.657 6.505 4.774-2.724.548-2.928.025-.102.089-.076 2.903-1.872.076-.063.102.025 3.4.407 2.979-9.497.012-.076.077-.051 4.201-3.196.102-.076.127.038 4.494 1.299.038.013.026.025 6.021 4.01 9.192.14h.089l.064.051 6.378 4.685 7.677-4.405.14-.089.14.102 3.972 2.839 4.494-.56 4.927-2.114.904-2.304-5.602-3.208-.14-.076v-7.142l-3.323-3.336-1.782-.127-.127-.013-.077-.102-3.386-4.952-4.494.14h-.102l-.089-.076-4.329-4.049-4.748 3.488-.077.064-.101-.013-6.086-.573-.063-.012-.051-.026-5.933-3.628-.064-.026-.025-.063-3.285-5.424-8.899-3.883-.051-.012-.025-.026-6.442-5.869h-7.562l.013-.267.14-4.698-1.821-2.38-.051-.064-.012-.089-.281-6.862-3.208-4.036-10.732-.586h-.102l-.063-.063-1.745-1.592-.076-.076-.013-.115-.14-4.506-4.328-3.348-9.472-.713-.153-.013-.063-.14-2.61-5.513-.064-.14.089-.127 3.858-5.436.292-8.186zm-184.891-60.154l-1.286 1.019-.763 2.011.152 6.658.013.204-.191.051-4.914 1.591-.306 2.292-.025.204-.216.025-1.617.14-.446 1.63-.013.076-.051.038-.712.726 1.68 1.68 3.157 2.279 6.098 1.592.064.025.038.038 2.075 1.821 5.92.496.395-2.164.025-.102.077-.064 1.158-.891.153-.127.166.115 2.762 1.973.077.051.025.102.611 2.495 3.234 2.648 2.839-.166.114-.012.077.076 4.43 3.947.204-2.025-.764-2.482-2.012-2.19-.14-.153.115-.165 1.91-2.966-.344-3.247-1.757-3.437-.051-.089.026-.089.471-2.406-1.681-.23-.165-.025-.051-.166-.395-1.591-3.017-.089h-.14l-.077-.14-.891-1.604-.063-.128.063-.127.764-1.438-.153-1.897-2.329-.79-.688.93-.102.114-.14-.012-1.604-.179-.089-.012-.064-.051-1.604-1.439-2.546.344-.178.013-.089-.153-1.477-2.597-1.681-.802-2.915 1.451-.28.14-.089-.293-.777-2.457z" fill="#E5E5E5"/><path fill-rule="evenodd" clip-rule="evenodd" d="M156.297 183.745l5.742 3.718 2.266-.128h.128l.089.102 2.724 3.336.076.102-.038.127-1.311 4.8 3.476 3.322 9.395.484h.076l.051.026 6.213 3.768.064.038.038.064 4.061 7.473 6.556 3.832 4.482-1.121.14-.038.102.102 1.947 1.948 3.132-3.246-2.788-2.623-.14-.115.076-.178.701-1.744.063-.178.191.013 4.125.165 4.367-2.852v-3.03l-3.005-1.502-.216-.114.089-.217.955-2.546-2.801-.942-1.833.84-.255.115-.102-.255-2.215-5.627-5.436-.178h-.127l-.064-.089-3.488-3.998-3.298-2.088-.025-.013-.013-.025-3.157-2.979h-.013l-.012-.013-9.294-10.528-.076-.089.012-.115.701-5.271.012-.076.051-.064 3.425-3.908-2.254-.751-.178-.064v-3.781l-2.801.038-1.884 1.808-.076.077h-.115l-3.921-.179-.102-.012-.076-.077-1.846-1.922-1.757-.051-2.597.866-4.189 3.144-2.737 5.755-.076.165-.178-.013-4.558-.356-2.546 1.362-1.821 2.814 1.923 2.075.038.051.013.051.802 2.597.012.051v.051l-.242 2.304 4.469-.038h.242l.025.242.611 5.308zm-31.445-51.305l-2.75.305-4.392 3.4-2.559 3.552-4.952-.293-2.979 4.978-3.552.42-.14 3.832-5.245 3.399.28 4.965 2.126 2.699-2.406 2.979.56 2.406 3.412.853.713 3.539-1.082 1.923.229.025 2.24-.573.102-.025.089.038 1.184.624 4.354-.828 1.706-2.661.981-4.048.012-.076.051-.051 2.737-2.725.471-1.731.051-.178.179-.013 1.591-.153.305-2.241.013-.165.166-.051 4.888-1.579-.165-6.518v-.051l.025-.051.815-2.126.026-.063.05-.051 1.579-1.261 1.579-4.876-2.063-3.335-.038-.064v-.063l-.191-4.087z" fill="#E5E5E5"/><path fill-rule="evenodd" clip-rule="evenodd" d="M151.753 125.476l-4.685.178-5.818 2.126-.28 4.685.56 2.126-1.694 1.414-1.285-3.26-2.266-.14-3.54-3.411-4.392 2.839-2.979.343.191 4.049 2.088 3.386.064.102-.039.115-1.604 5.003.764 2.444 2.763-1.375.114-.063.115.063 1.871.891.077.026.038.076 1.426 2.534 2.495-.344.127-.013.09.089 1.629 1.464 1.375.14.7-.942.115-.152.191.063 2.673.891.166.051.013.179.178 2.138v.077l-.038.063-.726 1.401.751 1.349 3.055.089h.191l.051.191.408 1.617 1.782.242.28.038-.051.28-.522 2.585 1.744 3.399.026.051v.051l.318 3.004 2.33-1.247.064-.039h.076l4.456.344 2.686-5.64.025-.051.051-.038 4.278-3.221.038-.025.038-.013 2.674-.891.038-.013h.051l3.743.077 1.948-1.554-3.616-4.723-2.304-.433-.166-.025-.038-.153-1.095-3.641-1.451.14-.242 2.203-.025.292-.293-.063-1.159-.268-.114-.025-.051-.102-.879-1.515-1.146.331-.165 2.584-.013.306-.305-.064-1.604-.356-.128-.026-.051-.114-.916-1.897-4.456.076-.153.013-.076-.127-1.795-2.648h-4.354l-.077-.102-1.158-1.426-.14-.166.14-.165 7.244-8.772-.42-8.975zm62.483-17.658l1.184-7.269 1.706 2.419-.713 5.105 2.126 4.532.573 7.524 2.979 4.532.7 4.685 11.076 6.658 6.798-1.273 5.105-6.951 1.426-7.371-2.279-8.797.293-12.77-1.426-4.671-3.539-5.678-.573-4.393 1.566-.993 2.126 2.98 2.126-1.426-1.986-3.82-7.511-5.105-10.783-.993-2.126 1.553-5.385 3.12.14 4.252-3.692 5.958-7.231.152-2.406 3.03 5.283 7.053.076.09-.025.114-.828 4.188 4.367 2.19.076.038.039.064.738 1.273z" fill="#E5E5E5"/><path fill-rule="evenodd" clip-rule="evenodd" d="M201.021 137.341l-.343-2.33.42-1.986-1.846-2.546 1.706-3.119 5.245-6.531 4.405-1.413 2.546-4.405.967-6.365-1.031-1.757-4.494-2.254-.191-.089.051-.191.853-4.277-5.143-6.85-6.047 7.601-3.119-.14-3.972 2.699-2.827-.14-1.133 2.839-1.286 2.406-2.266 1.706 1.273 2.406-1.553 1.566-5.258-.853-1.413 4.965-.993 7.511-3.119 1.273-13.902-1.833-6.264.229.179 4.049 3.399-.675.051-.013.038.013 4.456.624.114.012.064.09 1.782 2.508.051.063v.089l-.089 3.132v.089l-.064.077-1.54 1.795.178 3.463v.05l-.445 3.043-.013.102-.089.064-2.254 1.744-.649 1.693.879 1.846 1.171.267.165-2.469.013-.179.178-.051 1.515-.445.191-.064.102.178.929 1.604.752.179.241-2.126.026-.217.216-.013 1.872-.178.216-.025.064.203 1.107 3.692 2.241.421.102.012.064.077 3.539 4.621.534-1.451-.356-4.405v-.077l.025-.076 1.605-3.119.025-.038.025-.026 5.793-6.251.102-.114.153.038 3.386.802.115.025.051.102 1.069 1.974.051.076-.026.089-.534 3.387-.013.089-.051.063-2.495 2.406-4.227 4.775-1.146 4.061 2.814-.026h.267v3.934l2.292.751 1.629-1.795.09-.089h2.177l.84-3.819.012-.077.051-.051 3.896-4.073-.955-1.579-1.222-2.101-.064-.101.039-.102.878-3.158.013-.076.051-.038 3.794-3.807.343-2.024.038-.28.281.076 2.622.701 1.604.318 2.012-2.177.025-.038.051-.013.318-.153zm59.721 28.734l-5.22 6.748 1.821 2.826.089.127-.076.14-1.184 2.19.853 3.59.05.191-.178.089-3.323 1.935-.14.077-.14-.077-4.315-2.762-4.125.165-.217.013-.051-.217-.674-3.068-10.414-8.007-1.146 1.731 2.89 4.761.064.089-.026.102-.878 4.036-.013.076-.064.064-2.482 2.483 1.12 1.935.038.051v.05l.179 2.101.025.28-.28.013-4.087.165-3.208 4.227-.153 2.534 3.858 1.616 1.617-1.96.051-.051.076-.026 3.679-1.235.217-.063.101.204 2.279 4.557.102.191-.165.127-8.505 6.773-.165 3.73-.013.128-.089.076-2.992 2.279-.114.089-.14-.051-3.718-1.527-2.661 2.176-7.918 8.836.789 1.846.013.051v5.932l1.286 1.019 3.31-3.705.114-.14.179.064 9.993 3.857 3.489-1.591 1.96-4.851.077-.178.19.013 6.633.636.102.013.077.076 4.901 5.538 5.398 2.801 7.537.828 2.991-1.655.153-.077.14.115 8.148 6.684 5.016.7 9.064-15.532.026-.025.025-.039 6.786-6.047 1.031-3.717.026-.077.05-.05 6.735-5.997.229-.203.166.267 1.4 2.177 3.743-.191 4.43-3.921.077-.077h.102l6.798-.101 4.965-4.1.064-.063h.089l9.739-.433 2.546-2.979.051-.051.076-.026 3.845-1.286 2.292-3.539-1.503-4.914-.025-.114.051-.09 1.795-3.182-1.871-.344-1.223 1.833-.076.115h-2.444l-2.992 2.775-.102.089-.14-.025-3.565-.84-2.737 3.157-.076.089h-.102l-8.097.662-.102.013-.076-.064-35.137-25.093-3.374 1.057-.051.013h-.051l-15.188-1.63zm-53.635-38.562l1.082 1.197 1.489-.981-.42-1.731-1.133-.853-.878 1.197-.14 1.171zm105.475 3.959l1.834-1.336v-2.979l-2.165-.497.331 4.812z" fill="#E5E5E5"/><path fill-rule="evenodd" clip-rule="evenodd" d="M341.8 174.032l-2.712-4.978-7.091-7.664h-5.385l-.7 3.119-.153 4.685-3.832 2.266-2.126-.42-1.413 2.126-2.699-2.126 3.119-2.839v-3.119l-10.07-.14-4.953-3.692-7.664.713-2.699-3.692 4.545-.42 2.406-4.685-6.098-1.413-2.839 3.399-1.413-2.559-15.595-3.819-1.986 1.986-2.279-2.126-8.224 4.812-4.252-4.112 1.273-3.679-1.273-3.692 5.105-1.706 4.685 3.271 2.266-3.691-.14-6.672-6.238-6.798-1.846 6.658-8.517 5.538-.701 4.253-4.073 3.666 1.604 8.504 4.455 6.697 4.1.509.114.025.064.09 2.215 3.233 15.15 1.63 3.45-1.082.127-.039.102.077 35.163 25.118 7.893-.637 2.776-3.208.101-.114.153.025 3.59.853 2.967-2.75.076-.076h2.368l1.235-1.846.089-.153.166.038 2.227.408 1.808-3.209-1.897-3.373-.102-.191.166-.14 3.412-2.839z" fill="#E5E5E5"/><path fill-rule="evenodd" clip-rule="evenodd" d="M329.336 159.327l-3.157.331-2.482-4.15.662-3.806 3.972-1.006 1.171 4.316-.166 4.315zm-48.695-19.541l2.444 3.208 5.754.153.662-2.139-.356-3.208-3.056-3.31-4.379 1.527-1.069 3.769zm42.724 4.29l1.324-12.604.993-4.812 4.151-4.481 4.978-1.655 1.986-2.814-1.172-3.488 3.654 2.33 3.323-.344.827-2.483 2.152.166.165-2.483 2.648.993.51-2.482 1.986 2.151 1.489-1.986.497-2.991 2.826 1.998 1.82-1.667 3.807.827 3.157-3.641 24.202-.496 5.805-3.158.662-4.303-2.482-2.992-5.806 1.49-.993 2.164-9.955-.827-4.303-3.654-3.82 2.151-3.806-1.654-4.812 3.157h-3.985l-1.986 1.655-2.648-2.814-1.337 5.793-2.979.165-.331 2.33-7.46 2.317-2.648-1.158-1.668 1.986 2.164 2.151-2.992 2.826-4.812-1.986-.662 3.641-3.476-.165-.165 2.826-4.812 2.483-2.979-.993-3.323 2.482-.166 3.641 3.158 3.158.165 4.812-2.992 2.979 2.33 5.143 2.648.331.166 2.317 2.991.662 1.986 1.006zm-75.583 2.826l-4.278 3.858-1.986-3.692 2.839-.561-3.552-6.671-5.385.853-5.385-1.846-6.671.993-3.679 9.218-2.699-1.553-3.832-8.938.573-6.951-6.238.713-1.706 5.946 2.699 3.271-2.559 3.4-4.112-2.267-.713-4.786-.128.051-2.062 2.253-.102.102-.153-.026-1.744-.356h-.012l-2.356-.624-.305 1.808-.013.089-.064.064-3.806 3.806-.828 2.979 1.172 2.012 1.056 1.757.102.165-.14.153-3.985 4.15-.865 3.959-.039.217h-2.38l-1.681 1.833v.013l-3.628 4.137-.662 5.067 9.192 10.414 3.144 2.966 3.31 2.088.026.026.025.025 3.437 3.947 5.5.178h.166l.063.166 2.177 5.525 1.681-.764.089-.038.102.025 3.157 1.057.267.089-.101.255-.968 2.584 2.941 1.477.153.063v3.196l3.03-.484.14-.025.101.114 2.458 2.992.05.064.013.076.306 3.539 2.419-1.96.114-.102.14.064 3.73 1.514 2.763-2.113.166-3.73.012-.127.089-.077 8.428-6.709-2.088-4.163-3.399 1.133-1.693 2.05-.127.153-.179-.077-4.213-1.757-.179-.076.013-.178.178-2.814.013-.076.038-.064 3.336-4.392.076-.089.127-.013 3.934-.165-.153-1.77-1.196-2.05-.102-.178.14-.14 2.584-2.584.828-3.845-2.916-4.825-.089-.14.089-.14 1.401-2.113.165-.23.217.166 10.706 8.25.077.063.013.089.662 2.941 3.984-.165h.077l.076.038 4.252 2.724 3.018-1.757-.828-3.488-.025-.102.05-.089 1.146-2.139-1.833-2.851-.102-.153.115-.153 5.321-6.862-2.113-3.068-4.087-.522-.127-.013-.064-.102-4.557-6.836-.026-.038-.013-.064-1.54-8.237zm141.822-96.793l1.77 1.655 2.419-2.088-1.209-1.77-1.757.446-1.223 1.757zm3.858 1.438l1.324 1.095 2.304-1.21.662-2.75-1.757-.445-2.533 3.31zm6.276-.331l2.305 2.088 4.621-2.317-.879-2.635-3.195-1.324-2.75 2.317-.102 1.871zm4.953-4.952l1.973.98 1.324-1.527-1.655-1.553-1.642 2.1zm8.682-5.499l.662 2.087 1.986-.776-.777-2.534-1.871 1.223zm-6.595-5.182l1.095.993 1.439-1.095-2.088-1.986-1.108.879.662 1.209zm-5.945 1.324l.331 1.655 2.203 1.426 1.324-1.986-1.21-2.419-2.648 1.324zm-4.29 1.757l4.188 3.743-.56 3.195-4.176-1.438-2.75-3.183 3.298-2.317zm11.661 11.992l.548 2.432 4.621-.115 1.872-3.08-1.541-2.534-1.973 2.864-2.979-.776-.548 1.21zm-12.654 5.513l1.209 1.757 1.108-1.426-1.108-1.872-1.209 1.54zm-11.445-12.107l1.871 3.183 2.203-2.088-1.095-2.635-2.979 1.54zm5.398-.993l.445 1.871 1.21-.878-.993-2.088-.662 1.095zm-1.986-10.452l1.438 1.986 1.311-1.325-2.202-1.985-.547 1.324zm-12.986-3.96l.662 2.636 1.986 1.54 2.864-.216 1.757 1.425 1.095-1.324-2.202-1.973-1.974.598-4.188-2.686zm.56 6.71l-.229 2.304 2.101 2.1 2.087 2.636.65-1.21-.548-2.533 2.865-.662 3.628 1.21 2.317-2.305-2.088-2.419-1.769-.662-1.872 1.426-2.533.331-1.528.662-3.081-.878zm4.507 8.695l-.446 1.54 1.655.993.115-2.1-1.324-.433zM53.279 112.885l9.599 20.739 5.97-3.106.523-11.407-2.852-4.418-1.299 5.194-2.864-1.82-2.33-6.748-2.851 1.821-3.896-.255zM86.99 265.351l-.05 1.413-4.406-.14-1.693 2.559-2.278.28-2.687 4.812-4.545 1.706-3.259-4.812-7.664-1.006-3.539 3.692 7.664 4.545-2.279 1.553-3.972-2.406-2.266 1.782 1.35 2.686h2.915l.089.102 3.348 4.138.102.14-.076.153-2.483 4.761 3.246 4.01.102.128-.076.152-.764 1.528-.178 3.195 1.897 2.33 1.77-2.024.114-.14.178.064 2.941 1.107 1.07-1.782.114-.191.216.089 2.356.98.165.064v3.756l2.801 1.311.153.064v3.641l1.451 2.355 3.437-.357 1.12-2.049.077-.14h5.755l3.386-3.769-.166-1.833-3.144-.369-.216-.026-.013-.216-.191-2.686-2.916-4.074-.063-.102.025-.127 1.54-5.589-1.896-2.865-.153-.229.242-.14 4.137-2.368.179-.102.14.14 1.49 1.503 2.876-.179 1.68-3.348-.585-5.64-.013-.152.128-.09 4.392-2.864-.738-6.913-3.438-.178-2.482 1.719-.14.101-.153-.089-2.75-1.769-3.374-1.795z" fill="#E5E5E5"/><path fill-rule="evenodd" clip-rule="evenodd" d="M116.603 307.35l4.799-1.579.7-3.692 4.112-2.266 4.405-1.133 1.579-.483-.14-6.035-2.699-.535-.102-.025-.064-.089-1.298-1.884-.051-.064v-.076l-.127-3.54-1.681.726-.064.026-.063-.013-2.024-.14-.268-.013.013-.267.153-2.61v-.089l.063-.077 2.114-2.38v-3.272l-4.66-4.52-2.686-.56-.089-.025-.064-.077-1.884-2.469-.051-.064v-.077l-.28-3.45-3.896-1.4-.101-.038-.051-.089-1.643-3.285-2.1.662-.064.013h-.051l-4.099-.548-.395 2.789-.025.114-.102.076-3.883 2.368.776 7.117.013.166-.127.089-4.405 2.864.586 5.551v.076l-.039.064-1.77 3.552-.063.14h-.153l-3.157.203h-.114l-.09-.076-1.425-1.439-3.718 2.127 1.808 2.724.076.089-.038.115-1.54 5.601 2.813 3.934 6.964.751.713-1.973.076-.191.191.025 2.368.191.204.013.038.204.751 3.552 2.674.356 2.368-1.489.089-.064.102.026 8.415 1.744.127.012.051.115 2.203 3.921z" fill="#E5E5E5"/><path fill-rule="evenodd" clip-rule="evenodd" d="M95.953 339.75l4.456 1.617 11.916-.28-.993-4.685 2.979-.573 2.266-12.757-1.986-2.699-2.979-.713.42-2.406 3.692-3.399-3.284-4.57 1.578-.828 2.088-.916-2.101-3.756-8.198-1.693-2.177 1.375 1.502 3.934.025.076-.025.076-1.553 7.384 1.922 3.463.064.102-.038.115-1.948 5.639.776 3.476.077.356-.369-.038-3.476-.382-1.833.802-.204.089-.127-.191-1.248-1.884-1.12 1.35 1.82 4.354.077.178-.153.127-2.47 2.024-.025.026-.013.013-2.203 1.158 2.865 4.036z" fill="#E5E5E5"/><path fill-rule="evenodd" clip-rule="evenodd" d="M86.621 341.558l4.43.089 4.227-1.948-2.8-3.921-.166-.242.267-.153 2.445-1.286 2.291-1.884-1.808-4.328-.063-.14.102-.128 1.45-1.744.217-.267.204.293 1.324 1.998 1.693-.738.077-.038.063.013 3.183.356-.713-3.195-.013-.064.026-.077 1.935-5.601-1.923-3.437-.038-.09.013-.101 1.566-7.41-1.49-3.908-2.8-.382-.191-.026-.039-.178-.75-3.552-1.961-.165-.726 1.986-.064.191-.203-.026-6.977-.751.153 2.228 3.132.369.216.026.026.203.19 2.177.013.115-.076.076-3.552 3.947-.076.089h-5.678l-1.108 2.024-.064.115-.14.025-3.742.395-.166.013-.076-.14-1.579-2.559-.038-.064v-3.463l-2.801-1.298-.153-.077v-3.73l-1.999-.827-1.056 1.769-.115.191-.204-.076-2.991-1.12-1.694 1.96 1.923 2.368 2.011-.369.166-.026.102.14 1.324 1.885 2.673.763.128.039.038.127 1.171 3.132 2.75 4.71.05.077-.012.089-.776 4.646 2.915 5.233.013.038.012.026.98 4.15.013.025v.038l-.19 4.214 4.442 4.456.039.038.025.051.993 2.636z" fill="#E5E5E5"/><path fill-rule="evenodd" clip-rule="evenodd" d="M59.224 356.3l-1.502 1.515.28 4.252 3.972 5.678-.28 5.958-.713 2.827 3.552 4.405 1.693-.713.993-1.706 2.126 1.133 2.28.713 2.685-1.694v-7.523l1.846-10.631 6.811-6.531.56-6.811-.7-2.966 3.298-2.495-.968-2.547-4.328-4.328-1.592 1.235-.076.063-.102-.012-4.621-.191-2.521 1.986.891 1.769.102.217-.191.127-2.24 1.388 2.838 4.061 3.043.56.165.038.051.166.98 3.743.064.216-.216.089-2.368.981-.05.025h-.065l-2.393-.178-3.068 5.945-.153.293-.255-.216-2.368-1.999-1.4 1.578-.089.102-.127-.013-5.844-.509z" fill="#E5E5E5"/><path fill-rule="evenodd" clip-rule="evenodd" d="M57.99 350.979l1.005 2.725.42 2.088 5.564.483 1.49-1.667.165-.204.203.165 2.305 1.961 3.004-5.818.077-.153.178.013 2.495.191 2.088-.866-.878-3.361-2.992-.56-.102-.025-.064-.09-4.06-5.805-3.158-.178-1.515.675 1.718 6.467.064.216-.204.102-7.804 3.641z" fill="#E5E5E5"/><path fill-rule="evenodd" clip-rule="evenodd" d="M56.092 348.267l.064 1.184 1.502 1.108 7.715-3.616-1.642-6.174-1.388.611-1.337 4.214-.025.076-.064.051-1.973 1.578-.038.026-.038.013-2.776.929z" fill="#E5E5E5"/><path fill-rule="evenodd" clip-rule="evenodd" d="M50.134 339.33l.217 4.876 5.665 2.686.051.828 2.584-.866 1.872-1.489 1.35-4.253.038-.114.101-.051 3.17-1.4-2.482-1.999-.93 1.604-.101.165-.191-.038-6.43-1.566-4.812 1.541-.102.076z" fill="#E5E5E5"/><path fill-rule="evenodd" clip-rule="evenodd" d="M45.946 329.552l2.979 3.298.14 4.545.904 1.4.025-.013.038-.012 4.927-1.579.077-.026.063.013 6.315 1.541 2.011-3.476-.89-2.852h-3.069l-.076-.076-5.831-5.258-4.15-.178-3.463 2.673z" fill="#E5E5E5"/><path fill-rule="evenodd" clip-rule="evenodd" d="M38.638 315.956l3.489 5.831v3.552l3.462 3.832 3.578-2.775.076-.064.102.013 4.048.178-.19-4.239-.013-.153.127-.076 2.164-1.439-3.093-5.844-1.044 2.101-.09.166-.178-.013-3.742-.395-.115-.025-.076-.089-2.05-2.788-6.455 2.227z" fill="#E5E5E5"/><path fill-rule="evenodd" clip-rule="evenodd" d="M37.378 309.896l-.204-3.348v-.509h.51l3.462-.344v-2.356l.115-.075.102-.077 3.908-2.89-2.546-1.553-3.157-3.743-.077-.089-.076-.089v-.229l.395-2.954v-.649l.305.114.318.102 2.75.993h.178v.153l2.216 3.488h3.552v.509l.19 3.12 2.19 1.82.09.089.114.076v.255l-.204 4.342v.292l-3.157 4.138-.395.521-.382.51-.089-.636-.076-.65-.446-3.59-4.94 5.462-.14.14-.127.14-.178-.077-.178-.089-3.743-1.77-.14-.063h-.14v-.484zm-5.334-31.216l.28 4.965-1.553 1.846.713 2.126 2.266 1.706-.14 3.539 1.273 5.678-.42 5.245-.993 8.644 1.133 1.566 2.266-.992 1.49 2.546 6.747-2.33.178-.063.114.152 2.101 2.864 3.45.357 2.47-4.952v-.089h.09l2.66-1.07-1.006-1.502-.089-.127.076-.14 1.477-2.776-1.617-1.438-.216-.179.204-.204 1.91-1.909.178-1.668v-.152l.127-.064 2.177-.981.216-.102.115.204 1.426 2.546 1.833-1.501.19-3.234v-.064l.714-1.413-3.247-4.01-.102-.128.077-.153 2.546-4.774-3.157-3.908h-2.992l-.076-.14-1.719-3.399-5.194-4.723-.713 6.811-2.826-1.426-5.398.28-1.986 2.546-3.972-6.671-3.12 2.839.039-.178z" fill="#E5E5E5"/><path fill-rule="evenodd" clip-rule="evenodd" d="M63.273 300.781l-1.96 1.604-.243.191-.153-.267-1.45-2.546-1.821.827-.179 1.617-.012.102-.064.064-1.77 1.769 1.566 1.388.153.14-.09.178-1.514 2.814 1.108 1.642.178.28-.306.115-2.864 1.145-1.171 2.343 3.386 6.391.114.203-.203.141-2.24 1.489.177 4.265 5.755 5.181h3.246l.064.191.98 3.145.038.114-.063.102-.968 1.668 2.814 2.266 3.259.191.127.013.076.102.93 1.336 2.062-1.273-.878-1.757-.102-.19.166-.141 2.762-2.164.076-.063.102.012 4.634.191 1.592-1.247.19-4.176-.967-4.061-2.94-5.296-.039-.077.013-.089.776-4.634-2.711-4.647-.013-.012-.013-.026-1.133-3.03-2.622-.751-.09-.025-.063-.077-1.273-1.833-2.012.369-.153.026-.089-.115-4.175-5.118zm-25.564 5.729l.19 3.348 3.744 1.769 5.334-5.868.382-.433.076.573.51 4.163 3.157-4.138.204-4.328-2.28-1.897-.088-.077-.013-.114-.191-3.234h-3.348l-.077-.127-2.278-3.616-2.763-.993-.395 2.954 3.158 3.743v.012l2.813 1.757.331.204-.305.229-4.227 3.119v2.559l-.242.025-3.692.37zm442.807 103.757l12.031 4.838 11.063 2.559 2.266 8.797 8.084 4.252 5.665-.14 8.085-4.825 6.25 1.986 6.519-.433 1.706 2.979 3.742.166 1.235-4.545.026-.115.102-.063 3.603-1.872-3.858-4.214-.191-.216.217-.166 3.768-3.042-1.426-4.291-.127-.356h7.524l4.392-3.654.089-.076.115.025 3.933.535 7.346-9.739.064-.089.127-.013 4.698-.357 1.413-2.304.051-.064.076-.038 4.023-1.642 3.068-3.794.357-4.036-3.221-2.151-.115-.077v-4.175l.102-.077 7.015-5.347 2.381-5.512.051-.115.101-.038 6.137-2.164-.344-4.902-3.768-3.399-4.202-.738-.152-.026-.064-.152-3.501-10.529-2.177-1.999-.178-.152.14-.191 2.164-3.081-.293-3.017-2.584 2.889-.089.115-.14-.025-2.19-.331-1.235 4.786-.038.14-.153.051-11.712 3.158-.166.051-.114-.153-1.961-2.674h-2.724l-.051-.038-2.534-1.349-1.387 3.259-.039.114-.114.039-5.576 1.858-.089.026-.09-.026-2.864-1.018-.688 3.233-.038.191-.191.026-5.665.713.497 2.788 3.45 2.902.203.179-.178.203-2.915 3.463-.548 5.245 1.884 4.431.306-.879 1.159-7.218v-.051l.025-.038 1.884-3.336.089-.153.166.026 2.47.293.191.012.038.204.433 2.75v.089l-1.159 6.48.433 6.315 1.006 3.45.025.089-.025.076-1.312 3.336-.025.051-.038.051-1.999 1.846-.649 1.171.7 2.202.025.09-.038.089-.878 2.177-.038.127-.14.038-2.127.522-.127 2.419-.013.064-.025.051-2.763 4.494-.051.089-.089.025-4.112 1.273-2.699 3.705-.089.114-.153-.012-3.093-.268-.815 4.685-.025.077-.039.051-2.317 2.61-.051.038-.051.025-7.409 3.285-.98 3.348-.038.14-.14.038-4.775 1.592-.267.089-.076-.268-.675-2.737-5.054-.98-.191-.038-.013-.191-.433-3.692-3.501-4.469h-4.736l-.076-.063-9.701-7.677-.025-.026-.026-.025-3.03-4.125-4.85 3.463-.077.051h-.089l-2.775-.064.14.611.038.14-.102.102-1.489 1.49.534 2.164.039.14-.09.102-2.049 2.33 1.833 3.564z" fill="#E5E5E5"/><path fill-rule="evenodd" clip-rule="evenodd" d="M411.896 430.763l18.244-6.862 6.531-.42 1.133 1.693 9.777 2.126.713 4.405 3.692 1.846 10.35 1.133 4.112.561 2.126 1.986 3.259-1.134 2.979-2.546 2.127-5.245-3.54-4.265.42-6.518 2.267-.713.152-2.979 2.979-.14.828-3.195-1.922-3.718-.077-.153.115-.14 2.088-2.355-.548-2.177-.038-.153.102-.101 1.489-1.49-.343-1.528-4.265.28h-.102l-.064-.051-10.681-7.447-.649 2.941-.039.191-.19.025-12.999 1.146-.815 3.425-.038.152-.152.039-2.534.674.267 2.381.013.153-.14.089-3.501 2.253-.14 2.33-.013.191-.191.051-2.406.56-4.29 3.577-.089.077-.115-.013-9.994-1.298-.063-.013-.051-.038-6.136-4.316-2.827-.229-1.833 4.812-.064.165-.165.013-7.104.458.458 4.902 4.252 7.549.115.217-.204.14-2.953 2.049.687 4.647z" fill="#E5E5E5"/><path fill-rule="evenodd" clip-rule="evenodd" d="M403.163 404.283l3.144-1.133 2.317-1.146 3.896-3.895-.891-2.457v-.166l.7-2.788-.942-3.73v-.127l.076-.102 2.547-3.297 1.273-3.985-3.82-1.35h-.127v-.127l-.725-2.381v-.127l.089-.102 2.991-3.921-1.604-3.909v-.152l.713-3.094v-.127h.127l3.998-1.884 1.973-1.973-4.188-8.148v-.179l.598-2.838-4.519 1.947h-.217l-5.869-2.546-6.722.929-2.546 3.005-.089.102h-7.027l-.102 18.421 2.546-.318h.267v.267l.471 3.718 3.514 3.743 1.159 3.246 3.259 2.33.242.166-.191.228-2.47 2.916 1.986 2.202.102.102v.141l-.955 3.819v.101l-.089.064-2.546 1.592-.217 4.455 5.78.179h.115l.076.089 1.922 2.189-.025.051zm-30.669 12.006l.497 4.876 4.532 2.546.14 4.825 4.545.993 1.833 2.266 5.092-2.687.993 3.54 3.272 4.825 5.093.56 1.553-3.399 6.811-.28 4.507-3.361-.726-5.016v-.166l.14-.089 2.89-1.999-4.163-7.396v-.038l-.433-4.749-3.654 2.801-.216.152-.153-.203-3.335-4.278-.077-.101v-.115l1.171-5.093-1.871-2.126-5.678-.165v.076h-.204l-3.564.713h-.115l-.102-.076-2.941-2.317-.203 2.368v.127l-2.852 4.278-.089.127h-.153l-5.181-.471-4.138 1.388-1.68 2.291 2.546 1.273h.102v.127l.712 3.094.064.28h-.293l-4.697.548.025.051z" fill="#E5E5E5"/><path fill-rule="evenodd" clip-rule="evenodd" d="M336.644 374.149l6.849 32.871 3.679-.56 2.559-3.692 2.406.993.713 3.832 7.804 4.252 6.098-2.266 3.26 1.413 2.329 4.825 4.494-.522-.611-2.673-2.75-1.375-.28-.14.191-.255 1.897-2.609.051-.077.076-.025 4.291-1.426.051-.013h.051l5.067.458 2.737-4.086.229-2.788.038-.484.395.293 3.221 2.546 3.246-.649.229-4.787.013-.14.114-.064 2.521-1.617.891-3.564-2.037-2.266-.152-.179.14-.178 2.431-2.864-3.093-2.216-.064-.05-.038-.077-1.159-3.272-3.539-3.768-.051-.064-.013-.089-.445-3.539-2.457.318-3.183 2.89-.089.077-.115-.013-6.098-.573-1.833 1.413-.166.127-.152-.127-1.884-1.477-5.296 5.144-.179.178-.191-.178-4.124-3.985-.064-.051-.013-.077-.726-3.042-3.386-4.52-13.991 4.8-.089.038-.09-.038-2.966-1.273-1.362.942-.14.102-.14-.089-2.228-1.388-2.877 1.693z" fill="#E5E5E5"/><path fill-rule="evenodd" clip-rule="evenodd" d="M325.937 360.196l7.346.165-2.979 3.132 6.136 10.147 2.954-1.719.14-.089.127.089 2.215 1.388 1.324-.942.127-.077.141.051 3.004 1.286 14.055-4.825.191-.064.114.153 3.54 4.723.038.038.013.051.713 3.03 3.895 3.743 5.271-5.13.165-.166.179.153 1.909 1.489 1.744-1.349.089-.064.102.013 6.086.586 3.068-2.801.153-18.791h-2.445l-3.475 2.877-.204.178-.165-.216-1.477-1.91-.064-.089v-.089l.433-7.104-10.198-.293h-.152l-.077-.14-1.833-3.399-5.309.153h-.203l-.051-.204-1.019-3.781-3.323-4.328-17.861-8.505v5.933l-.127.076-3.374 1.961.993 3.794.089.356-.369-.025-4.367-.293-3.399 1.413-1.986 3.552.445 10.248v.051l-.012.064-2.33 5.5z" fill="#E5E5E5"/><path fill-rule="evenodd" clip-rule="evenodd" d="M298.324 336.376l2.049.598.141 3.68-1.274 1.413.853 2.559-2.839 3.259.573 2.419 6.098 1.413.28 3.259 2.98.14 2.266.573 2.266 2.546-3.259 2.699v2.266l3.259-.993 2.839 1.566 2.559-.573 2.126-1.833 6.111-1.12 2.393-5.704-.433-10.274v-.063l.038-.077 2.063-3.679.038-.076.089-.039 3.539-1.476.064-.026h.051l4.061.267-.942-3.628-.051-.191.178-.089 3.412-1.999v-14.347l-2.444-2.572-.153-.178.14-.179 2.584-3.157-.229-1.96-4.799 3.297-.077.051-.076-.013-3.692-.153h-.064l-.063-.025-3.603-2.024-3.896.585-.102.013-.089-.064-5.118-3.653-2.304-.433-.395-.077.229-.331 1.643-2.329-2.457-2.457-4.762 4.621-.433 4.328-.012.077-.051.063-1.388 1.655.369 1.363 2.979 1.133.115.051.038.114 1.031 2.801.026.064-.013.076-.598 2.661v.051l-.026.038-1.031 1.617-.102.153-.178-.039-3.539-.7-2.661 2.928-.713 3.323-.025.076-.051.064-4.685 4.379-.853 2.292z" fill="#E5E5E5"/><path fill-rule="evenodd" clip-rule="evenodd" d="M397.319 298.935l-3.832-2.75-7.676 4.405-.153.089-.14-.102-6.442-4.723-9.179-.153h-.089l-.064-.038-6.047-4.035-4.316-1.248-4.035 3.043-3.018 9.624-.063.217-.217-.026-3.526-.433-2.725 1.77-.547 2.928-.026.127-.114.064-4.863 2.788.28 2.33.012.114-.076.089-2.508 3.056 2.355 2.495.064.077v8.338l18.142 8.632.063.025.038.064 3.387 4.418.038.038.013.051.98 3.641 5.245-.14.166-.013.076.14 1.846 3.412 10.325.293h.267l-.013.28-.445 7.282 1.247 1.617 3.336-2.776.076-.063h3.158l6.798.038 2.533-3.005.064-.076.102-.013 6.887-.942.077-.012.063.025 5.844 2.572 4.736-2.037.229-4.825.013-.115.089-.076 4.927-3.756.623-2.279-4.277-1.349-.064-.026-.038-.038-3.094-3.094-.063-.063-.013-.089-.471-4.049-.026-.14.115-.089 5.385-4.685.204-2.724-3.552-.459-.14-.012-.064-.128-3.984-8.198-13.648-2.114-.229-.038v-4.125l.064-.076 1.807-2.266-1.897-6.684zm17.607 66.787l-1.629.776-.662 2.877 1.629 3.96.051.153-.089.114-3.004 3.934.636 2.126 3.909 1.375.241.089-.076.242-1.426 4.278-.013.051-.025.038-2.546 3.221.929 3.679.013.064-.013.063-.7 2.776.917 2.546.063.152-.114.115-4.049 4.048-.025.026-.038.025-2.381 1.184-.013.013h-.013l-3.195 1.146-1.133 4.965 3.094 3.972 3.832-2.928.381-.293.026.217 6.938-.446 1.846-4.838.064-.178.204.013 2.902.229 2.075-4.354.039-.102.101-.038 3.705-1.388 1.12-2.47v-2.953l.141-.064 3.411-1.82-.229-2.89-1.413-4.252v-.026l-.013-.013-.7-3.984-3.055-4.711-.089-.127.063-.127 1.337-2.89-2.342-1.477-3.96.458h-4.494l-.063-.178-2.165-6.378zm-6.493-210.456l2.419 3.145 1.681-.739-.509-4.392-1.681-.865-1.91 2.851zm6.735-19.974l1.248 1.604 1.311-1.388-.585-2.19-1.681.51-.293 1.464zm46.239-77.532l5.309.968-1.235-3.972-3.718.076-.356 2.928zm4.43 9.994l2.916-3.896-.713-3.45 2.839-1.859 2.826-2.826 3.183 2.826 1.769 5.042 1.07 2.215-2.928 1.591v2.737l-7.244 3.272-3.718-3.36v-2.292zm-2.661 4.328l5.577 2.127-.802 2.648-2.559 1.413-3.718-2.56-.624-2.482 2.126-1.145zm4.953 8.848l2.482-6.11 6.811-3.361 1.235 4.697 1.77-.535.267-2.036 3.094 3.004-.268 3.985-2.291 3.717 1.935 2.305-.522 3.437-2.482 1.337-5.042-3.45-4.507-3.896-2.571-1.146.089-1.948zm17.785 3.45l-.624 7.957-3.004 5.487 1.145 4.151 4.953-3.972 5.219-.357 2.75-2.737.344-6.378-2.915-3.705-2.47 2.47-1.337-1.413.178-3.807-4.239 2.305zm14.59 11.496l.445 2.126 3.896.879-.178-1.502-3.896-2.381-.267.878zm-29.536 15.927l2.037 1.502 1.502-.891-1.069-2.203-2.47 1.592zm-17.964-2.928l2.572 1.426.178-2.037-1.68-1.948-1.248 1.057.178 1.502zm15.838 8.491l.967 1.07 1.248-1.159-1.413-1.502-.802 1.591zm-43.209 26.697l1.973 1.833 1.312-1.311-.51-2.05-1.68-.445-1.095 1.973zm4.749 2.343l1.107.815.726-1.401-1.248-1.387-.585 1.973zm2.864-5.335l1.095.726.649-1.235-1.68-1.095-.064 1.604zm1.973-2.928l1.235.955 1.171-1.68-1.896-1.401-1.032.738.522 1.388zm-8.86-10.095l1.4.954 2.037-1.247-1.171-2.05-1.757-.509-1.681 1.464 1.172 1.388zm4.392-7.168l-.509 1.235 1.094 1.541 1.172-1.235.076-1.401-1.833-.14zm-3.31-50.35l-.318 1.667 1.718 1.719 2.406.05-.114-2.15-1.655-2.203-2.037.916zm10.719-12.936l2.241.7 2.47-.649-1.452-3.22-1.82-1.452-1.286 1.248-.267 2.037.114 1.336zm66.086 338.732l-.496-2.546v-.229l.229-.076 2.546-.79-1.082-3.819-.076-.242.229-.076 3.03-1.146.216-.077.115.204 2.355 4.723 5.869-3.501.204-.127.14.204 2.037 2.839 1.744 1.591 2.266-.853h3.374l.076.127 1.566 2.47.102.153-.115.153-6.111 7.766-.152.191-.204-.14-3.705-2.61-4.545.433h-.165l-2.661-1.681-3.183-2.317-3.284-.28h-.191v-.204l-.128-.14zm25.641-130.632l-1.707 1.897v.064h-.089l-4.073.853-3.692 1.642.203 4.1 1.07 2.762v.203l-2.101 4.622 2.088 3.335v.064l.433 4.965v.153l-3.247 6.251v.076l-5.397 3.323 2.024 3.45.089.153-.102.14-2.292 3.132 1.273 4.061 4.609 1.464h.14v.153l.649 3.03v.127l-.089.102-3.386 3.603-.191 2.546 2.164.598h.127v.141l1.083 3.246v.153l-.128.114-2.546 2.546-1.069 3.819-.089.331-.293-.165-4.749-2.814v-.076l-2.266-4.94-4.379 1.987-.637 4.175v.076l-9.637 10.491.433 4.851v.19l-.179.077-2.546 1.082-.229.089-.102-.229-3.705-8.021-2.546 3.323-.076.102h-.115l-10.006.433-3.96 7.282 4.456 6.989v.204l-.865 3.883v.178h-.179l-4.405.636-2.546 4.788-.865 12.908v.268h-.281l-4.239-.433-3.017 1.413v2.546l7.256 6.506 10.924 7.639 4.392-.281h.229v.217l.166.738 2.826.077 4.99-3.578.217-.153.152.217 3.17 4.315 9.6 7.639h4.812l.076.102 3.629 4.634v.14l.42 3.564 5.016.981h.165v.153l.662 2.622 4.38-1.451.865-3.004h-4.736v-.153l-1.018-2.177-.102-.217.204-.114 2.177-1.273 2.979-.42 5.983-4.138 2.139-3.285 4.43-4.01.993-2.979 2.547-4.494 3.17-4.901 2.737-7.498 2.05-6.022-2.139-5.029v-.14l.56-5.385v-.293l2.801-3.336-3.323-2.801h-.076v-.165l-.561-3.17v-.268h.281l5.754-.712.713-3.349v-.305l.293.102 3.068 1.095 5.385-1.796 1.439-3.424.114-.267.255.139 2.724 1.452h2.954l.089.114 1.935 2.636 11.394-3.068 1.273-4.876v-.229h.242l2.279.343 2.877-3.233.395-.446v.598l.343 3.514 6.952 1.069 4.086-2.838.166-5.309-4.342-3.081h-.101v-.127l-.37-6.697v-.14l.115-.076 2.419-1.859h.089l5.933-.166-5.577-12.642-2.991-2.061-5.245 2.38-.268.115-.089-.281-1.91-5.741-8.236-3.412-4.189.7-6.531 14.004-4.392 5.092-.191.217-.204-.204-3.17-3.17-2.024 3.603-.076.127h-.153l-6.022.242-4.086 3.132-.191.14-.166-.166-3.908-4.163-.077-.076v-.114l.726-10.758 3.552-8.275-4.609-1.375h-.114v-.115l-2.203-4.888v-.166l1.668-6.887-3.743-2.101-.14-.089v-.153l.242-6.773-2.763-5.295-2.202 1.54h-.166l-3.182-.255h-.242v-3.819l.127-.077 2.457-1.578-2.037-3.081-.012.038z" fill="#E5E5E5"/><path d="M504.31 393.844l.42 2.189 3.068.255h.077l.076.013.064.038.051.051 3.182 2.317 2.585 1.617 4.456-.42h.089l.102-.013.076.064.076.051 3.501 2.457 5.831-7.423-1.375-2.189h-2.953l-2.228.84-.153.051-.14.064-.127-.115-.115-.102-1.731-1.604h-.013l-.013-.013-.025-.025-.013-.013-.013-.025-1.897-2.648-5.665 3.373-.242.14-.242.153-.127-.255-.127-.254-2.254-4.507-2.571.968 1.018 3.59.076.254.077.242-.255.077-.242.076-2.304.726z" fill="#E5E5E5"/><path fill-rule="evenodd" clip-rule="evenodd" d="M578.519 413.882l1.273-3.348v-.293h.305l7.333-.904 2.114-4.379.152-.318.153-.332.255.242.267.242 1.681 1.541 1.757-4.138v-.267h.28l3.717-.752h.204l.089.064h.089l4.456 2.788.153.102.152.089v.357l-.56 2.979v.331h-.331l-2.19.509 3.731 3.412.28.267.292.255-.356.178-.344.166-15.43 7.435-.14.063h-.127l-.114-.076-.128-.076-8.911-5.577-.179-.114-.191-.115.077-.204.076-.204.115.077zm-32.057 16.55l2.381.102 2.406 4.545 18.574 1.693 12.489-7.511 3.972-.14 1.274-4.112 6.098-5.678 8.504-.433 2.546 2.419 3.539-3.259 15.036 2.406 2.126-5.818 5.092-3.539-2.126-5.245 2.279-14.183 3.819-3.819-2.546-6.811-5.398-.56 3.819-7.091 6.76-4.698-6.111-9.166-.101-.153.101-.14 2.063-2.928-3.654-2.088-.114-.063v-.141l-.535-7.129-3.603.853h-.191l-.102-.178-2.279-4.049-4.799 2.661-.178.102-.14-.14-2.967-2.979-.153-.153.128-.178 1.693-2.381-5.907-3.946v-.064l-7.55-14.004-6.072.178-2.241 1.731.357 6.366 4.354 3.093.114.077v.14l-.191 5.589v.127l-.102.077-4.277 2.979h-.191l-7.091-1.095-1.999 2.839 2.05 1.884v.063l3.488 10.452 4.112.713h.076l3.896 3.527.076.076v.102l.37 5.207v.204h-.191l-6.213 2.189-2.368 5.475v.063l-6.964 5.309v3.629l3.234 2.151.127.09v.152l-.369 4.278v.14l-3.157 3.908-4.011 1.642-1.451 2.343v.115h-.14l-4.71.356-7.359 9.764-.102.115h-.153l-3.972-.547-4.366 3.641-.077.064h-6.976l1.362 4.112v.178l-.14.114-3.692 2.979 3.908 4.265.23.242-.306.165-3.819 1.987-1.171 4.328-.128.42z" fill="#E5E5E5"/><path d="M580.314 410.725l-1.299 3.335 8.925 5.589 15.429-7.447-4.086-3.743-.369-.344.483-.115 2.674-.624.56-2.979-4.469-2.788-3.717.739-1.897 4.494-.153.344-.267-.255-1.961-1.782-2.164 4.506-.063.14-.141.013-7.485.917zM525.1 265.478l-.153.102-.153-.115-2.953-2.317h-7.104l.025-.293.433-3.882.013-.077.051-.063 4.074-4.927 1.209-3.221-2.635-1.834-.115-.076v-3.705l-2.317-2.52-.089-.102.025-.127 1.057-5.016-2.686-2.063-.217-.165.191-.217 4.023-4.443-1.502-18.829-4.698-7.244 2.356-1.209 5.665-4.622.089-.063.102.012 3.348.382 1.222-5.869v-.05l.039-.039 1.655-2.482.407-3.31.013-.102.089-.076 6.951-5.513-2.992-3.59-.064-.076v-5.704l-6.059-8.568-.039-.051v-.063l-.84-4.354-1.859-2.483-.063-.089.012-.089.204-2.483-3.743 1.872-4.252 3.259-5.818 1.706-2.266 3.959.14-5.665 11.763-12.196 6.531-11.776 2.979-10.491-9.077-10.35-8.517-.293-2.966 4.265-3.412.56 2.559-7.231-6.951-.853 2.266-3.259-4.252-3.539-3.832 1.413-6.098 9.077 1.426 5.385-6.531.433.14 1.693 2.419 3.552-4.685-.993-2.407 2.266-5.397-.993-.701-2.406-7.664.14.14 4.392-9.217 1.273-6.238 4.966-4.825.14-3.539 3.119-1.566 6.391 2.979 5.385-4.532 1.133-12.056-1.986-6.952-.14-2.126 3.832-.292 9.93 4.405 4.252 2.126 4.965h-6.099l-5.245-9.79-3.857.229.051.497 3.348 7.116.153.319-.344.063-3.603.599-.802 4.366 3.336 7.091.038.089-.026.09-.84 3.373-.025.128-.128.051-7.88 3.526-.993 3.972 5.13 6.786 5.819 1.451.165.038.025.166 1.274 7.282-.37.942v-.013l-2.062 5.207-.038.127-.14.039-5.309 1.438 1.604 3.819.038.09-.025.089-1.693 5.054 4.239 5.5.064.089-.013.102-1.07 10.044 3.4 4.66.063.102-.025.101-1.261 7.181 5.055 3.793.076.064.025.102.853 5.181.026.102-.064.102-4.494 6.187-.42 5.551-.013.076-.051.064-6.925 8.797v6.862l5.652 3.247.204.114-.089.217-1.006 2.597-.038.114-.102.038-5.067 2.177-.038.013h-.038l-4.329.548 1.872 6.607.038.127-.089.115-1.833 2.304v3.476l13.558 2.113.14.025.064.128 3.972 8.186 3.666.458.255.026-.026.254-.241 3.094v.102l-.09.076-5.359 4.659.445 3.82 2.992 2.979 4.443 1.4.242.077-.064.254-.712 2.61-.026.089-.064.051-4.901 3.73-.229 4.876-.013.153-.025.013-.662 3.106 4.239 8.237.089.178-.14.128-2.139 2.138-.025.038-.051.013-1.808.853 2.126 6.264h4.074l4.023-.484h.102l.076.051 2.61 1.655.204.127-.102.204-1.362 2.966 3.004 4.634.038.039v.05l.713 4.036 1.426 4.252v.038l.013.026.229 3.094.013.165-.153.089-3.425 1.821v2.75l-.025.051-1.184 2.622-.051.102-.102.038-3.704 1.388-1.999 4.214 5.971 4.201 9.802 1.286 4.265-3.552.051-.038.051-.013 2.279-.535.127-2.266.013-.14.115-.076 3.475-2.215-.267-2.445-.026-.229.217-.064 2.597-.674.84-3.476.038-.178.191-.026 12.986-1.133.649-2.991-7.257-6.493-.076-.089v-3.081l.153-.077 3.233-1.515.064-.025h.076l4.036.407.853-12.68v-.051l.026-.05 2.597-4.966.063-.127.128-.013 4.354-.623.802-3.603-4.482-7.028-.076-.127.076-.14 4.1-7.562.076-.128h.14l10.019-.432 2.738-3.565.267-.357.178.395 3.781 8.199 2.177-.917-.407-4.774-.013-.114.077-.077 9.662-10.516.624-4.201-.025-.127 5.168-2.381.115.242 2.342 5.092 4.38 2.598.993-3.552.013-.077.051-.051 2.469-2.469-.98-2.941-2.241-.624-.203-.051.012-.216.217-2.801.013-.102.063-.064 3.361-3.564-.598-2.75-4.596-1.464-.14-.039-.038-.127-1.299-4.316-.038-.127.089-.115 2.266-3.093-2.062-3.527-.14-.216.229-.14 5.551-3.412 3.157-6.124-.42-4.837-2.126-3.399-.064-.115.051-.127 2.113-4.647-1.031-2.712-.025-.038v-.038l-.217-4.316v-.178l.166-.077 3.883-1.731.025-.013h.026l4.023-.84 1.731-1.935-1.439-1.795-3.042 2.024zm332.353-6.518l-1.146-14.17-1.553-6.531-4.685-4.685.433-6.938 2.406-1.986-8.084-9.37.14-6.518 3.399-3.692-.84-3.68-6.811-1.986-6.951-12.336 1.706-1.146 2.126 2.979 3.399-2.126-5.245-4.965-2.839 1.566-4.532-2.941-.064.089-2.355-5.512h-4.672l-.573 3.259-2.979-.28-9.638-19.287.561-6.111 3.832-.841-2.839-11.356 6.098 4.826.152-13.61 4.813-4.965 7.231-.14-4.112-10.07-1.961-21.694-4.685 1.413-.102.039-.089-.051-3.488-1.834-6.022 17.302-.063.178-.191-.013-7.664-.191-7.079 2.165-.229.076-.089-.242-2.304-6.34-9.536.573-1.706 3.043-.063.102-.115.025-6.569 1.54-1.146 3.425-.051.153-.165.025-3.578.37-1.133 3.984-.051.14-.127.039-4.125 1.311.739 4.061 5.919 8.619 3.692.776.141.026.05.14 2.508 6.582 4.189-.382.114-.013.09.077 2.788 2.597.063.051.013.089.777 4.061 3.844 2.164 2.661-2.482-7.231-8.645 1.706-5.678 6.938-2.406-3.679 5.525.853 4.253 5.525 3.832 2.559.14-.14 3.972 2.406.572-2.266 11.344 2.546 4.252.853 13.189 1.986 8.517 2.699 8.504-3.119 3.412.98 3.259-1.693 2.266 4.392 5.106.713 8.084 6.035 6.811 7.155 8.084 39.147 26.226zm-589.149-20.574l-.063-.012-.064-.038-8.072-6.621-2.889 1.592-.077.038h-.076l-7.957-.904.013-.064-5.309-2.749-.038-.026-.039-.038-4.875-5.5-6.328-.598-1.871 4.621 4.468 5.92.039.051.012.089.268 4.214.012.191-.178.076-7.358 3.094v2.483l2.024 1.769.178.153-2.304 3.093-.013-.025-2.011 2.253-2.712 6.99-.013.051-.038.038-2.279 2.444-1.477 3.845-.012.038-.039.038-2.482 2.737-.076.09h-.141l-2.113-.153-.076 5.232 2.368-.063.28-.013v4.163l5.207.229.229.013.025.229.23 2.953 2.215.535.152.038.039.166.331 1.489v.013l.331 2.088.764 1.057 1.973-.522 4.392-5.182.064-.089.102-.013 4.965-.509 3.144-4.99.191-.293.229.254 2.266 2.521 1.999-1.298.777-3.514.051-.204h.203l5.513-.267 1.477-1.846.394-3.82.013-.076.051-.064 2.431-2.813-1.795-3.463-.038-.064.013-.063.127-2.826.013-.153.14-.077 5.856-2.66 6.786-6.646 4.532-5.996.853-1.948-4.927-.688zM29.867 274.364l3.042-3.552-6.862-9.026 4.074-11.56-2.928-2.406-2.533 1.782-10.045-6.862-1.26 2.024.382 8.136-3.82 4.061 1.019 5.589 6.607-.382 7.371 9.28 4.953 2.916z" fill="#E5E5E5"/><path d="M114.846 136.59l-.408-.484 52.133-44.494h.115l187.399.14v.636l-187.272-.14-51.967 44.342zm19.274 60.103l-52.999-26.595H.942v-.637h80.332l.077.026 53.062 26.633-.293.573z" fill="#7A7C80"/><path d="M114.642 151.969c8.627 0 15.621-6.993 15.621-15.621 0-8.627-6.994-15.62-15.621-15.62s-15.62 6.993-15.62 15.62c0 8.628 6.993 15.621 15.62 15.621z" fill="#fff"/><path d="M114.642 152.262a15.911 15.911 0 01-14.702-9.824 15.912 15.912 0 0120.792-20.792 15.912 15.912 0 019.824 14.702 15.928 15.928 0 01-15.914 15.914zm0-31.242a15.277 15.277 0 1015.277 15.277 15.342 15.342 0 00-15.277-15.277z" fill="#7A7C80"/><path d="M114.642 146.113c5.393 0 9.765-4.372 9.765-9.765 0-5.393-4.372-9.765-9.765-9.765-5.393 0-9.765 4.372-9.765 9.765 0 5.393 4.372 9.765 9.765 9.765z" fill="#325AA9"/><path d="M134.273 212.021c8.627 0 15.621-6.994 15.621-15.621s-6.994-15.621-15.621-15.621-15.621 6.994-15.621 15.621 6.994 15.621 15.621 15.621z" fill="#fff"/><path d="M134.26 212.314a15.92 15.92 0 01-14.702-9.824 15.92 15.92 0 01-.906-9.195 15.917 15.917 0 0121.698-11.597 15.912 15.912 0 019.824 14.702 15.925 15.925 0 01-15.914 15.914zm0-31.242a15.274 15.274 0 00-14.114 9.431 15.276 15.276 0 0011.134 20.83c2.963.589 6.035.287 8.827-.869a15.283 15.283 0 009.43-14.114 15.355 15.355 0 00-15.277-15.278z" fill="#7A7C80"/><path d="M134.273 206.164c5.393 0 9.765-4.371 9.765-9.764 0-5.393-4.372-9.765-9.765-9.765-5.393 0-9.765 4.372-9.765 9.765 0 5.393 4.372 9.764 9.765 9.764z" fill="#325AA9"/><path d="M172.759 78.311c-1.85 0-3.401-.608-4.655-1.824-1.242-1.229-1.862-2.806-1.862-4.731 0-1.925.62-3.496 1.862-4.712 1.254-1.229 2.805-1.843 4.655-1.843 2.026 0 3.629.836 4.807 2.508l-1.33.741a4.2 4.2 0 00-1.482-1.33 4.071 4.071 0 00-1.995-.513c-1.394 0-2.559.488-3.496 1.463-.925.963-1.387 2.191-1.387 3.686s.462 2.73 1.387 3.705c.937.963 2.102 1.444 3.496 1.444a4.132 4.132 0 003.477-1.843l1.349.741c-1.229 1.672-2.838 2.508-4.826 2.508zm13.942-.228h-1.425v-1.045c-.773.849-1.786 1.273-3.04 1.273a3.374 3.374 0 01-2.242-.817c-.646-.545-.969-1.286-.969-2.223 0-.963.316-1.704.95-2.223.646-.532 1.399-.798 2.261-.798 1.304 0 2.318.418 3.04 1.254v-1.653c0-.608-.216-1.083-.646-1.425-.431-.342-.988-.513-1.672-.513-1.077 0-2.014.424-2.812 1.273l-.665-.988c.975-1.013 2.197-1.52 3.667-1.52 1.051 0 1.906.253 2.565.76.658.507.988 1.286.988 2.337v6.308zm-3.952-.798c1.14 0 1.982-.38 2.527-1.14v-1.729c-.545-.76-1.387-1.14-2.527-1.14-.659 0-1.204.19-1.634.57-.418.367-.627.849-.627 1.444 0 .583.209 1.064.627 1.444.43.367.975.551 1.634.551zm8.233.798h-1.425v-9.177h1.425v3.819h4.788v-3.819h1.425v9.177h-1.425v-4.104h-4.788v4.104zm17.134 0h-1.824l-3.306-4.123-1.52 1.501v2.622h-1.425v-9.177h1.425v4.883l4.826-4.883h1.805l-4.066 4.161 4.085 5.016zm4.781 0h-1.425V70.16h-2.66v-1.254h6.764v1.254h-2.679v7.923zm8.253-3.971h-4.56v-1.254h4.56v1.254zm12.612 3.971h-1.577V66.816h-7.41v11.267h-1.577V65.41h10.564v12.673zm7.048.228c-1.368 0-2.489-.443-3.363-1.33-.874-.9-1.311-2.065-1.311-3.496 0-1.343.43-2.476 1.292-3.401.861-.937 1.938-1.406 3.23-1.406 1.355 0 2.425.469 3.211 1.406.798.925 1.197 2.096 1.197 3.515v.361h-7.429c.063.9.392 1.653.988 2.261.595.608 1.368.912 2.318.912 1.14 0 2.083-.386 2.831-1.159l.684.931c-.938.937-2.154 1.406-3.648 1.406zm2.85-5.396a3.288 3.288 0 00-.798-2.109c-.52-.633-1.261-.95-2.223-.95-.912 0-1.634.31-2.166.931a3.49 3.49 0 00-.836 2.128h6.023zm6.811 5.168h-1.425V70.16h-2.66v-1.254h6.764v1.254h-2.679v7.923zm8.689.228c-1.368 0-2.489-.443-3.363-1.33-.874-.9-1.311-2.065-1.311-3.496 0-1.343.431-2.476 1.292-3.401.861-.937 1.938-1.406 3.23-1.406 1.355 0 2.426.469 3.211 1.406.798.925 1.197 2.096 1.197 3.515v.361h-7.429c.063.9.393 1.653.988 2.261.595.608 1.368.912 2.318.912 1.14 0 2.084-.386 2.831-1.159l.684.931c-.937.937-2.153 1.406-3.648 1.406zm2.85-5.396a3.288 3.288 0 00-.798-2.109c-.519-.633-1.26-.95-2.223-.95-.912 0-1.634.31-2.166.931a3.496 3.496 0 00-.836 2.128h6.023zm8.236 5.396c-1.292 0-2.324-.538-3.097-1.615v4.883h-1.425V68.906h1.425v1.368a3.81 3.81 0 011.33-1.159 3.69 3.69 0 011.767-.437c1.216 0 2.198.437 2.945 1.311.76.861 1.14 2.027 1.14 3.496 0 1.47-.38 2.641-1.14 3.515-.747.874-1.729 1.311-2.945 1.311zm-.361-1.273c.9 0 1.615-.33 2.147-.988.532-.671.798-1.526.798-2.565s-.266-1.887-.798-2.546c-.532-.659-1.247-.988-2.147-.988-.544 0-1.076.146-1.596.437-.506.279-.886.62-1.14 1.026v4.142c.254.418.634.773 1.14 1.064.52.279 1.052.418 1.596.418zm8.479-1.026c.558.684 1.305 1.026 2.242 1.026.938 0 1.679-.342 2.223-1.026.545-.697.817-1.545.817-2.546 0-.975-.272-1.805-.817-2.489-.544-.684-1.285-1.026-2.223-1.026-.937 0-1.684.342-2.242 1.026-.544.684-.817 1.514-.817 2.489 0 1 .273 1.85.817 2.546zm2.242 2.299c-1.38 0-2.482-.488-3.306-1.463-.823-.975-1.235-2.236-1.235-3.781 0-2.179.393-3.787 1.178-4.826.786-1.051 1.995-1.685 3.629-1.9.976-.152 1.647-.298 2.014-.437.38-.14.57-.304.57-.494h1.387c0 .355-.107.665-.323.931-.215.253-.525.456-.931.608a9.45 9.45 0 01-1.121.361c-.342.076-.753.146-1.235.209-1.266.177-2.185.526-2.755 1.045-.557.52-.924 1.21-1.102 2.071.836-1.305 1.989-1.957 3.458-1.957 1.267 0 2.299.462 3.097 1.387s1.197 2.058 1.197 3.401c0 1.368-.411 2.52-1.235 3.458-.823.925-1.919 1.387-3.287 1.387zm6.444 3.363l.228-1.292c.228.101.488.152.779.152.329 0 .602-.07.817-.209.215-.14.399-.393.551-.76l.608-1.387-3.838-9.272h1.539l3.059 7.524 3.04-7.524h1.558l-4.598 11.039c-.507 1.216-1.406 1.837-2.698 1.862-.38 0-.728-.044-1.045-.133zm14.35-3.363c-1.292 0-2.325-.538-3.097-1.615v4.883h-1.425V68.906h1.425v1.368a3.802 3.802 0 011.33-1.159 3.685 3.685 0 011.767-.437c1.216 0 2.197.437 2.945 1.311.76.861 1.14 2.027 1.14 3.496 0 1.47-.38 2.641-1.14 3.515-.748.874-1.729 1.311-2.945 1.311zm-.361-1.273c.899 0 1.615-.33 2.147-.988.532-.671.798-1.526.798-2.565s-.266-1.887-.798-2.546c-.532-.659-1.248-.988-2.147-.988-.545 0-1.077.146-1.596.437-.507.279-.887.62-1.14 1.026v4.142c.253.418.633.773 1.14 1.064a3.335 3.335 0 001.596.418zm13.134-8.132v1.254h-4.997v7.923h-1.425v-9.177h6.422zM13.889 157.88h-1.577v-10.431L7.999 157.88h-.646l-4.294-10.431v10.431H1.482v-12.673h2.261l3.933 9.538 3.952-9.538h2.261v12.673zm10.195-1.159c-.823.925-1.919 1.387-3.287 1.387-1.368 0-2.47-.462-3.306-1.387-.823-.924-1.235-2.071-1.235-3.439 0-1.368.412-2.508 1.235-3.42.836-.924 1.938-1.387 3.306-1.387s2.464.463 3.287 1.387c.836.912 1.254 2.052 1.254 3.42 0 1.368-.418 2.515-1.254 3.439zm-5.529-.912c.558.684 1.305 1.026 2.242 1.026.938 0 1.679-.342 2.223-1.026.545-.696.817-1.539.817-2.527 0-.988-.272-1.824-.817-2.508-.544-.684-1.285-1.026-2.223-1.026-.937 0-1.684.349-2.242 1.045-.544.684-.817 1.514-.817 2.489 0 .988.273 1.831.817 2.527zm13.153 2.299c-1.355 0-2.457-.456-3.306-1.368-.848-.924-1.273-2.077-1.273-3.458 0-1.38.425-2.527 1.273-3.439.849-.912 1.951-1.368 3.306-1.368 1.419 0 2.54.532 3.363 1.596l-.95.874c-.582-.798-1.361-1.197-2.337-1.197-.962 0-1.735.33-2.318.988-.57.659-.855 1.508-.855 2.546 0 1.039.285 1.894.855 2.565.583.659 1.356.988 2.318.988.963 0 1.742-.399 2.337-1.197l.95.874c-.823 1.064-1.944 1.596-3.363 1.596zm13.436-.228H43.32l-3.306-4.123-1.52 1.501v2.622h-1.425v-9.177h1.425v4.883l4.826-4.883h1.805l-4.066 4.161 4.085 5.016zm6.833 0h-5.149v-9.177h5.054c.798 0 1.425.216 1.881.646.469.431.703 1.001.703 1.71 0 .52-.145.969-.437 1.349a2.02 2.02 0 01-1.045.741c.469.114.862.387 1.178.817.33.431.494.906.494 1.425 0 .748-.24 1.349-.722 1.805-.468.456-1.12.684-1.957.684zm-.285-1.254c.456 0 .817-.126 1.083-.38.266-.253.4-.595.4-1.026 0-.392-.134-.728-.4-1.007-.266-.278-.627-.418-1.083-.418h-3.439v2.831h3.44zm-.057-4.085c.431 0 .767-.114 1.007-.342.241-.24.361-.551.361-.931 0-.405-.12-.722-.36-.95-.241-.24-.577-.361-1.008-.361h-3.382v2.584h3.382zm12.877 5.339h-1.425v-1.045c-.773.849-1.786 1.273-3.04 1.273a3.373 3.373 0 01-2.242-.817c-.646-.544-.97-1.285-.97-2.223 0-.962.318-1.703.95-2.223a3.453 3.453 0 012.262-.798c1.305 0 2.318.418 3.04 1.254v-1.653c0-.608-.216-1.083-.646-1.425-.43-.342-.988-.513-1.672-.513-1.077 0-2.014.425-2.812 1.273l-.665-.988c.975-1.013 2.197-1.52 3.667-1.52 1.051 0 1.906.254 2.565.76.659.507.988 1.286.988 2.337v6.308zm-3.952-.798c1.14 0 1.982-.38 2.527-1.14v-1.729c-.545-.76-1.387-1.14-2.527-1.14-.659 0-1.204.19-1.634.57-.418.368-.627.849-.627 1.444 0 .583.209 1.064.627 1.444.43.368.975.551 1.634.551z" fill="#7A7C80"/></svg>